<svg width="313" height="74" viewBox="0 0 313 74" fill="none" xmlns="http://www.w3.org/2000/svg">
<line x1="0.75" y1="3.25" x2="19.25" y2="3.25" stroke="#151515" stroke-width="1.5" stroke-linecap="round"/>
<line x1="0.75" y1="9.25" x2="19.25" y2="9.25" stroke="#151515" stroke-width="1.5" stroke-linecap="round"/>
<line x1="0.75" y1="15.25" x2="19.25" y2="15.25" stroke="#151515" stroke-width="1.5" stroke-linecap="round"/>
<path d="M53 1.15273V18.8184C53 18.9065 53.1056 18.9515 53.1692 18.8906L60 12.3443L66.8308 18.8906C66.8944 18.9515 67 18.9065 67 18.8184V1.15273C67 1.09751 66.9552 1.05273 66.9 1.05273H53.1C53.0448 1.05273 53 1.09751 53 1.15273Z" stroke="#151515" stroke-width="1.5"/>
<mask id="path-5-inside-1_588_1799" fill="white">
<path fill-rule="evenodd" clip-rule="evenodd" d="M100.007 5.90241C100.002 5.8105 100 5.71802 100 5.625C100 2.5184 102.518 0 105.625 0C107.392 0 108.969 0.814792 110 2.08917C111.031 0.814792 112.608 0 114.375 0C117.482 0 120 2.5184 120 5.625C120 5.71802 119.998 5.81051 119.993 5.90242C119.998 6.01468 120 6.13051 120 6.25C120 11.875 110 20 110 20C110 20 100 11.8809 100 6.25C100 6.13051 100.002 6.01468 100.007 5.90241Z"/>
</mask>
<path d="M100.007 5.90241L101.506 5.96202L101.508 5.89583L101.505 5.82965L100.007 5.90241ZM110 2.08917L108.834 3.03274L110 4.47373L111.166 3.03274L110 2.08917ZM119.993 5.90242L118.495 5.82966L118.492 5.89583L118.494 5.96203L119.993 5.90242ZM110 20L109.055 21.1645L110 21.9324L110.946 21.1642L110 20ZM101.505 5.82965C101.502 5.76197 101.5 5.69374 101.5 5.625H98.5C98.5 5.74229 98.5028 5.85904 98.5085 5.97518L101.505 5.82965ZM101.5 5.625C101.5 3.34683 103.347 1.5 105.625 1.5V-1.5C101.69 -1.5 98.5 1.68997 98.5 5.625H101.5ZM105.625 1.5C106.92 1.5 108.075 2.09518 108.834 3.03274L111.166 1.1456C109.862 -0.465598 107.864 -1.5 105.625 -1.5V1.5ZM111.166 3.03274C111.925 2.09518 113.08 1.5 114.375 1.5V-1.5C112.136 -1.5 110.138 -0.465598 108.834 1.1456L111.166 3.03274ZM114.375 1.5C116.653 1.5 118.5 3.34683 118.5 5.625H121.5C121.5 1.68997 118.31 -1.5 114.375 -1.5V1.5ZM118.5 5.625C118.5 5.69373 118.498 5.76196 118.495 5.82966L121.492 5.97517C121.497 5.85905 121.5 5.7423 121.5 5.625H118.5ZM121.5 6.25C121.5 6.11165 121.497 5.97592 121.492 5.8428L118.494 5.96203C118.498 6.05343 118.5 6.14936 118.5 6.25H121.5ZM110 20C110.946 21.1642 110.946 21.164 110.946 21.1638C110.947 21.1636 110.947 21.1634 110.947 21.1632C110.948 21.1627 110.948 21.1621 110.949 21.1614C110.951 21.16 110.953 21.1581 110.956 21.1557C110.962 21.1509 110.97 21.1442 110.981 21.1355C111.002 21.1182 111.032 21.0932 111.071 21.0609C111.149 20.9962 111.261 20.9022 111.403 20.7813C111.686 20.5396 112.089 20.1903 112.57 19.7541C113.53 18.8834 114.816 17.6583 116.107 16.2465C117.393 14.8405 118.714 13.2161 119.722 11.5468C120.711 9.90799 121.5 8.06195 121.5 6.25H118.5C118.5 7.25055 118.039 8.52951 117.153 9.99618C116.286 11.4323 115.107 12.8939 113.893 14.2222C112.684 15.5449 111.47 16.7025 110.555 17.5311C110.099 17.9445 109.72 18.2739 109.456 18.4985C109.325 18.6108 109.222 18.6968 109.153 18.7539C109.119 18.7824 109.093 18.8037 109.077 18.8175C109.068 18.8244 109.062 18.8294 109.058 18.8325C109.056 18.834 109.055 18.835 109.054 18.8356C109.054 18.8359 109.054 18.8361 109.054 18.8361C109.054 18.8361 109.054 18.836 109.054 18.8361C109.054 18.836 109.054 18.8358 110 20ZM98.5 6.25C98.5 8.06318 99.2887 9.90985 100.278 11.5492C101.286 13.2189 102.608 14.8432 103.893 16.2489C105.184 17.6603 106.47 18.885 107.431 19.7552C107.912 20.1911 108.314 20.5403 108.597 20.7818C108.739 20.9027 108.851 20.9967 108.929 21.0613C108.968 21.0936 108.998 21.1186 109.02 21.1359C109.03 21.1445 109.038 21.1513 109.044 21.1561C109.047 21.1584 109.049 21.1604 109.051 21.1618C109.052 21.1625 109.053 21.1631 109.053 21.1635C109.054 21.1637 109.054 21.164 109.054 21.1641C109.054 21.1643 109.055 21.1645 110 20C110.946 18.8355 110.946 18.8356 110.946 18.8357C110.946 18.8357 110.946 18.8358 110.946 18.8357C110.946 18.8357 110.946 18.8356 110.945 18.8353C110.945 18.8347 110.943 18.8337 110.941 18.8321C110.938 18.8291 110.932 18.8241 110.923 18.8172C110.906 18.8034 110.881 18.7821 110.846 18.7536C110.778 18.6965 110.675 18.6106 110.543 18.4984C110.28 18.2739 109.901 17.9448 109.445 17.5317C108.53 16.7035 107.316 15.5465 106.107 14.2243C104.892 12.8963 103.714 11.435 102.847 9.99876C101.961 8.53207 101.5 7.25226 101.5 6.25H98.5ZM98.5079 5.8428C98.5026 5.97592 98.5 6.11165 98.5 6.25H101.5C101.5 6.14936 101.502 6.05343 101.506 5.96202L98.5079 5.8428Z" fill="#151515" mask="url(#path-5-inside-1_588_1799)"/>
<line x1="152" y1="18.9393" x2="158.439" y2="12.5" stroke="#151515" stroke-width="1.5" stroke-linecap="round"/>
<circle cx="163.25" cy="7.5" r="6.75" stroke="#151515" stroke-width="1.5"/>
<circle r="9.25" transform="matrix(-1 0 0 1 212.75 10)" stroke="#151515" stroke-width="1.5"/>
<path d="M212.835 19.176C215.752 19.1654 218.325 17.6867 219.85 15.437C219.594 14.8749 218.937 14.2658 217.81 13.7605C216.532 13.188 214.804 12.8242 212.877 12.8242C210.89 12.8242 209.116 13.2108 207.829 13.8131C206.674 14.3539 206.05 14.9957 205.849 15.5728C207.35 17.6963 209.797 19.1 212.574 19.1731C212.661 19.1748 212.747 19.1758 212.835 19.176Z" stroke="#151515" stroke-width="1.5"/>
<circle r="3.17593" transform="matrix(-1 0 0 1 212.75 7.59243)" stroke="#151515" stroke-width="1.5"/>
<line x1="255.5" y1="4.25" x2="274" y2="4.25" stroke="#151515" stroke-width="1.5" stroke-linecap="round"/>
<line x1="255.5" y1="10.25" x2="274" y2="10.25" stroke="#151515" stroke-width="1.5" stroke-linecap="round"/>
<line x1="255.5" y1="16.25" x2="274" y2="16.25" stroke="#151515" stroke-width="1.5" stroke-linecap="round"/>
<circle cx="269.75" cy="10" r="1.5" fill="white" stroke="#151515"/>
<circle cx="264.75" cy="16" r="1.5" fill="white" stroke="#151515"/>
<circle cx="260.75" cy="4" r="1.5" fill="white" stroke="#151515"/>
<circle cx="11" cy="63" r="11" fill="#151515"/>
<path d="M5 63H17" stroke="white" stroke-width="2" stroke-linecap="round"/>
<circle cx="65" cy="63" r="11" fill="#151515"/>
<path d="M59 63H71" stroke="white" stroke-width="2" stroke-linecap="round"/>
<path d="M65 69V57" stroke="white" stroke-width="2" stroke-linecap="round"/>
<rect x="110" y="54" width="8" height="16" rx="4" fill="#151515"/>
<circle cx="114" cy="68" r="6" fill="#151515"/>
<circle cx="114" cy="68" r="5" fill="white"/>
<rect x="111" y="55" width="6" height="15" rx="3" fill="white"/>
<rect width="1.5" height="11" rx="0.75" transform="matrix(-1 0 0 1 114.75 57)" fill="#151515"/>
<circle cx="114" cy="68" r="3" fill="#151515"/>
<path d="M160.146 72.5832C164.058 72.5832 167.229 69.4119 167.229 65.4998C167.229 61.5878 164.058 58.4165 160.146 58.4165C156.234 58.4165 153.062 61.5878 153.062 65.4998C153.062 69.4119 156.234 72.5832 160.146 72.5832Z" stroke="#151515" stroke-width="1.5" stroke-linecap="round" stroke-linejoin="round"/>
<path d="M160.5 61.25V65.5L163.333 66.9167" stroke="#151515" stroke-width="1.5" stroke-linecap="round" stroke-linejoin="round"/>
<g clip-path="url(#clip0_588_1799)">
<path d="M205 64.0002V59.3335H213V64.0002" stroke="black" stroke-linecap="round" stroke-linejoin="round"/>
<path d="M205 70H203.667C203.313 70 202.974 69.8595 202.724 69.6095C202.474 69.3594 202.333 69.0203 202.333 68.6667V65.3333C202.333 64.9797 202.474 64.6406 202.724 64.3905C202.974 64.1405 203.313 64 203.667 64H214.333C214.687 64 215.026 64.1405 215.276 64.3905C215.526 64.6406 215.667 64.9797 215.667 65.3333V68.6667C215.667 69.0203 215.526 69.3594 215.276 69.6095C215.026 69.8595 214.687 70 214.333 70H213" stroke="black" stroke-linecap="round" stroke-linejoin="round"/>
<path d="M213 67.3335H205V72.6668H213V67.3335Z" stroke="black" stroke-linecap="round" stroke-linejoin="round"/>
</g>
<path d="M255.724 63.5442L257 59.618L258.276 63.5442C258.369 63.8326 258.638 64.0279 258.941 64.0279H263.07L259.73 66.4544C259.484 66.6326 259.382 66.9486 259.476 67.237L260.751 71.1631L257.411 68.7366C257.166 68.5584 256.834 68.5584 256.589 68.7366L253.249 71.1631L254.524 67.237C254.618 66.9486 254.516 66.6326 254.27 66.4544L250.93 64.0279H255.059C255.362 64.0279 255.631 63.8326 255.724 63.5442Z" stroke="black"/>
<path d="M299.667 66V71.3333C299.667 71.687 299.807 72.0261 300.057 72.2761C300.307 72.5262 300.646 72.6667 301 72.6667H309C309.354 72.6667 309.693 72.5262 309.943 72.2761C310.193 72.0261 310.333 71.687 310.333 71.3333V66" stroke="black" stroke-linecap="round" stroke-linejoin="round"/>
<path d="M307.667 62.0002L305 59.3335L302.333 62.0002" stroke="black" stroke-linecap="round" stroke-linejoin="round"/>
<path d="M305 59.3335V68.0002" stroke="black" stroke-linecap="round" stroke-linejoin="round"/>
<defs>
<clipPath id="clip0_588_1799">
<rect width="16" height="16" fill="white" transform="translate(201 58)"/>
</clipPath>
</defs>
</svg>
