<svg width="346" height="138" viewBox="0 0 346 138" fill="none" xmlns="http://www.w3.org/2000/svg">
<path d="M51.8882 32.2109V22.3229H47.8882V20.9309H57.5362V22.3229H53.5362V32.2109H51.8882ZM58.7415 32.2109V20.9309H60.3575V25.6189C60.6241 25.1709 60.9815 24.8349 61.4295 24.6109C61.8881 24.3763 62.4001 24.2589 62.9655 24.2589C64.8108 24.2589 65.7335 25.3043 65.7335 27.3949V32.2109H64.1175V27.4909C64.1175 26.8189 63.9841 26.3283 63.7175 26.0189C63.4615 25.7096 63.0561 25.5549 62.5015 25.5549C61.8508 25.5549 61.3281 25.7629 60.9335 26.1789C60.5495 26.5843 60.3575 27.1229 60.3575 27.7949V32.2109H58.7415ZM71.6242 32.3549C70.3442 32.3549 69.3362 31.9976 68.6002 31.2829C67.8642 30.5576 67.4962 29.5709 67.4962 28.3229C67.4962 27.5229 67.6562 26.8189 67.9762 26.2109C68.3069 25.5923 68.7602 25.1123 69.3362 24.7709C69.9122 24.4296 70.5736 24.2589 71.3202 24.2589C72.3976 24.2589 73.2456 24.6056 73.8642 25.2989C74.4829 25.9816 74.7922 26.9256 74.7922 28.1309V28.6749H69.0642C69.1816 30.2963 70.0402 31.1069 71.6402 31.1069C72.0882 31.1069 72.5256 31.0376 72.9522 30.8989C73.3896 30.7603 73.8002 30.5309 74.1842 30.2109L74.6642 31.3309C74.3122 31.6509 73.8589 31.9016 73.3042 32.0829C72.7496 32.2643 72.1896 32.3549 71.6242 32.3549ZM71.3842 25.3949C70.7122 25.3949 70.1789 25.6029 69.7842 26.0189C69.3896 26.4349 69.1496 26.9896 69.0642 27.6829H73.4322C73.4002 26.9576 73.2082 26.3976 72.8562 26.0029C72.5042 25.5976 72.0136 25.3949 71.3842 25.3949ZM84.1491 32.3549C83.3598 32.3549 82.6771 32.1896 82.1011 31.8589C81.5251 31.5283 81.0771 31.0643 80.7571 30.4669C80.4478 29.8589 80.2931 29.1389 80.2931 28.3069C80.2931 27.4749 80.4478 26.7603 80.7571 26.1629C81.0771 25.5549 81.5251 25.0856 82.1011 24.7549C82.6771 24.4243 83.3598 24.2589 84.1491 24.2589C84.9171 24.2589 85.5891 24.4243 86.1651 24.7549C86.7411 25.0856 87.1891 25.5549 87.5091 26.1629C87.8291 26.7603 87.9891 27.4749 87.9891 28.3069C87.9891 29.1389 87.8291 29.8589 87.5091 30.4669C87.1891 31.0643 86.7411 31.5283 86.1651 31.8589C85.5891 32.1896 84.9171 32.3549 84.1491 32.3549ZM84.1491 31.1069C84.8104 31.1069 85.3438 30.8669 85.7491 30.3869C86.1544 29.9069 86.3571 29.2136 86.3571 28.3069C86.3571 27.4003 86.1544 26.7123 85.7491 26.2429C85.3438 25.7629 84.8104 25.5229 84.1491 25.5229C83.4771 25.5229 82.9384 25.7629 82.5331 26.2429C82.1278 26.7123 81.9251 27.4003 81.9251 28.3069C81.9251 29.2136 82.1278 29.9069 82.5331 30.3869C82.9384 30.8669 83.4771 31.1069 84.1491 31.1069ZM93.0538 32.3549C92.0725 32.3549 91.3418 32.1043 90.8618 31.6029C90.3818 31.1016 90.1418 30.3763 90.1418 29.4269V25.6509H88.6218V24.4029H90.1418V22.0509H91.7578V24.4029H94.1738V25.6509H91.7578V29.2989C91.7578 29.8643 91.8752 30.2909 92.1098 30.5789C92.3552 30.8669 92.7498 31.0109 93.2938 31.0109C93.4645 31.0109 93.6298 30.9949 93.7898 30.9629C93.9498 30.9203 94.1098 30.8723 94.2698 30.8189L94.5258 32.0349C94.3658 32.1309 94.1418 32.2056 93.8538 32.2589C93.5765 32.3229 93.3098 32.3549 93.0538 32.3549ZM95.5696 32.2109V20.9309H97.1856V25.6189C97.4523 25.1709 97.8096 24.8349 98.2576 24.6109C98.7163 24.3763 99.2283 24.2589 99.7936 24.2589C101.639 24.2589 102.562 25.3043 102.562 27.3949V32.2109H100.946V27.4909C100.946 26.8189 100.812 26.3283 100.546 26.0189C100.29 25.7096 99.8843 25.5549 99.3296 25.5549C98.6789 25.5549 98.1563 25.7629 97.7616 26.1789C97.3776 26.5843 97.1856 27.1229 97.1856 27.7949V32.2109H95.5696ZM108.452 32.3549C107.172 32.3549 106.164 31.9976 105.428 31.2829C104.692 30.5576 104.324 29.5709 104.324 28.3229C104.324 27.5229 104.484 26.8189 104.804 26.2109C105.135 25.5923 105.588 25.1123 106.164 24.7709C106.74 24.4296 107.402 24.2589 108.148 24.2589C109.226 24.2589 110.074 24.6056 110.692 25.2989C111.311 25.9816 111.62 26.9256 111.62 28.1309V28.6749H105.892C106.01 30.2963 106.868 31.1069 108.468 31.1069C108.916 31.1069 109.354 31.0376 109.78 30.8989C110.218 30.7603 110.628 30.5309 111.012 30.2109L111.492 31.3309C111.14 31.6509 110.687 31.9016 110.132 32.0829C109.578 32.2643 109.018 32.3549 108.452 32.3549ZM108.212 25.3949C107.54 25.3949 107.007 25.6029 106.612 26.0189C106.218 26.4349 105.978 26.9896 105.892 27.6829H110.26C110.228 26.9576 110.036 26.3976 109.684 26.0029C109.332 25.5976 108.842 25.3949 108.212 25.3949ZM113.382 32.2109V24.4029H114.95V25.7949C115.355 24.8669 116.198 24.3496 117.478 24.2429L118.006 24.2109L118.118 25.5869L117.142 25.6829C115.723 25.8216 115.014 26.5523 115.014 27.8749V32.2109H113.382ZM124.146 35.0909V20.9309H127.586V22.1789H125.762V33.8429H127.586V35.0909H124.146ZM131.702 32.3549C131.019 32.3549 130.417 32.1949 129.894 31.8749C129.382 31.5443 128.982 31.0749 128.694 30.4669C128.406 29.8589 128.262 29.1389 128.262 28.3069C128.262 27.4749 128.406 26.7603 128.694 26.1629C128.982 25.5549 129.382 25.0856 129.894 24.7549C130.406 24.4243 131.009 24.2589 131.702 24.2589C132.289 24.2589 132.811 24.3869 133.27 24.6429C133.729 24.8989 134.07 25.2456 134.294 25.6829V20.9309H135.91V32.2109H134.326V30.8509C134.102 31.3203 133.755 31.6883 133.286 31.9549C132.827 32.2216 132.299 32.3549 131.702 32.3549ZM132.118 31.1069C132.779 31.1069 133.313 30.8669 133.718 30.3869C134.123 29.9069 134.326 29.2136 134.326 28.3069C134.326 27.4003 134.123 26.7123 133.718 26.2429C133.313 25.7629 132.779 25.5229 132.118 25.5229C131.446 25.5229 130.907 25.7629 130.502 26.2429C130.097 26.7123 129.894 27.4003 129.894 28.3069C129.894 29.2136 130.097 29.9069 130.502 30.3869C130.907 30.8669 131.446 31.1069 132.118 31.1069ZM138.035 22.5949V20.9149H139.923V22.5949H138.035ZM138.179 32.2109V24.4029H139.795V32.2109H138.179ZM144.806 32.3549C144.166 32.3549 143.568 32.2749 143.014 32.1149C142.459 31.9443 141.995 31.7096 141.622 31.4109L142.086 30.3229C142.48 30.6003 142.912 30.8136 143.382 30.9629C143.862 31.1123 144.342 31.1869 144.822 31.1869C145.387 31.1869 145.814 31.0856 146.102 30.8829C146.39 30.6803 146.534 30.4083 146.534 30.0669C146.534 29.7896 146.438 29.5763 146.246 29.4269C146.054 29.2669 145.766 29.1443 145.382 29.0589L143.862 28.7549C142.518 28.4776 141.846 27.7843 141.846 26.6749C141.846 25.9389 142.139 25.3523 142.726 24.9149C143.312 24.4776 144.08 24.2589 145.03 24.2589C145.574 24.2589 146.091 24.3389 146.582 24.4989C147.083 24.6589 147.499 24.8989 147.83 25.2189L147.366 26.3069C147.046 26.0296 146.678 25.8163 146.262 25.6669C145.846 25.5176 145.435 25.4429 145.03 25.4429C144.475 25.4429 144.054 25.5496 143.766 25.7629C143.478 25.9656 143.334 26.2429 143.334 26.5949C143.334 27.1283 143.686 27.4696 144.39 27.6189L145.91 27.9229C146.603 28.0616 147.126 28.2963 147.478 28.6269C147.84 28.9576 148.022 29.4056 148.022 29.9709C148.022 30.7176 147.728 31.3043 147.142 31.7309C146.555 32.1469 145.776 32.3549 144.806 32.3549ZM152.364 32.3549C151.51 32.3549 150.87 32.1149 150.444 31.6349C150.028 31.1549 149.82 30.4509 149.82 29.5229V20.9309H151.436V29.4269C151.436 30.4829 151.868 31.0109 152.732 31.0109C152.86 31.0109 152.977 31.0056 153.084 30.9949C153.201 30.9843 153.318 30.9629 153.436 30.9309L153.404 32.2269C153.041 32.3123 152.694 32.3549 152.364 32.3549ZM154.566 22.5949V20.9149H156.454V22.5949H154.566ZM154.71 32.2109V24.4029H156.326V32.2109H154.71ZM158.601 32.2109V20.9309H160.217V27.8109H160.249L163.641 24.4029H165.641L161.897 28.1629L165.929 32.2109H163.913L160.249 28.6429H160.217V32.2109H158.601ZM170.343 32.3549C169.063 32.3549 168.055 31.9976 167.319 31.2829C166.583 30.5576 166.215 29.5709 166.215 28.3229C166.215 27.5229 166.375 26.8189 166.695 26.2109C167.026 25.5923 167.479 25.1123 168.055 24.7709C168.631 24.4296 169.292 24.2589 170.039 24.2589C171.116 24.2589 171.964 24.6056 172.583 25.2989C173.202 25.9816 173.511 26.9256 173.511 28.1309V28.6749H167.783C167.9 30.2963 168.759 31.1069 170.359 31.1069C170.807 31.1069 171.244 31.0376 171.671 30.8989C172.108 30.7603 172.519 30.5309 172.903 30.2109L173.383 31.3309C173.031 31.6509 172.578 31.9016 172.023 32.0829C171.468 32.2643 170.908 32.3549 170.343 32.3549ZM170.103 25.3949C169.431 25.3949 168.898 25.6029 168.503 26.0189C168.108 26.4349 167.868 26.9896 167.783 27.6829H172.151C172.119 26.9576 171.927 26.3976 171.575 26.0029C171.223 25.5976 170.732 25.3949 170.103 25.3949ZM174.14 35.0909V33.8429H175.964V22.1789H174.14V20.9309H177.58V35.0909H174.14ZM184.504 22.5949V20.9149H186.392V22.5949H184.504ZM184.648 32.2109V24.4029H186.264V32.2109H184.648ZM191.274 32.3549C190.634 32.3549 190.037 32.2749 189.482 32.1149C188.928 31.9443 188.464 31.7096 188.09 31.4109L188.554 30.3229C188.949 30.6003 189.381 30.8136 189.85 30.9629C190.33 31.1123 190.81 31.1869 191.29 31.1869C191.856 31.1869 192.282 31.0856 192.57 30.8829C192.858 30.6803 193.002 30.4083 193.002 30.0669C193.002 29.7896 192.906 29.5763 192.714 29.4269C192.522 29.2669 192.234 29.1443 191.85 29.0589L190.33 28.7549C188.986 28.4776 188.314 27.7843 188.314 26.6749C188.314 25.9389 188.608 25.3523 189.194 24.9149C189.781 24.4776 190.549 24.2589 191.498 24.2589C192.042 24.2589 192.56 24.3389 193.05 24.4989C193.552 24.6589 193.968 24.8989 194.298 25.2189L193.834 26.3069C193.514 26.0296 193.146 25.8163 192.73 25.6669C192.314 25.5176 191.904 25.4429 191.498 25.4429C190.944 25.4429 190.522 25.5496 190.234 25.7629C189.946 25.9656 189.802 26.2429 189.802 26.5949C189.802 27.1283 190.154 27.4696 190.858 27.6189L192.378 27.9229C193.072 28.0616 193.594 28.2963 193.946 28.6269C194.309 28.9576 194.49 29.4056 194.49 29.9709C194.49 30.7176 194.197 31.3043 193.61 31.7309C193.024 32.1469 192.245 32.3549 191.274 32.3549ZM203.819 32.3549C202.838 32.3549 202.107 32.1043 201.627 31.6029C201.147 31.1016 200.907 30.3763 200.907 29.4269V25.6509H199.387V24.4029H200.907V22.0509H202.523V24.4029H204.939V25.6509H202.523V29.2989C202.523 29.8643 202.641 30.2909 202.875 30.5789C203.121 30.8669 203.515 31.0109 204.059 31.0109C204.23 31.0109 204.395 30.9949 204.555 30.9629C204.715 30.9203 204.875 30.8723 205.035 30.8189L205.291 32.0349C205.131 32.1309 204.907 32.2056 204.619 32.2589C204.342 32.3229 204.075 32.3549 203.819 32.3549ZM206.335 32.2109V20.9309H207.951V25.6189C208.218 25.1709 208.575 24.8349 209.023 24.6109C209.482 24.3763 209.994 24.2589 210.559 24.2589C212.405 24.2589 213.327 25.3043 213.327 27.3949V32.2109H211.711V27.4909C211.711 26.8189 211.578 26.3283 211.311 26.0189C211.055 25.7096 210.65 25.5549 210.095 25.5549C209.445 25.5549 208.922 25.7629 208.527 26.1789C208.143 26.5843 207.951 27.1229 207.951 27.7949V32.2109H206.335ZM218.05 32.3549C217.506 32.3549 217.021 32.2483 216.594 32.0349C216.167 31.8216 215.826 31.5336 215.57 31.1709C215.325 30.8083 215.202 30.3976 215.202 29.9389C215.202 29.3629 215.346 28.9096 215.634 28.5789C215.933 28.2483 216.418 28.0083 217.09 27.8589C217.773 27.7096 218.69 27.6349 219.842 27.6349H220.386V27.2189C220.386 26.6109 220.258 26.1736 220.002 25.9069C219.746 25.6403 219.325 25.5069 218.738 25.5069C218.29 25.5069 217.842 25.5763 217.394 25.7149C216.946 25.8429 216.487 26.0509 216.018 26.3389L215.522 25.2029C215.927 24.9149 216.434 24.6856 217.042 24.5149C217.65 24.3443 218.231 24.2589 218.786 24.2589C219.853 24.2589 220.642 24.5149 221.154 25.0269C221.666 25.5283 221.922 26.3176 221.922 27.3949V32.2109H220.402V30.9149C220.21 31.3629 219.911 31.7149 219.506 31.9709C219.101 32.2269 218.615 32.3549 218.05 32.3549ZM218.37 31.2029C218.946 31.2029 219.426 31.0003 219.81 30.5949C220.194 30.1896 220.386 29.6776 220.386 29.0589V28.6269H219.858C219.079 28.6269 218.466 28.6643 218.018 28.7389C217.581 28.8136 217.266 28.9416 217.074 29.1229C216.893 29.2936 216.802 29.5336 216.802 29.8429C216.802 30.2483 216.941 30.5789 217.218 30.8349C217.495 31.0803 217.879 31.2029 218.37 31.2029ZM227.476 32.3549C226.494 32.3549 225.764 32.1043 225.284 31.6029C224.804 31.1016 224.564 30.3763 224.564 29.4269V25.6509H223.044V24.4029H224.564V22.0509H226.18V24.4029H228.596V25.6509H226.18V29.2989C226.18 29.8643 226.297 30.2909 226.532 30.5789C226.777 30.8669 227.172 31.0109 227.716 31.0109C227.886 31.0109 228.052 30.9949 228.212 30.9629C228.372 30.9203 228.532 30.8723 228.692 30.8189L228.948 32.0349C228.788 32.1309 228.564 32.2056 228.276 32.2589C227.998 32.3229 227.732 32.3549 227.476 32.3549ZM234.195 32.2109V24.4029H235.763V25.7949C236.168 24.8669 237.011 24.3496 238.291 24.2429L238.819 24.2109L238.931 25.5869L237.955 25.6829C236.536 25.8216 235.827 26.5523 235.827 27.8749V32.2109H234.195ZM243.718 32.3549C242.438 32.3549 241.43 31.9976 240.694 31.2829C239.958 30.5576 239.59 29.5709 239.59 28.3229C239.59 27.5229 239.75 26.8189 240.07 26.2109C240.401 25.5923 240.854 25.1123 241.43 24.7709C242.006 24.4296 242.667 24.2589 243.414 24.2589C244.491 24.2589 245.339 24.6056 245.958 25.2989C246.577 25.9816 246.886 26.9256 246.886 28.1309V28.6749H241.158C241.275 30.2963 242.134 31.1069 243.734 31.1069C244.182 31.1069 244.619 31.0376 245.046 30.8989C245.483 30.7603 245.894 30.5309 246.278 30.2109L246.758 31.3309C246.406 31.6509 245.953 31.9016 245.398 32.0829C244.843 32.2643 244.283 32.3549 243.718 32.3549ZM243.478 25.3949C242.806 25.3949 242.273 25.6029 241.878 26.0189C241.483 26.4349 241.243 26.9896 241.158 27.6829H245.526C245.494 26.9576 245.302 26.3976 244.95 26.0029C244.598 25.5976 244.107 25.3949 243.478 25.3949ZM252.088 32.3549C251.288 32.3549 250.594 32.1896 250.008 31.8589C249.432 31.5176 248.984 31.0429 248.664 30.4349C248.344 29.8163 248.184 29.0909 248.184 28.2589C248.184 27.0216 248.536 26.0456 249.24 25.3309C249.944 24.6163 250.893 24.2589 252.088 24.2589C252.578 24.2589 253.064 24.3443 253.544 24.5149C254.024 24.6856 254.418 24.9203 254.728 25.2189L254.216 26.3549C253.917 26.0776 253.586 25.8749 253.224 25.7469C252.872 25.6083 252.536 25.5389 252.216 25.5389C251.458 25.5389 250.872 25.7789 250.456 26.2589C250.05 26.7283 249.848 27.4003 249.848 28.2749C249.848 29.1496 250.05 29.8376 250.456 30.3389C250.872 30.8296 251.458 31.0749 252.216 31.0749C252.536 31.0749 252.872 31.0109 253.224 30.8829C253.586 30.7443 253.917 30.5363 254.216 30.2589L254.728 31.4109C254.418 31.6989 254.018 31.9283 253.528 32.0989C253.048 32.2696 252.568 32.3549 252.088 32.3549ZM255.972 22.5949V20.9149H257.86V22.5949H255.972ZM256.116 32.2109V24.4029H257.732V32.2109H256.116ZM260.007 35.0909V24.4029H261.591V25.7309C261.815 25.2829 262.156 24.9256 262.615 24.6589C263.074 24.3923 263.602 24.2589 264.199 24.2589C264.892 24.2589 265.495 24.4243 266.007 24.7549C266.53 25.0856 266.93 25.5549 267.207 26.1629C267.495 26.7603 267.639 27.4749 267.639 28.3069C267.639 29.1389 267.495 29.8589 267.207 30.4669C266.93 31.0749 266.53 31.5443 266.007 31.8749C265.495 32.1949 264.892 32.3549 264.199 32.3549C263.623 32.3549 263.106 32.2323 262.647 31.9869C262.199 31.7309 261.858 31.3843 261.623 30.9469V35.0909H260.007ZM263.799 31.1069C264.471 31.1069 265.004 30.8669 265.399 30.3869C265.804 29.9069 266.007 29.2136 266.007 28.3069C266.007 27.4003 265.804 26.7123 265.399 26.2429C265.004 25.7629 264.471 25.5229 263.799 25.5229C263.127 25.5229 262.588 25.7629 262.183 26.2429C261.788 26.7123 261.591 27.4003 261.591 28.3069C261.591 29.2136 261.788 29.9069 262.183 30.3869C262.588 30.8669 263.127 31.1069 263.799 31.1069ZM273.124 32.3549C271.844 32.3549 270.836 31.9976 270.1 31.2829C269.364 30.5576 268.996 29.5709 268.996 28.3229C268.996 27.5229 269.156 26.8189 269.476 26.2109C269.807 25.5923 270.26 25.1123 270.836 24.7709C271.412 24.4296 272.074 24.2589 272.82 24.2589C273.898 24.2589 274.746 24.6056 275.364 25.2989C275.983 25.9816 276.292 26.9256 276.292 28.1309V28.6749H270.564C270.682 30.2963 271.54 31.1069 273.14 31.1069C273.588 31.1069 274.026 31.0376 274.452 30.8989C274.89 30.7603 275.3 30.5309 275.684 30.2109L276.164 31.3309C275.812 31.6509 275.359 31.9016 274.804 32.0829C274.25 32.2643 273.69 32.3549 273.124 32.3549ZM272.884 25.3949C272.212 25.3949 271.679 25.6029 271.284 26.0189C270.89 26.4349 270.65 26.9896 270.564 27.6829H274.932C274.9 26.9576 274.708 26.3976 274.356 26.0029C274.004 25.5976 273.514 25.3949 272.884 25.3949ZM280.79 32.3549C280.15 32.3549 279.553 32.2749 278.998 32.1149C278.443 31.9443 277.979 31.7096 277.606 31.4109L278.07 30.3229C278.465 30.6003 278.897 30.8136 279.366 30.9629C279.846 31.1123 280.326 31.1869 280.806 31.1869C281.371 31.1869 281.798 31.0856 282.086 30.8829C282.374 30.6803 282.518 30.4083 282.518 30.0669C282.518 29.7896 282.422 29.5763 282.23 29.4269C282.038 29.2669 281.75 29.1443 281.366 29.0589L279.846 28.7549C278.502 28.4776 277.83 27.7843 277.83 26.6749C277.83 25.9389 278.123 25.3523 278.71 24.9149C279.297 24.4776 280.065 24.2589 281.014 24.2589C281.558 24.2589 282.075 24.3389 282.566 24.4989C283.067 24.6589 283.483 24.8989 283.814 25.2189L283.35 26.3069C283.03 26.0296 282.662 25.8163 282.246 25.6669C281.83 25.5176 281.419 25.4429 281.014 25.4429C280.459 25.4429 280.038 25.5496 279.75 25.7629C279.462 25.9656 279.318 26.2429 279.318 26.5949C279.318 27.1283 279.67 27.4696 280.374 27.6189L281.894 27.9229C282.587 28.0616 283.11 28.2963 283.462 28.6269C283.825 28.9576 284.006 29.4056 284.006 29.9709C284.006 30.7176 283.713 31.3043 283.126 31.7309C282.539 32.1469 281.761 32.3549 280.79 32.3549ZM292.503 32.3549C291.959 32.3549 291.474 32.2483 291.047 32.0349C290.62 31.8216 290.279 31.5336 290.023 31.1709C289.778 30.8083 289.655 30.3976 289.655 29.9389C289.655 29.3629 289.799 28.9096 290.087 28.5789C290.386 28.2483 290.871 28.0083 291.543 27.8589C292.226 27.7096 293.143 27.6349 294.295 27.6349H294.839V27.2189C294.839 26.6109 294.711 26.1736 294.455 25.9069C294.199 25.6403 293.778 25.5069 293.191 25.5069C292.743 25.5069 292.295 25.5763 291.847 25.7149C291.399 25.8429 290.94 26.0509 290.471 26.3389L289.975 25.2029C290.38 24.9149 290.887 24.6856 291.495 24.5149C292.103 24.3443 292.684 24.2589 293.239 24.2589C294.306 24.2589 295.095 24.5149 295.607 25.0269C296.119 25.5283 296.375 26.3176 296.375 27.3949V32.2109H294.855V30.9149C294.663 31.3629 294.364 31.7149 293.959 31.9709C293.554 32.2269 293.068 32.3549 292.503 32.3549ZM292.823 31.2029C293.399 31.2029 293.879 31.0003 294.263 30.5949C294.647 30.1896 294.839 29.6776 294.839 29.0589V28.6269H294.311C293.532 28.6269 292.919 28.6643 292.471 28.7389C292.034 28.8136 291.719 28.9416 291.527 29.1229C291.346 29.2936 291.255 29.5336 291.255 29.8429C291.255 30.2483 291.394 30.5789 291.671 30.8349C291.948 31.0803 292.332 31.2029 292.823 31.2029ZM298.601 32.2109V24.4029H300.169V25.7949C300.574 24.8669 301.417 24.3496 302.697 24.2429L303.225 24.2109L303.337 25.5869L302.361 25.6829C300.942 25.8216 300.233 26.5523 300.233 27.8749V32.2109H298.601ZM308.124 32.3549C306.844 32.3549 305.836 31.9976 305.1 31.2829C304.364 30.5576 303.996 29.5709 303.996 28.3229C303.996 27.5229 304.156 26.8189 304.476 26.2109C304.807 25.5923 305.26 25.1123 305.836 24.7709C306.412 24.4296 307.074 24.2589 307.82 24.2589C308.898 24.2589 309.746 24.6056 310.364 25.2989C310.983 25.9816 311.292 26.9256 311.292 28.1309V28.6749H305.564C305.682 30.2963 306.54 31.1069 308.14 31.1069C308.588 31.1069 309.026 31.0376 309.452 30.8989C309.89 30.7603 310.3 30.5309 310.684 30.2109L311.164 31.3309C310.812 31.6509 310.359 31.9016 309.804 32.0829C309.25 32.2643 308.69 32.3549 308.124 32.3549ZM307.884 25.3949C307.212 25.3949 306.679 25.6029 306.284 26.0189C305.89 26.4349 305.65 26.9896 305.564 27.6829H309.932C309.9 26.9576 309.708 26.3976 309.356 26.0029C309.004 25.5976 308.514 25.3949 307.884 25.3949ZM55.838 54.3549C53.95 54.3549 53.006 53.3043 53.006 51.2029V46.4029H54.622V51.2189C54.622 51.8483 54.75 52.3123 55.006 52.6109C55.262 52.9096 55.6673 53.0589 56.222 53.0589C56.83 53.0589 57.3206 52.8563 57.694 52.4509C58.078 52.0456 58.27 51.5016 58.27 50.8189V46.4029H59.886V54.2109H58.318V52.9629C58.062 53.4216 57.7206 53.7683 57.294 54.0029C56.8673 54.2376 56.382 54.3549 55.838 54.3549ZM64.8993 54.3549C64.2593 54.3549 63.662 54.2749 63.1073 54.1149C62.5527 53.9443 62.0887 53.7096 61.7153 53.4109L62.1793 52.3229C62.574 52.6003 63.006 52.8136 63.4753 52.9629C63.9553 53.1123 64.4353 53.1869 64.9153 53.1869C65.4807 53.1869 65.9073 53.0856 66.1953 52.8829C66.4833 52.6803 66.6273 52.4083 66.6273 52.0669C66.6273 51.7896 66.5313 51.5763 66.3393 51.4269C66.1473 51.2669 65.8593 51.1443 65.4753 51.0589L63.9553 50.7549C62.6113 50.4776 61.9393 49.7843 61.9393 48.6749C61.9393 47.9389 62.2327 47.3523 62.8193 46.9149C63.406 46.4776 64.174 46.2589 65.1233 46.2589C65.6673 46.2589 66.1847 46.3389 66.6753 46.4989C67.1767 46.6589 67.5927 46.8989 67.9233 47.2189L67.4593 48.3069C67.1393 48.0296 66.7713 47.8163 66.3553 47.6669C65.9393 47.5176 65.5287 47.4429 65.1233 47.4429C64.5687 47.4429 64.1473 47.5496 63.8593 47.7629C63.5713 47.9656 63.4273 48.2429 63.4273 48.5949C63.4273 49.1283 63.7793 49.4696 64.4833 49.6189L66.0033 49.9229C66.6967 50.0616 67.2193 50.2963 67.5713 50.6269C67.934 50.9576 68.1153 51.4056 68.1153 51.9709C68.1153 52.7176 67.822 53.3043 67.2353 53.7309C66.6487 54.1469 65.87 54.3549 64.8993 54.3549ZM72.6973 54.3549C70.8093 54.3549 69.8653 53.3043 69.8653 51.2029V46.4029H71.4813V51.2189C71.4813 51.8483 71.6093 52.3123 71.8653 52.6109C72.1213 52.9096 72.5267 53.0589 73.0813 53.0589C73.6893 53.0589 74.18 52.8563 74.5533 52.4509C74.9373 52.0456 75.1293 51.5016 75.1293 50.8189V46.4029H76.7453V54.2109H75.1773V52.9629C74.9213 53.4216 74.58 53.7683 74.1533 54.0029C73.7267 54.2376 73.2413 54.3549 72.6973 54.3549ZM81.5187 54.3549C80.9747 54.3549 80.4894 54.2483 80.0627 54.0349C79.6361 53.8216 79.2947 53.5336 79.0387 53.1709C78.7934 52.8083 78.6707 52.3976 78.6707 51.9389C78.6707 51.3629 78.8147 50.9096 79.1027 50.5789C79.4014 50.2483 79.8867 50.0083 80.5587 49.8589C81.2414 49.7096 82.1587 49.6349 83.3107 49.6349H83.8547V49.2189C83.8547 48.6109 83.7267 48.1736 83.4707 47.9069C83.2147 47.6403 82.7934 47.5069 82.2067 47.5069C81.7587 47.5069 81.3107 47.5763 80.8627 47.7149C80.4147 47.8429 79.9561 48.0509 79.4867 48.3389L78.9907 47.2029C79.3961 46.9149 79.9027 46.6856 80.5107 46.5149C81.1187 46.3443 81.7001 46.2589 82.2547 46.2589C83.3214 46.2589 84.1107 46.5149 84.6227 47.0269C85.1347 47.5283 85.3907 48.3176 85.3907 49.3949V54.2109H83.8707V52.9149C83.6787 53.3629 83.3801 53.7149 82.9747 53.9709C82.5694 54.2269 82.0841 54.3549 81.5187 54.3549ZM81.8387 53.2029C82.4147 53.2029 82.8947 53.0003 83.2787 52.5949C83.6627 52.1896 83.8547 51.6776 83.8547 51.0589V50.6269H83.3267C82.5481 50.6269 81.9347 50.6643 81.4867 50.7389C81.0494 50.8136 80.7347 50.9416 80.5427 51.1229C80.3614 51.2936 80.2707 51.5336 80.2707 51.8429C80.2707 52.2483 80.4094 52.5789 80.6867 52.8349C80.9641 53.0803 81.3481 53.2029 81.8387 53.2029ZM90.1605 54.3549C89.3071 54.3549 88.6671 54.1149 88.2405 53.6349C87.8245 53.1549 87.6165 52.4509 87.6165 51.5229V42.9309H89.2325V51.4269C89.2325 52.4829 89.6645 53.0109 90.5285 53.0109C90.6565 53.0109 90.7738 53.0056 90.8805 52.9949C90.9978 52.9843 91.1151 52.9629 91.2325 52.9309L91.2005 54.2269C90.8378 54.3123 90.4911 54.3549 90.1605 54.3549ZM95.0511 54.3549C94.1978 54.3549 93.5578 54.1149 93.1311 53.6349C92.7151 53.1549 92.5071 52.4509 92.5071 51.5229V42.9309H94.1231V51.4269C94.1231 52.4829 94.5551 53.0109 95.4191 53.0109C95.5471 53.0109 95.6644 53.0056 95.7711 52.9949C95.8884 52.9843 96.0058 52.9629 96.1231 52.9309L96.0911 54.2269C95.7284 54.3123 95.3818 54.3549 95.0511 54.3549ZM98.0102 57.0909L99.4022 54.0029L96.1382 46.4029H97.8662L100.266 52.3389L102.698 46.4029H104.362L99.7062 57.0909H98.0102ZM109.582 44.5949V42.9149H111.47V44.5949H109.582ZM109.726 54.2109V46.4029H111.342V54.2109H109.726ZM113.616 54.2109V46.4029H115.184V47.6989C115.451 47.2296 115.814 46.8723 116.272 46.6269C116.742 46.3816 117.264 46.2589 117.84 46.2589C119.686 46.2589 120.608 47.3043 120.608 49.3949V54.2109H118.992V49.4909C118.992 48.8189 118.859 48.3283 118.592 48.0189C118.336 47.7096 117.931 47.5549 117.376 47.5549C116.726 47.5549 116.203 47.7629 115.808 48.1789C115.424 48.5843 115.232 49.1229 115.232 49.7949V54.2109H113.616ZM130.366 54.3549C129.385 54.3549 128.654 54.1043 128.174 53.6029C127.694 53.1016 127.454 52.3763 127.454 51.4269V47.6509H125.934V46.4029H127.454V44.0509H129.07V46.4029H131.486V47.6509H129.07V51.2989C129.07 51.8643 129.188 52.2909 129.422 52.5789C129.668 52.8669 130.062 53.0109 130.606 53.0109C130.777 53.0109 130.942 52.9949 131.102 52.9629C131.262 52.9203 131.422 52.8723 131.582 52.8189L131.838 54.0349C131.678 54.1309 131.454 54.2056 131.166 54.2589C130.889 54.3229 130.622 54.3549 130.366 54.3549ZM132.882 54.2109V42.9309H134.498V47.6189C134.765 47.1709 135.122 46.8349 135.57 46.6109C136.029 46.3763 136.541 46.2589 137.106 46.2589C138.951 46.2589 139.874 47.3043 139.874 49.3949V54.2109H138.258V49.4909C138.258 48.8189 138.125 48.3283 137.858 48.0189C137.602 47.7096 137.197 47.5549 136.642 47.5549C135.991 47.5549 135.469 47.7629 135.074 48.1789C134.69 48.5843 134.498 49.1229 134.498 49.7949V54.2109H132.882ZM145.765 54.3549C144.485 54.3549 143.477 53.9976 142.741 53.2829C142.005 52.5576 141.637 51.5709 141.637 50.3229C141.637 49.5229 141.797 48.8189 142.117 48.2109C142.448 47.5923 142.901 47.1123 143.477 46.7709C144.053 46.4296 144.714 46.2589 145.461 46.2589C146.538 46.2589 147.386 46.6056 148.005 47.2989C148.624 47.9816 148.933 48.9256 148.933 50.1309V50.6749H143.205C143.322 52.2963 144.181 53.1069 145.781 53.1069C146.229 53.1069 146.666 53.0376 147.093 52.8989C147.53 52.7603 147.941 52.5309 148.325 52.2109L148.805 53.3309C148.453 53.6509 148 53.9016 147.445 54.0829C146.89 54.2643 146.33 54.3549 145.765 54.3549ZM145.525 47.3949C144.853 47.3949 144.32 47.6029 143.925 48.0189C143.53 48.4349 143.29 48.9896 143.205 49.6829H147.573C147.541 48.9576 147.349 48.3976 146.997 48.0029C146.645 47.5976 146.154 47.3949 145.525 47.3949ZM155.362 54.2109V47.6509H153.842V46.4029H155.362V46.2589C155.362 45.1816 155.634 44.3709 156.178 43.8269C156.732 43.2829 157.58 42.9789 158.722 42.9149L159.426 42.8669L159.538 44.0829L158.802 44.1309C158.151 44.1736 157.682 44.3496 157.394 44.6589C157.116 44.9683 156.978 45.4269 156.978 46.0349V46.4029H159.17V47.6509H156.978V54.2109H155.362ZM163.618 54.3549C162.829 54.3549 162.146 54.1896 161.57 53.8589C160.994 53.5283 160.546 53.0643 160.226 52.4669C159.917 51.8589 159.762 51.1389 159.762 50.3069C159.762 49.4749 159.917 48.7603 160.226 48.1629C160.546 47.5549 160.994 47.0856 161.57 46.7549C162.146 46.4243 162.829 46.2589 163.618 46.2589C164.386 46.2589 165.058 46.4243 165.634 46.7549C166.21 47.0856 166.658 47.5549 166.978 48.1629C167.298 48.7603 167.458 49.4749 167.458 50.3069C167.458 51.1389 167.298 51.8589 166.978 52.4669C166.658 53.0643 166.21 53.5283 165.634 53.8589C165.058 54.1896 164.386 54.3549 163.618 54.3549ZM163.618 53.1069C164.279 53.1069 164.813 52.8669 165.218 52.3869C165.623 51.9069 165.826 51.2136 165.826 50.3069C165.826 49.4003 165.623 48.7123 165.218 48.2429C164.813 47.7629 164.279 47.5229 163.618 47.5229C162.946 47.5229 162.407 47.7629 162.002 48.2429C161.597 48.7123 161.394 49.4003 161.394 50.3069C161.394 51.2136 161.597 51.9069 162.002 52.3869C162.407 52.8669 162.946 53.1069 163.618 53.1069ZM169.273 54.2109V46.4029H170.841V47.7949C171.246 46.8669 172.089 46.3496 173.369 46.2429L173.897 46.2109L174.009 47.5869L173.033 47.6829C171.614 47.8216 170.905 48.5523 170.905 49.8749V54.2109H169.273ZM175.273 54.2109V46.4029H176.841V47.6669C177.076 47.2189 177.401 46.8723 177.817 46.6269C178.233 46.3816 178.719 46.2589 179.273 46.2589C180.468 46.2589 181.241 46.7816 181.593 47.8269C181.839 47.3363 182.191 46.9523 182.649 46.6749C183.108 46.3976 183.631 46.2589 184.217 46.2589C185.967 46.2589 186.841 47.3043 186.841 49.3949V54.2109H185.225V49.4749C185.225 48.8136 185.108 48.3283 184.873 48.0189C184.649 47.7096 184.276 47.5549 183.753 47.5549C183.167 47.5549 182.703 47.7629 182.361 48.1789C182.02 48.5843 181.849 49.1389 181.849 49.8429V54.2109H180.233V49.4749C180.233 48.8136 180.121 48.3283 179.897 48.0189C179.673 47.7096 179.3 47.5549 178.777 47.5549C178.191 47.5549 177.727 47.7629 177.385 48.1789C177.055 48.5843 176.889 49.1389 176.889 49.8429V54.2109H175.273ZM196.696 54.3549C195.907 54.3549 195.224 54.1896 194.648 53.8589C194.072 53.5283 193.624 53.0643 193.304 52.4669C192.995 51.8589 192.84 51.1389 192.84 50.3069C192.84 49.4749 192.995 48.7603 193.304 48.1629C193.624 47.5549 194.072 47.0856 194.648 46.7549C195.224 46.4243 195.907 46.2589 196.696 46.2589C197.464 46.2589 198.136 46.4243 198.712 46.7549C199.288 47.0856 199.736 47.5549 200.056 48.1629C200.376 48.7603 200.536 49.4749 200.536 50.3069C200.536 51.1389 200.376 51.8589 200.056 52.4669C199.736 53.0643 199.288 53.5283 198.712 53.8589C198.136 54.1896 197.464 54.3549 196.696 54.3549ZM196.696 53.1069C197.357 53.1069 197.891 52.8669 198.296 52.3869C198.701 51.9069 198.904 51.2136 198.904 50.3069C198.904 49.4003 198.701 48.7123 198.296 48.2429C197.891 47.7629 197.357 47.5229 196.696 47.5229C196.024 47.5229 195.485 47.7629 195.08 48.2429C194.675 48.7123 194.472 49.4003 194.472 50.3069C194.472 51.2136 194.675 51.9069 195.08 52.3869C195.485 52.8669 196.024 53.1069 196.696 53.1069ZM202.737 54.2109V47.6509H201.217V46.4029H202.737V46.2589C202.737 45.1816 203.009 44.3709 203.553 43.8269C204.107 43.2829 204.955 42.9789 206.097 42.9149L206.801 42.8669L206.913 44.0829L206.177 44.1309C205.526 44.1736 205.057 44.3496 204.769 44.6589C204.491 44.9683 204.353 45.4269 204.353 46.0349V46.4029H206.545V47.6509H204.353V54.2109H202.737ZM214.519 54.3549C213.975 54.3549 213.489 54.2483 213.063 54.0349C212.636 53.8216 212.295 53.5336 212.039 53.1709C211.793 52.8083 211.671 52.3976 211.671 51.9389C211.671 51.3629 211.815 50.9096 212.103 50.5789C212.401 50.2483 212.887 50.0083 213.559 49.8589C214.241 49.7096 215.159 49.6349 216.311 49.6349H216.855V49.2189C216.855 48.6109 216.727 48.1736 216.471 47.9069C216.215 47.6403 215.793 47.5069 215.207 47.5069C214.759 47.5069 214.311 47.5763 213.863 47.7149C213.415 47.8429 212.956 48.0509 212.487 48.3389L211.991 47.2029C212.396 46.9149 212.903 46.6856 213.511 46.5149C214.119 46.3443 214.7 46.2589 215.255 46.2589C216.321 46.2589 217.111 46.5149 217.623 47.0269C218.135 47.5283 218.391 48.3176 218.391 49.3949V54.2109H216.871V52.9149C216.679 53.3629 216.38 53.7149 215.975 53.9709C215.569 54.2269 215.084 54.3549 214.519 54.3549ZM214.839 53.2029C215.415 53.2029 215.895 53.0003 216.279 52.5949C216.663 52.1896 216.855 51.6776 216.855 51.0589V50.6269H216.327C215.548 50.6269 214.935 50.6643 214.487 50.7389C214.049 50.8136 213.735 50.9416 213.543 51.1229C213.361 51.2936 213.271 51.5336 213.271 51.8429C213.271 52.2483 213.409 52.5789 213.687 52.8349C213.964 53.0803 214.348 53.2029 214.839 53.2029ZM229.012 54.3549C228.414 54.3549 227.886 54.2216 227.428 53.9549C226.969 53.6883 226.628 53.3309 226.404 52.8829V54.2109H224.82V42.9309H226.436V47.6669C226.67 47.2403 227.012 46.8989 227.46 46.6429C227.918 46.3869 228.436 46.2589 229.012 46.2589C229.705 46.2589 230.308 46.4243 230.82 46.7549C231.342 47.0856 231.742 47.5549 232.02 48.1629C232.308 48.7603 232.452 49.4749 232.452 50.3069C232.452 51.1389 232.308 51.8589 232.02 52.4669C231.742 53.0749 231.342 53.5443 230.82 53.8749C230.308 54.1949 229.705 54.3549 229.012 54.3549ZM228.612 53.1069C229.284 53.1069 229.817 52.8669 230.212 52.3869C230.617 51.9069 230.82 51.2136 230.82 50.3069C230.82 49.4003 230.617 48.7123 230.212 48.2429C229.817 47.7629 229.284 47.5229 228.612 47.5229C227.94 47.5229 227.401 47.7629 226.996 48.2429C226.601 48.7123 226.404 49.4003 226.404 50.3069C226.404 51.2136 226.601 51.9069 226.996 52.3869C227.401 52.8669 227.94 53.1069 228.612 53.1069ZM236.817 54.3549C235.963 54.3549 235.323 54.1149 234.897 53.6349C234.481 53.1549 234.273 52.4509 234.273 51.5229V42.9309H235.889V51.4269C235.889 52.4829 236.321 53.0109 237.185 53.0109C237.313 53.0109 237.43 53.0056 237.537 52.9949C237.654 52.9843 237.771 52.9629 237.889 52.9309L237.857 54.2269C237.494 54.3123 237.147 54.3549 236.817 54.3549ZM242.477 54.3549C241.688 54.3549 241.005 54.1896 240.429 53.8589C239.853 53.5283 239.405 53.0643 239.085 52.4669C238.776 51.8589 238.621 51.1389 238.621 50.3069C238.621 49.4749 238.776 48.7603 239.085 48.1629C239.405 47.5549 239.853 47.0856 240.429 46.7549C241.005 46.4243 241.688 46.2589 242.477 46.2589C243.245 46.2589 243.917 46.4243 244.493 46.7549C245.069 47.0856 245.517 47.5549 245.837 48.1629C246.157 48.7603 246.317 49.4749 246.317 50.3069C246.317 51.1389 246.157 51.8589 245.837 52.4669C245.517 53.0643 245.069 53.5283 244.493 53.8589C243.917 54.1896 243.245 54.3549 242.477 54.3549ZM242.477 53.1069C243.139 53.1069 243.672 52.8669 244.077 52.3869C244.483 51.9069 244.685 51.2136 244.685 50.3069C244.685 49.4003 244.483 48.7123 244.077 48.2429C243.672 47.7629 243.139 47.5229 242.477 47.5229C241.805 47.5229 241.267 47.7629 240.861 48.2429C240.456 48.7123 240.253 49.4003 240.253 50.3069C240.253 51.2136 240.456 51.9069 240.861 52.3869C241.267 52.8669 241.805 53.1069 242.477 53.1069ZM251.668 57.2349C250.964 57.2349 250.308 57.1496 249.7 56.9789C249.092 56.8189 248.553 56.5629 248.084 56.2109L248.58 55.0589C249.049 55.3789 249.529 55.6136 250.02 55.7629C250.511 55.9123 251.023 55.9869 251.556 55.9869C253.049 55.9869 253.796 55.2403 253.796 53.7469V52.5149C253.572 52.9843 253.22 53.3523 252.74 53.6189C252.271 53.8856 251.743 54.0189 251.156 54.0189C250.452 54.0189 249.839 53.8589 249.316 53.5389C248.793 53.2083 248.388 52.7549 248.1 52.1789C247.812 51.5923 247.668 50.9096 247.668 50.1309C247.668 49.3629 247.812 48.6909 248.1 48.1149C248.388 47.5283 248.793 47.0749 249.316 46.7549C249.839 46.4243 250.452 46.2589 251.156 46.2589C251.753 46.2589 252.287 46.3923 252.756 46.6589C253.225 46.9256 253.572 47.2936 253.796 47.7629V46.4029H255.364V53.5549C255.364 54.7816 255.049 55.6989 254.42 56.3069C253.791 56.9256 252.873 57.2349 251.668 57.2349ZM251.54 52.7549C252.223 52.7549 252.767 52.5203 253.172 52.0509C253.577 51.5816 253.78 50.9416 253.78 50.1309C253.78 49.3203 253.577 48.6856 253.172 48.2269C252.767 47.7576 252.223 47.5229 251.54 47.5229C250.857 47.5229 250.313 47.7576 249.908 48.2269C249.503 48.6856 249.3 49.3203 249.3 50.1309C249.3 50.9416 249.503 51.5816 249.908 52.0509C250.313 52.5203 250.857 52.7549 251.54 52.7549ZM258.256 56.1789L257.552 55.6349C257.797 55.3683 257.979 55.1229 258.096 54.8989C258.213 54.6749 258.288 54.4456 258.32 54.2109H257.44V52.3069H259.344V53.6029C259.344 54.0936 259.264 54.5416 259.104 54.9469C258.944 55.3629 258.661 55.7736 258.256 56.1789ZM267.744 54.2109L264.768 46.4029H266.432L268.528 52.3229L270.688 46.4029H271.936L274.064 52.3549L276.192 46.4029H277.776L274.8 54.2109H273.328L271.264 48.6269L269.216 54.2109H267.744ZM279.163 54.2109V42.9309H280.779V47.6189C281.046 47.1709 281.403 46.8349 281.851 46.6109C282.31 46.3763 282.822 46.2589 283.387 46.2589C285.233 46.2589 286.155 47.3043 286.155 49.3949V54.2109H284.539V49.4909C284.539 48.8189 284.406 48.3283 284.139 48.0189C283.883 47.7096 283.478 47.5549 282.923 47.5549C282.273 47.5549 281.75 47.7629 281.355 48.1789C280.971 48.5843 280.779 49.1229 280.779 49.7949V54.2109H279.163ZM288.238 44.5949V42.9149H290.126V44.5949H288.238ZM288.382 54.2109V46.4029H289.998V54.2109H288.382ZM295.713 54.3549C294.913 54.3549 294.219 54.1896 293.633 53.8589C293.057 53.5176 292.609 53.0429 292.289 52.4349C291.969 51.8163 291.809 51.0909 291.809 50.2589C291.809 49.0216 292.161 48.0456 292.865 47.3309C293.569 46.6163 294.518 46.2589 295.713 46.2589C296.203 46.2589 296.689 46.3443 297.169 46.5149C297.649 46.6856 298.043 46.9203 298.353 47.2189L297.841 48.3549C297.542 48.0776 297.211 47.8749 296.849 47.7469C296.497 47.6083 296.161 47.5389 295.841 47.5389C295.083 47.5389 294.497 47.7789 294.081 48.2589C293.675 48.7283 293.473 49.4003 293.473 50.2749C293.473 51.1496 293.675 51.8376 294.081 52.3389C294.497 52.8296 295.083 53.0749 295.841 53.0749C296.161 53.0749 296.497 53.0109 296.849 52.8829C297.211 52.7443 297.542 52.5363 297.841 52.2589L298.353 53.4109C298.043 53.6989 297.643 53.9283 297.153 54.0989C296.673 54.2696 296.193 54.3549 295.713 54.3549ZM299.741 54.2109V42.9309H301.357V47.6189C301.624 47.1709 301.981 46.8349 302.429 46.6109C302.888 46.3763 303.4 46.2589 303.965 46.2589C305.811 46.2589 306.733 47.3043 306.733 49.3949V54.2109H305.117V49.4909C305.117 48.8189 304.984 48.3283 304.717 48.0189C304.461 47.7096 304.056 47.5549 303.501 47.5549C302.851 47.5549 302.328 47.7629 301.933 48.1789C301.549 48.5843 301.357 49.1229 301.357 49.7949V54.2109H299.741ZM49.119 76.3549C48.319 76.3549 47.6256 76.1896 47.039 75.8589C46.463 75.5176 46.015 75.0429 45.695 74.4349C45.375 73.8163 45.215 73.0909 45.215 72.2589C45.215 71.0216 45.567 70.0456 46.271 69.3309C46.975 68.6163 47.9243 68.2589 49.119 68.2589C49.6096 68.2589 50.095 68.3443 50.575 68.5149C51.055 68.6856 51.4496 68.9203 51.759 69.2189L51.247 70.3549C50.9483 70.0776 50.6176 69.8749 50.255 69.7469C49.903 69.6083 49.567 69.5389 49.247 69.5389C48.4896 69.5389 47.903 69.7789 47.487 70.2589C47.0816 70.7283 46.879 71.4003 46.879 72.2749C46.879 73.1496 47.0816 73.8376 47.487 74.3389C47.903 74.8296 48.4896 75.0749 49.247 75.0749C49.567 75.0749 49.903 75.0109 50.255 74.8829C50.6176 74.7443 50.9483 74.5363 51.247 74.2589L51.759 75.4109C51.4496 75.6989 51.0496 75.9283 50.559 76.0989C50.079 76.2696 49.599 76.3549 49.119 76.3549ZM56.3835 76.3549C55.5941 76.3549 54.9115 76.1896 54.3355 75.8589C53.7595 75.5283 53.3115 75.0643 52.9915 74.4669C52.6821 73.8589 52.5275 73.1389 52.5275 72.3069C52.5275 71.4749 52.6821 70.7603 52.9915 70.1629C53.3115 69.5549 53.7595 69.0856 54.3355 68.7549C54.9115 68.4243 55.5941 68.2589 56.3835 68.2589C57.1515 68.2589 57.8235 68.4243 58.3995 68.7549C58.9755 69.0856 59.4235 69.5549 59.7435 70.1629C60.0635 70.7603 60.2235 71.4749 60.2235 72.3069C60.2235 73.1389 60.0635 73.8589 59.7435 74.4669C59.4235 75.0643 58.9755 75.5283 58.3995 75.8589C57.8235 76.1896 57.1515 76.3549 56.3835 76.3549ZM56.3835 75.1069C57.0448 75.1069 57.5781 74.8669 57.9835 74.3869C58.3888 73.9069 58.5915 73.2136 58.5915 72.3069C58.5915 71.4003 58.3888 70.7123 57.9835 70.2429C57.5781 69.7629 57.0448 69.5229 56.3835 69.5229C55.7115 69.5229 55.1728 69.7629 54.7675 70.2429C54.3621 70.7123 54.1595 71.4003 54.1595 72.3069C54.1595 73.2136 54.3621 73.9069 54.7675 74.3869C55.1728 74.8669 55.7115 75.1069 56.3835 75.1069ZM62.0383 76.2109V68.4029H63.6063V69.6989C63.873 69.2296 64.2357 68.8723 64.6943 68.6269C65.1637 68.3816 65.6863 68.2589 66.2623 68.2589C68.1077 68.2589 69.0303 69.3043 69.0303 71.3949V76.2109H67.4143V71.4909C67.4143 70.8189 67.281 70.3283 67.0143 70.0189C66.7583 69.7096 66.353 69.5549 65.7983 69.5549C65.1477 69.5549 64.625 69.7629 64.2303 70.1789C63.8463 70.5843 63.6543 71.1229 63.6543 71.7949V76.2109H62.0383ZM74.5851 76.3549C73.6038 76.3549 72.8731 76.1043 72.3931 75.6029C71.9131 75.1016 71.6731 74.3763 71.6731 73.4269V69.6509H70.1531V68.4029H71.6731V66.0509H73.2891V68.4029H75.7051V69.6509H73.2891V73.2989C73.2891 73.8643 73.4064 74.2909 73.6411 74.5789C73.8864 74.8669 74.2811 75.0109 74.8251 75.0109C74.9958 75.0109 75.1611 74.9949 75.3211 74.9629C75.4811 74.9203 75.6411 74.8723 75.8011 74.8189L76.0571 76.0349C75.8971 76.1309 75.6731 76.2056 75.3851 76.2589C75.1078 76.3229 74.8411 76.3549 74.5851 76.3549ZM79.5968 76.3549C79.0528 76.3549 78.5675 76.2483 78.1408 76.0349C77.7142 75.8216 77.3728 75.5336 77.1168 75.1709C76.8715 74.8083 76.7488 74.3976 76.7488 73.9389C76.7488 73.3629 76.8928 72.9096 77.1808 72.5789C77.4795 72.2483 77.9648 72.0083 78.6368 71.8589C79.3195 71.7096 80.2368 71.6349 81.3888 71.6349H81.9328V71.2189C81.9328 70.6109 81.8048 70.1736 81.5488 69.9069C81.2928 69.6403 80.8715 69.5069 80.2848 69.5069C79.8368 69.5069 79.3888 69.5763 78.9408 69.7149C78.4928 69.8429 78.0342 70.0509 77.5648 70.3389L77.0688 69.2029C77.4742 68.9149 77.9808 68.6856 78.5888 68.5149C79.1968 68.3443 79.7782 68.2589 80.3328 68.2589C81.3995 68.2589 82.1888 68.5149 82.7008 69.0269C83.2128 69.5283 83.4688 70.3176 83.4688 71.3949V76.2109H81.9488V74.9149C81.7568 75.3629 81.4582 75.7149 81.0528 75.9709C80.6475 76.2269 80.1622 76.3549 79.5968 76.3549ZM79.9168 75.2029C80.4928 75.2029 80.9728 75.0003 81.3568 74.5949C81.7408 74.1896 81.9328 73.6776 81.9328 73.0589V72.6269H81.4048C80.6262 72.6269 80.0128 72.6643 79.5648 72.7389C79.1275 72.8136 78.8128 72.9416 78.6208 73.1229C78.4395 73.2936 78.3488 73.5336 78.3488 73.8429C78.3488 74.2483 78.4875 74.5789 78.7648 74.8349C79.0422 75.0803 79.4262 75.2029 79.9168 75.2029ZM85.5506 66.5949V64.9149H87.4386V66.5949H85.5506ZM85.6946 76.2109V68.4029H87.3106V76.2109H85.6946ZM89.5852 76.2109V68.4029H91.1532V69.6989C91.4199 69.2296 91.7826 68.8723 92.2412 68.6269C92.7106 68.3816 93.2332 68.2589 93.8092 68.2589C95.6546 68.2589 96.5772 69.3043 96.5772 71.3949V76.2109H94.9612V71.4909C94.9612 70.8189 94.8279 70.3283 94.5612 70.0189C94.3052 69.7096 93.8999 69.5549 93.3452 69.5549C92.6946 69.5549 92.1719 69.7629 91.7772 70.1789C91.3932 70.5843 91.2012 71.1229 91.2012 71.7949V76.2109H89.5852ZM101.54 76.3549C100.9 76.3549 100.303 76.2749 99.748 76.1149C99.1933 75.9443 98.7293 75.7096 98.356 75.4109L98.82 74.3229C99.2146 74.6003 99.6466 74.8136 100.116 74.9629C100.596 75.1123 101.076 75.1869 101.556 75.1869C102.121 75.1869 102.548 75.0856 102.836 74.8829C103.124 74.6803 103.268 74.4083 103.268 74.0669C103.268 73.7896 103.172 73.5763 102.98 73.4269C102.788 73.2669 102.5 73.1443 102.116 73.0589L100.596 72.7549C99.252 72.4776 98.58 71.7843 98.58 70.6749C98.58 69.9389 98.8733 69.3523 99.46 68.9149C100.047 68.4776 100.815 68.2589 101.764 68.2589C102.308 68.2589 102.825 68.3389 103.316 68.4989C103.817 68.6589 104.233 68.8989 104.564 69.2189L104.1 70.3069C103.78 70.0296 103.412 69.8163 102.996 69.6669C102.58 69.5176 102.169 69.4429 101.764 69.4429C101.209 69.4429 100.788 69.5496 100.5 69.7629C100.212 69.9656 100.068 70.2429 100.068 70.5949C100.068 71.1283 100.42 71.4696 101.124 71.6189L102.644 71.9229C103.337 72.0616 103.86 72.2963 104.212 72.6269C104.575 72.9576 104.756 73.4056 104.756 73.9709C104.756 74.7176 104.463 75.3043 103.876 75.7309C103.289 76.1469 102.511 76.3549 101.54 76.3549ZM112.869 76.2109L109.893 68.4029H111.557L113.653 74.3229L115.813 68.4029H117.061L119.189 74.3549L121.317 68.4029H122.901L119.925 76.2109H118.453L116.389 70.6269L114.341 76.2109H112.869ZM126.628 76.3549C126.084 76.3549 125.599 76.2483 125.172 76.0349C124.745 75.8216 124.404 75.5336 124.148 75.1709C123.903 74.8083 123.78 74.3976 123.78 73.9389C123.78 73.3629 123.924 72.9096 124.212 72.5789C124.511 72.2483 124.996 72.0083 125.668 71.8589C126.351 71.7096 127.268 71.6349 128.42 71.6349H128.964V71.2189C128.964 70.6109 128.836 70.1736 128.58 69.9069C128.324 69.6403 127.903 69.5069 127.316 69.5069C126.868 69.5069 126.42 69.5763 125.972 69.7149C125.524 69.8429 125.065 70.0509 124.596 70.3389L124.1 69.2029C124.505 68.9149 125.012 68.6856 125.62 68.5149C126.228 68.3443 126.809 68.2589 127.364 68.2589C128.431 68.2589 129.22 68.5149 129.732 69.0269C130.244 69.5283 130.5 70.3176 130.5 71.3949V76.2109H128.98V74.9149C128.788 75.3629 128.489 75.7149 128.084 75.9709C127.679 76.2269 127.193 76.3549 126.628 76.3549ZM126.948 75.2029C127.524 75.2029 128.004 75.0003 128.388 74.5949C128.772 74.1896 128.964 73.6776 128.964 73.0589V72.6269H128.436C127.657 72.6269 127.044 72.6643 126.596 72.7389C126.159 72.8136 125.844 72.9416 125.652 73.1229C125.471 73.2936 125.38 73.5336 125.38 73.8429C125.38 74.2483 125.519 74.5789 125.796 74.8349C126.073 75.0803 126.457 75.2029 126.948 75.2029ZM133.448 79.0909L134.84 76.0029L131.576 68.4029H133.304L135.704 74.3389L138.136 68.4029H139.8L135.144 79.0909H133.448ZM148.491 76.3549C147.51 76.3549 146.779 76.1043 146.299 75.6029C145.819 75.1016 145.579 74.3763 145.579 73.4269V69.6509H144.059V68.4029H145.579V66.0509H147.195V68.4029H149.611V69.6509H147.195V73.2989C147.195 73.8643 147.313 74.2909 147.547 74.5789C147.793 74.8669 148.187 75.0109 148.731 75.0109C148.902 75.0109 149.067 74.9949 149.227 74.9629C149.387 74.9203 149.547 74.8723 149.707 74.8189L149.963 76.0349C149.803 76.1309 149.579 76.2056 149.291 76.2589C149.014 76.3229 148.747 76.3549 148.491 76.3549ZM154.321 76.3549C153.532 76.3549 152.849 76.1896 152.273 75.8589C151.697 75.5283 151.249 75.0643 150.929 74.4669C150.62 73.8589 150.465 73.1389 150.465 72.3069C150.465 71.4749 150.62 70.7603 150.929 70.1629C151.249 69.5549 151.697 69.0856 152.273 68.7549C152.849 68.4243 153.532 68.2589 154.321 68.2589C155.089 68.2589 155.761 68.4243 156.337 68.7549C156.913 69.0856 157.361 69.5549 157.681 70.1629C158.001 70.7603 158.161 71.4749 158.161 72.3069C158.161 73.1389 158.001 73.8589 157.681 74.4669C157.361 75.0643 156.913 75.5283 156.337 75.8589C155.761 76.1896 155.089 76.3549 154.321 76.3549ZM154.321 75.1069C154.982 75.1069 155.516 74.8669 155.921 74.3869C156.326 73.9069 156.529 73.2136 156.529 72.3069C156.529 71.4003 156.326 70.7123 155.921 70.2429C155.516 69.7629 154.982 69.5229 154.321 69.5229C153.649 69.5229 153.11 69.7629 152.705 70.2429C152.3 70.7123 152.097 71.4003 152.097 72.3069C152.097 73.2136 152.3 73.9069 152.705 74.3869C153.11 74.8669 153.649 75.1069 154.321 75.1069ZM163.368 76.3549C162.579 76.3549 161.896 76.1896 161.32 75.8589C160.744 75.5283 160.296 75.0643 159.976 74.4669C159.667 73.8589 159.512 73.1389 159.512 72.3069C159.512 71.4749 159.667 70.7603 159.976 70.1629C160.296 69.5549 160.744 69.0856 161.32 68.7549C161.896 68.4243 162.579 68.2589 163.368 68.2589C164.136 68.2589 164.808 68.4243 165.384 68.7549C165.96 69.0856 166.408 69.5549 166.728 70.1629C167.048 70.7603 167.208 71.4749 167.208 72.3069C167.208 73.1389 167.048 73.8589 166.728 74.4669C166.408 75.0643 165.96 75.5283 165.384 75.8589C164.808 76.1896 164.136 76.3549 163.368 76.3549ZM163.368 75.1069C164.029 75.1069 164.563 74.8669 164.968 74.3869C165.373 73.9069 165.576 73.2136 165.576 72.3069C165.576 71.4003 165.373 70.7123 164.968 70.2429C164.563 69.7629 164.029 69.5229 163.368 69.5229C162.696 69.5229 162.157 69.7629 161.752 70.2429C161.347 70.7123 161.144 71.4003 161.144 72.3069C161.144 73.2136 161.347 73.9069 161.752 74.3869C162.157 74.8669 162.696 75.1069 163.368 75.1069ZM173.258 76.2109V68.4029H174.826V69.6669C175.061 69.2189 175.386 68.8723 175.802 68.6269C176.218 68.3816 176.703 68.2589 177.258 68.2589C178.453 68.2589 179.226 68.7816 179.578 69.8269C179.823 69.3363 180.175 68.9523 180.634 68.6749C181.093 68.3976 181.615 68.2589 182.202 68.2589C183.951 68.2589 184.826 69.3043 184.826 71.3949V76.2109H183.21V71.4749C183.21 70.8136 183.093 70.3283 182.858 70.0189C182.634 69.7096 182.261 69.5549 181.738 69.5549C181.151 69.5549 180.687 69.7629 180.346 70.1789C180.005 70.5843 179.834 71.1389 179.834 71.8429V76.2109H178.218V71.4749C178.218 70.8136 178.106 70.3283 177.882 70.0189C177.658 69.7096 177.285 69.5549 176.762 69.5549C176.175 69.5549 175.711 69.7629 175.37 70.1789C175.039 70.5843 174.874 71.1389 174.874 71.8429V76.2109H173.258ZM189.581 76.3549C189.037 76.3549 188.552 76.2483 188.125 76.0349C187.699 75.8216 187.357 75.5336 187.101 75.1709C186.856 74.8083 186.733 74.3976 186.733 73.9389C186.733 73.3629 186.877 72.9096 187.165 72.5789C187.464 72.2483 187.949 72.0083 188.621 71.8589C189.304 71.7096 190.221 71.6349 191.373 71.6349H191.917V71.2189C191.917 70.6109 191.789 70.1736 191.533 69.9069C191.277 69.6403 190.856 69.5069 190.269 69.5069C189.821 69.5069 189.373 69.5763 188.925 69.7149C188.477 69.8429 188.019 70.0509 187.549 70.3389L187.053 69.2029C187.459 68.9149 187.965 68.6856 188.573 68.5149C189.181 68.3443 189.763 68.2589 190.317 68.2589C191.384 68.2589 192.173 68.5149 192.685 69.0269C193.197 69.5283 193.453 70.3176 193.453 71.3949V76.2109H191.933V74.9149C191.741 75.3629 191.443 75.7149 191.037 75.9709C190.632 76.2269 190.147 76.3549 189.581 76.3549ZM189.901 75.2029C190.477 75.2029 190.957 75.0003 191.341 74.5949C191.725 74.1896 191.917 73.6776 191.917 73.0589V72.6269H191.389C190.611 72.6269 189.997 72.6643 189.549 72.7389C189.112 72.8136 188.797 72.9416 188.605 73.1229C188.424 73.2936 188.333 73.5336 188.333 73.8429C188.333 74.2483 188.472 74.5789 188.749 74.8349C189.027 75.0803 189.411 75.2029 189.901 75.2029ZM195.679 76.2109V68.4029H197.247V69.6989C197.514 69.2296 197.876 68.8723 198.335 68.6269C198.804 68.3816 199.327 68.2589 199.903 68.2589C201.748 68.2589 202.671 69.3043 202.671 71.3949V76.2109H201.055V71.4909C201.055 70.8189 200.922 70.3283 200.655 70.0189C200.399 69.7096 199.994 69.5549 199.439 69.5549C198.788 69.5549 198.266 69.7629 197.871 70.1789C197.487 70.5843 197.295 71.1229 197.295 71.7949V76.2109H195.679ZM205.62 79.0909L207.012 76.0029L203.748 68.4029H205.476L207.876 74.3389L210.308 68.4029H211.972L207.316 79.0909H205.62ZM219.447 76.2109L216.471 68.4029H218.135L220.231 74.3229L222.391 68.4029H223.639L225.767 74.3549L227.895 68.4029H229.479L226.503 76.2109H225.031L222.967 70.6269L220.919 76.2109H219.447ZM234.118 76.3549C233.329 76.3549 232.646 76.1896 232.07 75.8589C231.494 75.5283 231.046 75.0643 230.726 74.4669C230.417 73.8589 230.262 73.1389 230.262 72.3069C230.262 71.4749 230.417 70.7603 230.726 70.1629C231.046 69.5549 231.494 69.0856 232.07 68.7549C232.646 68.4243 233.329 68.2589 234.118 68.2589C234.886 68.2589 235.558 68.4243 236.134 68.7549C236.71 69.0856 237.158 69.5549 237.478 70.1629C237.798 70.7603 237.958 71.4749 237.958 72.3069C237.958 73.1389 237.798 73.8589 237.478 74.4669C237.158 75.0643 236.71 75.5283 236.134 75.8589C235.558 76.1896 234.886 76.3549 234.118 76.3549ZM234.118 75.1069C234.779 75.1069 235.313 74.8669 235.718 74.3869C236.123 73.9069 236.326 73.2136 236.326 72.3069C236.326 71.4003 236.123 70.7123 235.718 70.2429C235.313 69.7629 234.779 69.5229 234.118 69.5229C233.446 69.5229 232.907 69.7629 232.502 70.2429C232.097 70.7123 231.894 71.4003 231.894 72.3069C231.894 73.2136 232.097 73.9069 232.502 74.3869C232.907 74.8669 233.446 75.1069 234.118 75.1069ZM239.773 76.2109V68.4029H241.341V69.7949C241.746 68.8669 242.589 68.3496 243.869 68.2429L244.397 68.2109L244.509 69.5869L243.533 69.6829C242.114 69.8216 241.405 70.5523 241.405 71.8749V76.2109H239.773ZM248.608 76.3549C247.925 76.3549 247.323 76.1949 246.8 75.8749C246.288 75.5443 245.888 75.0749 245.6 74.4669C245.312 73.8589 245.168 73.1389 245.168 72.3069C245.168 71.4749 245.312 70.7603 245.6 70.1629C245.888 69.5549 246.288 69.0856 246.8 68.7549C247.312 68.4243 247.915 68.2589 248.608 68.2589C249.195 68.2589 249.717 68.3869 250.176 68.6429C250.635 68.8989 250.976 69.2456 251.2 69.6829V64.9309H252.816V76.2109H251.232V74.8509C251.008 75.3203 250.661 75.6883 250.192 75.9549C249.733 76.2216 249.205 76.3549 248.608 76.3549ZM249.024 75.1069C249.685 75.1069 250.219 74.8669 250.624 74.3869C251.029 73.9069 251.232 73.2136 251.232 72.3069C251.232 71.4003 251.029 70.7123 250.624 70.2429C250.219 69.7629 249.685 69.5229 249.024 69.5229C248.352 69.5229 247.813 69.7629 247.408 70.2429C247.003 70.7123 246.8 71.4003 246.8 72.3069C246.8 73.2136 247.003 73.9069 247.408 74.3869C247.813 74.8669 248.352 75.1069 249.024 75.1069ZM257.821 76.3549C257.181 76.3549 256.584 76.2749 256.029 76.1149C255.475 75.9443 255.011 75.7096 254.637 75.4109L255.101 74.3229C255.496 74.6003 255.928 74.8136 256.397 74.9629C256.877 75.1123 257.357 75.1869 257.837 75.1869C258.403 75.1869 258.829 75.0856 259.117 74.8829C259.405 74.6803 259.549 74.4083 259.549 74.0669C259.549 73.7896 259.453 73.5763 259.261 73.4269C259.069 73.2669 258.781 73.1443 258.397 73.0589L256.877 72.7549C255.533 72.4776 254.861 71.7843 254.861 70.6749C254.861 69.9389 255.155 69.3523 255.741 68.9149C256.328 68.4776 257.096 68.2589 258.045 68.2589C258.589 68.2589 259.107 68.3389 259.597 68.4989C260.099 68.6589 260.515 68.8989 260.845 69.2189L260.381 70.3069C260.061 70.0296 259.693 69.8163 259.277 69.6669C258.861 69.5176 258.451 69.4429 258.045 69.4429C257.491 69.4429 257.069 69.5496 256.781 69.7629C256.493 69.9656 256.349 70.2429 256.349 70.5949C256.349 71.1283 256.701 71.4696 257.405 71.6189L258.925 71.9229C259.619 72.0616 260.141 72.2963 260.493 72.6269C260.856 72.9576 261.037 73.4056 261.037 73.9709C261.037 74.7176 260.744 75.3043 260.157 75.7309C259.571 76.1469 258.792 76.3549 257.821 76.3549ZM262.565 76.2109V74.3069H264.469V76.2109H262.565ZM270.933 76.2109V64.9309H272.597V76.2109H270.933ZM282.202 76.3549C281.519 76.3549 280.917 76.1949 280.394 75.8749C279.882 75.5443 279.482 75.0749 279.194 74.4669C278.906 73.8589 278.762 73.1389 278.762 72.3069C278.762 71.4749 278.906 70.7603 279.194 70.1629C279.482 69.5549 279.882 69.0856 280.394 68.7549C280.906 68.4243 281.509 68.2589 282.202 68.2589C282.789 68.2589 283.311 68.3869 283.77 68.6429C284.229 68.8989 284.57 69.2456 284.794 69.6829V64.9309H286.41V76.2109H284.826V74.8509C284.602 75.3203 284.255 75.6883 283.786 75.9549C283.327 76.2216 282.799 76.3549 282.202 76.3549ZM282.618 75.1069C283.279 75.1069 283.813 74.8669 284.218 74.3869C284.623 73.9069 284.826 73.2136 284.826 72.3069C284.826 71.4003 284.623 70.7123 284.218 70.2429C283.813 69.7629 283.279 69.5229 282.618 69.5229C281.946 69.5229 281.407 69.7629 281.002 70.2429C280.597 70.7123 280.394 71.4003 280.394 72.3069C280.394 73.2136 280.597 73.9069 281.002 74.3869C281.407 74.8669 281.946 75.1069 282.618 75.1069ZM292.071 76.3549C291.282 76.3549 290.599 76.1896 290.023 75.8589C289.447 75.5283 288.999 75.0643 288.679 74.4669C288.37 73.8589 288.215 73.1389 288.215 72.3069C288.215 71.4749 288.37 70.7603 288.679 70.1629C288.999 69.5549 289.447 69.0856 290.023 68.7549C290.599 68.4243 291.282 68.2589 292.071 68.2589C292.839 68.2589 293.511 68.4243 294.087 68.7549C294.663 69.0856 295.111 69.5549 295.431 70.1629C295.751 70.7603 295.911 71.4749 295.911 72.3069C295.911 73.1389 295.751 73.8589 295.431 74.4669C295.111 75.0643 294.663 75.5283 294.087 75.8589C293.511 76.1896 292.839 76.3549 292.071 76.3549ZM292.071 75.1069C292.732 75.1069 293.266 74.8669 293.671 74.3869C294.076 73.9069 294.279 73.2136 294.279 72.3069C294.279 71.4003 294.076 70.7123 293.671 70.2429C293.266 69.7629 292.732 69.5229 292.071 69.5229C291.399 69.5229 290.86 69.7629 290.455 70.2429C290.05 70.7123 289.847 71.4003 289.847 72.3069C289.847 73.2136 290.05 73.9069 290.455 74.3869C290.86 74.8669 291.399 75.1069 292.071 75.1069ZM297.726 76.2109V68.4029H299.294V69.6989C299.561 69.2296 299.923 68.8723 300.382 68.6269C300.851 68.3816 301.374 68.2589 301.95 68.2589C303.795 68.2589 304.718 69.3043 304.718 71.3949V76.2109H303.102V71.4909C303.102 70.8189 302.969 70.3283 302.702 70.0189C302.446 69.7096 302.041 69.5549 301.486 69.5549C300.835 69.5549 300.313 69.7629 299.918 70.1789C299.534 70.5843 299.342 71.1229 299.342 71.7949V76.2109H297.726ZM307.272 68.8029L306.568 68.2589C306.813 67.9923 306.994 67.7469 307.112 67.5229C307.229 67.2989 307.309 67.0696 307.352 66.8349H306.456V64.9309H308.376V66.2269C308.376 66.7069 308.296 67.1549 308.136 67.5709C307.976 67.9869 307.688 68.3976 307.272 68.8029ZM313.819 76.3549C312.838 76.3549 312.107 76.1043 311.627 75.6029C311.147 75.1016 310.907 74.3763 310.907 73.4269V69.6509H309.387V68.4029H310.907V66.0509H312.523V68.4029H314.939V69.6509H312.523V73.2989C312.523 73.8643 312.641 74.2909 312.875 74.5789C313.121 74.8669 313.515 75.0109 314.059 75.0109C314.23 75.0109 314.395 74.9949 314.555 74.9629C314.715 74.9203 314.875 74.8723 315.035 74.8189L315.291 76.0349C315.131 76.1309 314.907 76.2056 314.619 76.2589C314.342 76.3229 314.075 76.3549 313.819 76.3549ZM56.6816 98.2109L53.7056 90.4029H55.3696L57.4656 96.3229L59.6256 90.4029H60.8736L63.0016 96.3549L65.1296 90.4029H66.7136L63.7376 98.2109H62.2656L60.2016 92.6269L58.1536 98.2109H56.6816ZM70.4406 98.3549C69.8966 98.3549 69.4113 98.2483 68.9846 98.0349C68.5579 97.8216 68.2166 97.5336 67.9606 97.1709C67.7153 96.8083 67.5926 96.3976 67.5926 95.9389C67.5926 95.3629 67.7366 94.9096 68.0246 94.5789C68.3233 94.2483 68.8086 94.0083 69.4806 93.8589C70.1633 93.7096 71.0806 93.6349 72.2326 93.6349H72.7766V93.2189C72.7766 92.6109 72.6486 92.1736 72.3926 91.9069C72.1366 91.6403 71.7153 91.5069 71.1286 91.5069C70.6806 91.5069 70.2326 91.5763 69.7846 91.7149C69.3366 91.8429 68.8779 92.0509 68.4086 92.3389L67.9126 91.2029C68.3179 90.9149 68.8246 90.6856 69.4326 90.5149C70.0406 90.3443 70.6219 90.2589 71.1766 90.2589C72.2433 90.2589 73.0326 90.5149 73.5446 91.0269C74.0566 91.5283 74.3126 92.3176 74.3126 93.3949V98.2109H72.7926V96.9149C72.6006 97.3629 72.3019 97.7149 71.8966 97.9709C71.4913 98.2269 71.0059 98.3549 70.4406 98.3549ZM70.7606 97.2029C71.3366 97.2029 71.8166 97.0003 72.2006 96.5949C72.5846 96.1896 72.7766 95.6776 72.7766 95.0589V94.6269H72.2486C71.4699 94.6269 70.8566 94.6643 70.4086 94.7389C69.9713 94.8136 69.6566 94.9416 69.4646 95.1229C69.2833 95.2936 69.1926 95.5336 69.1926 95.8429C69.1926 96.2483 69.3313 96.5789 69.6086 96.8349C69.8859 97.0803 70.2699 97.2029 70.7606 97.2029ZM76.5383 98.2109V90.4029H78.1063V91.6989C78.373 91.2296 78.7357 90.8723 79.1943 90.6269C79.6637 90.3816 80.1863 90.2589 80.7623 90.2589C82.6077 90.2589 83.5303 91.3043 83.5303 93.3949V98.2109H81.9143V93.4909C81.9143 92.8189 81.781 92.3283 81.5143 92.0189C81.2583 91.7096 80.853 91.5549 80.2983 91.5549C79.6477 91.5549 79.125 91.7629 78.7303 92.1789C78.3463 92.5843 78.1543 93.1229 78.1543 93.7949V98.2109H76.5383ZM89.0851 98.3549C88.1038 98.3549 87.3731 98.1043 86.8931 97.6029C86.4131 97.1016 86.1731 96.3763 86.1731 95.4269V91.6509H84.6531V90.4029H86.1731V88.0509H87.7891V90.4029H90.2051V91.6509H87.7891V95.2989C87.7891 95.8643 87.9064 96.2909 88.1411 96.5789C88.3864 96.8669 88.7811 97.0109 89.3251 97.0109C89.4958 97.0109 89.6611 96.9949 89.8211 96.9629C89.9811 96.9203 90.1411 96.8723 90.3011 96.8189L90.5571 98.0349C90.3971 98.1309 90.1731 98.2056 89.8851 98.2589C89.6078 98.3229 89.3411 98.3549 89.0851 98.3549ZM99.132 98.3549C98.1506 98.3549 97.42 98.1043 96.94 97.6029C96.46 97.1016 96.22 96.3763 96.22 95.4269V91.6509H94.7V90.4029H96.22V88.0509H97.836V90.4029H100.252V91.6509H97.836V95.2989C97.836 95.8643 97.9533 96.2909 98.188 96.5789C98.4333 96.8669 98.828 97.0109 99.372 97.0109C99.5426 97.0109 99.708 96.9949 99.868 96.9629C100.028 96.9203 100.188 96.8723 100.348 96.8189L100.604 98.0349C100.444 98.1309 100.22 98.2056 99.932 98.2589C99.6546 98.3229 99.388 98.3549 99.132 98.3549ZM104.962 98.3549C104.172 98.3549 103.49 98.1896 102.914 97.8589C102.338 97.5283 101.89 97.0643 101.57 96.4669C101.26 95.8589 101.106 95.1389 101.106 94.3069C101.106 93.4749 101.26 92.7603 101.57 92.1629C101.89 91.5549 102.338 91.0856 102.914 90.7549C103.49 90.4243 104.172 90.2589 104.962 90.2589C105.73 90.2589 106.402 90.4243 106.978 90.7549C107.554 91.0856 108.002 91.5549 108.322 92.1629C108.642 92.7603 108.802 93.4749 108.802 94.3069C108.802 95.1389 108.642 95.8589 108.322 96.4669C108.002 97.0643 107.554 97.5283 106.978 97.8589C106.402 98.1896 105.73 98.3549 104.962 98.3549ZM104.962 97.1069C105.623 97.1069 106.156 96.8669 106.562 96.3869C106.967 95.9069 107.17 95.2136 107.17 94.3069C107.17 93.4003 106.967 92.7123 106.562 92.2429C106.156 91.7629 105.623 91.5229 104.962 91.5229C104.29 91.5229 103.751 91.7629 103.346 92.2429C102.94 92.7123 102.738 93.4003 102.738 94.3069C102.738 95.2136 102.94 95.9069 103.346 96.3869C103.751 96.8669 104.29 97.1069 104.962 97.1069ZM114.82 98.2109V90.4029H116.388V91.7949C116.793 90.8669 117.636 90.3496 118.916 90.2429L119.444 90.2109L119.556 91.5869L118.58 91.6829C117.161 91.8216 116.452 92.5523 116.452 93.8749V98.2109H114.82ZM124.343 98.3549C123.063 98.3549 122.055 97.9976 121.319 97.2829C120.583 96.5576 120.215 95.5709 120.215 94.3229C120.215 93.5229 120.375 92.8189 120.695 92.2109C121.026 91.5923 121.479 91.1123 122.055 90.7709C122.631 90.4296 123.292 90.2589 124.039 90.2589C125.116 90.2589 125.964 90.6056 126.583 91.2989C127.202 91.9816 127.511 92.9256 127.511 94.1309V94.6749H121.783C121.9 96.2963 122.759 97.1069 124.359 97.1069C124.807 97.1069 125.244 97.0376 125.671 96.8989C126.108 96.7603 126.519 96.5309 126.903 96.2109L127.383 97.3309C127.031 97.6509 126.578 97.9016 126.023 98.0829C125.468 98.2643 124.908 98.3549 124.343 98.3549ZM124.103 91.3949C123.431 91.3949 122.898 91.6029 122.503 92.0189C122.108 92.4349 121.868 92.9896 121.783 93.6829H126.151C126.119 92.9576 125.927 92.3976 125.575 92.0029C125.223 91.5976 124.732 91.3949 124.103 91.3949ZM131.769 98.3549C131.225 98.3549 130.739 98.2483 130.313 98.0349C129.886 97.8216 129.545 97.5336 129.289 97.1709C129.043 96.8083 128.921 96.3976 128.921 95.9389C128.921 95.3629 129.065 94.9096 129.353 94.5789C129.651 94.2483 130.137 94.0083 130.809 93.8589C131.491 93.7096 132.409 93.6349 133.561 93.6349H134.105V93.2189C134.105 92.6109 133.977 92.1736 133.721 91.9069C133.465 91.6403 133.043 91.5069 132.457 91.5069C132.009 91.5069 131.561 91.5763 131.113 91.7149C130.665 91.8429 130.206 92.0509 129.737 92.3389L129.241 91.2029C129.646 90.9149 130.153 90.6856 130.761 90.5149C131.369 90.3443 131.95 90.2589 132.505 90.2589C133.571 90.2589 134.361 90.5149 134.873 91.0269C135.385 91.5283 135.641 92.3176 135.641 93.3949V98.2109H134.121V96.9149C133.929 97.3629 133.63 97.7149 133.225 97.9709C132.819 98.2269 132.334 98.3549 131.769 98.3549ZM132.089 97.2029C132.665 97.2029 133.145 97.0003 133.529 96.5949C133.913 96.1896 134.105 95.6776 134.105 95.0589V94.6269H133.577C132.798 94.6269 132.185 94.6643 131.737 94.7389C131.299 94.8136 130.985 94.9416 130.793 95.1229C130.611 95.2936 130.521 95.5336 130.521 95.8429C130.521 96.2483 130.659 96.5789 130.937 96.8349C131.214 97.0803 131.598 97.2029 132.089 97.2029ZM140.842 98.3549C140.16 98.3549 139.557 98.1949 139.034 97.8749C138.522 97.5443 138.122 97.0749 137.834 96.4669C137.546 95.8589 137.402 95.1389 137.402 94.3069C137.402 93.4749 137.546 92.7603 137.834 92.1629C138.122 91.5549 138.522 91.0856 139.034 90.7549C139.546 90.4243 140.149 90.2589 140.842 90.2589C141.429 90.2589 141.952 90.3869 142.41 90.6429C142.869 90.8989 143.21 91.2456 143.434 91.6829V86.9309H145.05V98.2109H143.466V96.8509C143.242 97.3203 142.896 97.6883 142.426 97.9549C141.968 98.2216 141.44 98.3549 140.842 98.3549ZM141.258 97.1069C141.92 97.1069 142.453 96.8669 142.858 96.3869C143.264 95.9069 143.466 95.2136 143.466 94.3069C143.466 93.4003 143.264 92.7123 142.858 92.2429C142.453 91.7629 141.92 91.5229 141.258 91.5229C140.586 91.5229 140.048 91.7629 139.642 92.2429C139.237 92.7123 139.034 93.4003 139.034 94.3069C139.034 95.2136 139.237 95.9069 139.642 96.3869C140.048 96.8669 140.586 97.1069 141.258 97.1069ZM147.944 100.179L147.24 99.6349C147.485 99.3683 147.666 99.1229 147.784 98.8989C147.901 98.6749 147.976 98.4456 148.008 98.2109H147.128V96.3069H149.032V97.6029C149.032 98.0936 148.952 98.5416 148.792 98.9469C148.632 99.3629 148.349 99.7736 147.944 100.179ZM155.496 98.2109V86.9309H157.16V98.2109H155.496ZM165.9 98.2109L162.924 90.4029H164.588L166.684 96.3229L168.844 90.4029H170.092L172.22 96.3549L174.348 90.4029H175.932L172.956 98.2109H171.484L169.42 92.6269L167.372 98.2109H165.9ZM179.659 98.3549C179.115 98.3549 178.63 98.2483 178.203 98.0349C177.777 97.8216 177.435 97.5336 177.179 97.1709C176.934 96.8083 176.811 96.3976 176.811 95.9389C176.811 95.3629 176.955 94.9096 177.243 94.5789C177.542 94.2483 178.027 94.0083 178.699 93.8589C179.382 93.7096 180.299 93.6349 181.451 93.6349H181.995V93.2189C181.995 92.6109 181.867 92.1736 181.611 91.9069C181.355 91.6403 180.934 91.5069 180.347 91.5069C179.899 91.5069 179.451 91.5763 179.003 91.7149C178.555 91.8429 178.097 92.0509 177.627 92.3389L177.131 91.2029C177.537 90.9149 178.043 90.6856 178.651 90.5149C179.259 90.3443 179.841 90.2589 180.395 90.2589C181.462 90.2589 182.251 90.5149 182.763 91.0269C183.275 91.5283 183.531 92.3176 183.531 93.3949V98.2109H182.011V96.9149C181.819 97.3629 181.521 97.7149 181.115 97.9709C180.71 98.2269 180.225 98.3549 179.659 98.3549ZM179.979 97.2029C180.555 97.2029 181.035 97.0003 181.419 96.5949C181.803 96.1896 181.995 95.6776 181.995 95.0589V94.6269H181.467C180.689 94.6269 180.075 94.6643 179.627 94.7389C179.19 94.8136 178.875 94.9416 178.683 95.1229C178.502 95.2936 178.411 95.5336 178.411 95.8429C178.411 96.2483 178.55 96.5789 178.827 96.8349C179.105 97.0803 179.489 97.2029 179.979 97.2029ZM185.757 98.2109V90.4029H187.325V91.6989C187.592 91.2296 187.954 90.8723 188.413 90.6269C188.882 90.3816 189.405 90.2589 189.981 90.2589C191.826 90.2589 192.749 91.3043 192.749 93.3949V98.2109H191.133V93.4909C191.133 92.8189 191 92.3283 190.733 92.0189C190.477 91.7096 190.072 91.5549 189.517 91.5549C188.866 91.5549 188.344 91.7629 187.949 92.1789C187.565 92.5843 187.373 93.1229 187.373 93.7949V98.2109H185.757ZM198.304 98.3549C197.323 98.3549 196.592 98.1043 196.112 97.6029C195.632 97.1016 195.392 96.3763 195.392 95.4269V91.6509H193.872V90.4029H195.392V88.0509H197.008V90.4029H199.424V91.6509H197.008V95.2989C197.008 95.8643 197.125 96.2909 197.36 96.5789C197.605 96.8669 198 97.0109 198.544 97.0109C198.715 97.0109 198.88 96.9949 199.04 96.9629C199.2 96.9203 199.36 96.8723 199.52 96.8189L199.776 98.0349C199.616 98.1309 199.392 98.2056 199.104 98.2589C198.827 98.3229 198.56 98.3549 198.304 98.3549ZM208.351 98.3549C207.369 98.3549 206.639 98.1043 206.159 97.6029C205.679 97.1016 205.439 96.3763 205.439 95.4269V91.6509H203.919V90.4029H205.439V88.0509H207.055V90.4029H209.471V91.6509H207.055V95.2989C207.055 95.8643 207.172 96.2909 207.407 96.5789C207.652 96.8669 208.047 97.0109 208.591 97.0109C208.761 97.0109 208.927 96.9949 209.087 96.9629C209.247 96.9203 209.407 96.8723 209.567 96.8189L209.823 98.0349C209.663 98.1309 209.439 98.2056 209.151 98.2589C208.873 98.3229 208.607 98.3549 208.351 98.3549ZM214.18 98.3549C213.391 98.3549 212.708 98.1896 212.132 97.8589C211.556 97.5283 211.108 97.0643 210.788 96.4669C210.479 95.8589 210.324 95.1389 210.324 94.3069C210.324 93.4749 210.479 92.7603 210.788 92.1629C211.108 91.5549 211.556 91.0856 212.132 90.7549C212.708 90.4243 213.391 90.2589 214.18 90.2589C214.948 90.2589 215.62 90.4243 216.196 90.7549C216.772 91.0856 217.22 91.5549 217.54 92.1629C217.86 92.7603 218.02 93.4749 218.02 94.3069C218.02 95.1389 217.86 95.8589 217.54 96.4669C217.22 97.0643 216.772 97.5283 216.196 97.8589C215.62 98.1896 214.948 98.3549 214.18 98.3549ZM214.18 97.1069C214.842 97.1069 215.375 96.8669 215.78 96.3869C216.186 95.9069 216.388 95.2136 216.388 94.3069C216.388 93.4003 216.186 92.7123 215.78 92.2429C215.375 91.7629 214.842 91.5229 214.18 91.5229C213.508 91.5229 212.97 91.7629 212.564 92.2429C212.159 92.7123 211.956 93.4003 211.956 94.3069C211.956 95.2136 212.159 95.9069 212.564 96.3869C212.97 96.8669 213.508 97.1069 214.18 97.1069ZM227.574 101.235C226.87 101.235 226.214 101.15 225.606 100.979C224.998 100.819 224.46 100.563 223.99 100.211L224.486 99.0589C224.956 99.3789 225.436 99.6136 225.926 99.7629C226.417 99.9123 226.929 99.9869 227.462 99.9869C228.956 99.9869 229.702 99.2403 229.702 97.7469V96.5149C229.478 96.9843 229.126 97.3523 228.646 97.6189C228.177 97.8856 227.649 98.0189 227.062 98.0189C226.358 98.0189 225.745 97.8589 225.222 97.5389C224.7 97.2083 224.294 96.7549 224.006 96.1789C223.718 95.5923 223.574 94.9096 223.574 94.1309C223.574 93.3629 223.718 92.6909 224.006 92.1149C224.294 91.5283 224.7 91.0749 225.222 90.7549C225.745 90.4243 226.358 90.2589 227.062 90.2589C227.66 90.2589 228.193 90.3923 228.662 90.6589C229.132 90.9256 229.478 91.2936 229.702 91.7629V90.4029H231.27V97.5549C231.27 98.7816 230.956 99.6989 230.326 100.307C229.697 100.926 228.78 101.235 227.574 101.235ZM227.446 96.7549C228.129 96.7549 228.673 96.5203 229.078 96.0509C229.484 95.5816 229.686 94.9416 229.686 94.1309C229.686 93.3203 229.484 92.6856 229.078 92.2269C228.673 91.7576 228.129 91.5229 227.446 91.5229C226.764 91.5229 226.22 91.7576 225.814 92.2269C225.409 92.6856 225.206 93.3203 225.206 94.1309C225.206 94.9416 225.409 95.5816 225.814 96.0509C226.22 96.5203 226.764 96.7549 227.446 96.7549ZM236.93 98.3549C236.141 98.3549 235.458 98.1896 234.882 97.8589C234.306 97.5283 233.858 97.0643 233.538 96.4669C233.229 95.8589 233.074 95.1389 233.074 94.3069C233.074 93.4749 233.229 92.7603 233.538 92.1629C233.858 91.5549 234.306 91.0856 234.882 90.7549C235.458 90.4243 236.141 90.2589 236.93 90.2589C237.698 90.2589 238.37 90.4243 238.946 90.7549C239.522 91.0856 239.97 91.5549 240.29 92.1629C240.61 92.7603 240.77 93.4749 240.77 94.3069C240.77 95.1389 240.61 95.8589 240.29 96.4669C239.97 97.0643 239.522 97.5283 238.946 97.8589C238.37 98.1896 237.698 98.3549 236.93 98.3549ZM236.93 97.1069C237.592 97.1069 238.125 96.8669 238.53 96.3869C238.936 95.9069 239.138 95.2136 239.138 94.3069C239.138 93.4003 238.936 92.7123 238.53 92.2429C238.125 91.7629 237.592 91.5229 236.93 91.5229C236.258 91.5229 235.72 91.7629 235.314 92.2429C234.909 92.7123 234.706 93.4003 234.706 94.3069C234.706 95.2136 234.909 95.9069 235.314 96.3869C235.72 96.8669 236.258 97.1069 236.93 97.1069ZM249.524 98.3549C248.884 98.3549 248.287 98.2749 247.732 98.1149C247.178 97.9443 246.714 97.7096 246.34 97.4109L246.804 96.3229C247.199 96.6003 247.631 96.8136 248.1 96.9629C248.58 97.1123 249.06 97.1869 249.54 97.1869C250.106 97.1869 250.532 97.0856 250.82 96.8829C251.108 96.6803 251.252 96.4083 251.252 96.0669C251.252 95.7896 251.156 95.5763 250.964 95.4269C250.772 95.2669 250.484 95.1443 250.1 95.0589L248.58 94.7549C247.236 94.4776 246.564 93.7843 246.564 92.6749C246.564 91.9389 246.858 91.3523 247.444 90.9149C248.031 90.4776 248.799 90.2589 249.748 90.2589C250.292 90.2589 250.81 90.3389 251.3 90.4989C251.802 90.6589 252.218 90.8989 252.548 91.2189L252.084 92.3069C251.764 92.0296 251.396 91.8163 250.98 91.6669C250.564 91.5176 250.154 91.4429 249.748 91.4429C249.194 91.4429 248.772 91.5496 248.484 91.7629C248.196 91.9656 248.052 92.2429 248.052 92.5949C248.052 93.1283 248.404 93.4696 249.108 93.6189L250.628 93.9229C251.322 94.0616 251.844 94.2963 252.196 94.6269C252.559 94.9576 252.74 95.4056 252.74 95.9709C252.74 96.7176 252.447 97.3043 251.86 97.7309C251.274 98.1469 250.495 98.3549 249.524 98.3549ZM257.788 98.3549C256.807 98.3549 256.076 98.1043 255.596 97.6029C255.116 97.1016 254.876 96.3763 254.876 95.4269V91.6509H253.356V90.4029H254.876V88.0509H256.492V90.4029H258.908V91.6509H256.492V95.2989C256.492 95.8643 256.61 96.2909 256.844 96.5789C257.09 96.8669 257.484 97.0109 258.028 97.0109C258.199 97.0109 258.364 96.9949 258.524 96.9629C258.684 96.9203 258.844 96.8723 259.004 96.8189L259.26 98.0349C259.1 98.1309 258.876 98.2056 258.588 98.2589C258.311 98.3229 258.044 98.3549 257.788 98.3549ZM260.304 98.2109V90.4029H261.872V91.7949C262.277 90.8669 263.12 90.3496 264.4 90.2429L264.928 90.2109L265.04 91.5869L264.064 91.6829C262.645 91.8216 261.936 92.5523 261.936 93.8749V98.2109H260.304ZM268.691 98.3549C268.147 98.3549 267.661 98.2483 267.235 98.0349C266.808 97.8216 266.467 97.5336 266.211 97.1709C265.965 96.8083 265.843 96.3976 265.843 95.9389C265.843 95.3629 265.987 94.9096 266.275 94.5789C266.573 94.2483 267.059 94.0083 267.731 93.8589C268.413 93.7096 269.331 93.6349 270.483 93.6349H271.027V93.2189C271.027 92.6109 270.899 92.1736 270.643 91.9069C270.387 91.6403 269.965 91.5069 269.379 91.5069C268.931 91.5069 268.483 91.5763 268.035 91.7149C267.587 91.8429 267.128 92.0509 266.659 92.3389L266.163 91.2029C266.568 90.9149 267.075 90.6856 267.683 90.5149C268.291 90.3443 268.872 90.2589 269.427 90.2589C270.493 90.2589 271.283 90.5149 271.795 91.0269C272.307 91.5283 272.563 92.3176 272.563 93.3949V98.2109H271.043V96.9149C270.851 97.3629 270.552 97.7149 270.147 97.9709C269.741 98.2269 269.256 98.3549 268.691 98.3549ZM269.011 97.2029C269.587 97.2029 270.067 97.0003 270.451 96.5949C270.835 96.1896 271.027 95.6776 271.027 95.0589V94.6269H270.499C269.72 94.6269 269.107 94.6643 268.659 94.7389C268.221 94.8136 267.907 94.9416 267.715 95.1229C267.533 95.2936 267.443 95.5336 267.443 95.8429C267.443 96.2483 267.581 96.5789 267.859 96.8349C268.136 97.0803 268.52 97.2029 269.011 97.2029ZM274.644 88.5949V86.9149H276.532V88.5949H274.644ZM274.788 98.2109V90.4029H276.404V98.2109H274.788ZM282.215 101.235C281.511 101.235 280.855 101.15 280.247 100.979C279.639 100.819 279.1 100.563 278.631 100.211L279.127 99.0589C279.596 99.3789 280.076 99.6136 280.567 99.7629C281.058 99.9123 281.57 99.9869 282.103 99.9869C283.596 99.9869 284.343 99.2403 284.343 97.7469V96.5149C284.119 96.9843 283.767 97.3523 283.287 97.6189C282.818 97.8856 282.29 98.0189 281.703 98.0189C280.999 98.0189 280.386 97.8589 279.863 97.5389C279.34 97.2083 278.935 96.7549 278.647 96.1789C278.359 95.5923 278.215 94.9096 278.215 94.1309C278.215 93.3629 278.359 92.6909 278.647 92.1149C278.935 91.5283 279.34 91.0749 279.863 90.7549C280.386 90.4243 280.999 90.2589 281.703 90.2589C282.3 90.2589 282.834 90.3923 283.303 90.6589C283.772 90.9256 284.119 91.2936 284.343 91.7629V90.4029H285.911V97.5549C285.911 98.7816 285.596 99.6989 284.967 100.307C284.338 100.926 283.42 101.235 282.215 101.235ZM282.087 96.7549C282.77 96.7549 283.314 96.5203 283.719 96.0509C284.124 95.5816 284.327 94.9416 284.327 94.1309C284.327 93.3203 284.124 92.6856 283.719 92.2269C283.314 91.7576 282.77 91.5229 282.087 91.5229C281.404 91.5229 280.86 91.7576 280.455 92.2269C280.05 92.6856 279.847 93.3203 279.847 94.1309C279.847 94.9416 280.05 95.5816 280.455 96.0509C280.86 96.5203 281.404 96.7549 282.087 96.7549ZM288.179 98.2109V86.9309H289.795V91.6189C290.062 91.1709 290.419 90.8349 290.867 90.6109C291.326 90.3763 291.838 90.2589 292.403 90.2589C294.248 90.2589 295.171 91.3043 295.171 93.3949V98.2109H293.555V93.4909C293.555 92.8189 293.422 92.3283 293.155 92.0189C292.899 91.7096 292.494 91.5549 291.939 91.5549C291.288 91.5549 290.766 91.7629 290.371 92.1789C289.987 92.5843 289.795 93.1229 289.795 93.7949V98.2109H288.179ZM300.726 98.3549C299.744 98.3549 299.014 98.1043 298.534 97.6029C298.054 97.1016 297.814 96.3763 297.814 95.4269V91.6509H296.294V90.4029H297.814V88.0509H299.43V90.4029H301.846V91.6509H299.43V95.2989C299.43 95.8643 299.547 96.2909 299.782 96.5789C300.027 96.8669 300.422 97.0109 300.966 97.0109C301.136 97.0109 301.302 96.9949 301.462 96.9629C301.622 96.9203 301.782 96.8723 301.942 96.8189L302.198 98.0349C302.038 98.1309 301.814 98.2056 301.526 98.2589C301.248 98.3229 300.982 98.3549 300.726 98.3549ZM116.976 120.355C115.994 120.355 115.264 120.104 114.784 119.603C114.304 119.102 114.064 118.376 114.064 117.427V113.651H112.544V112.403H114.064V110.051H115.68V112.403H118.096V113.651H115.68V117.299C115.68 117.864 115.797 118.291 116.032 118.579C116.277 118.867 116.672 119.011 117.216 119.011C117.386 119.011 117.552 118.995 117.712 118.963C117.872 118.92 118.032 118.872 118.192 118.819L118.448 120.035C118.288 120.131 118.064 120.206 117.776 120.259C117.498 120.323 117.232 120.355 116.976 120.355ZM122.805 120.355C122.016 120.355 121.333 120.19 120.757 119.859C120.181 119.528 119.733 119.064 119.413 118.467C119.104 117.859 118.949 117.139 118.949 116.307C118.949 115.475 119.104 114.76 119.413 114.163C119.733 113.555 120.181 113.086 120.757 112.755C121.333 112.424 122.016 112.259 122.805 112.259C123.573 112.259 124.245 112.424 124.821 112.755C125.397 113.086 125.845 113.555 126.165 114.163C126.485 114.76 126.645 115.475 126.645 116.307C126.645 117.139 126.485 117.859 126.165 118.467C125.845 119.064 125.397 119.528 124.821 119.859C124.245 120.19 123.573 120.355 122.805 120.355ZM122.805 119.107C123.467 119.107 124 118.867 124.405 118.387C124.811 117.907 125.013 117.214 125.013 116.307C125.013 115.4 124.811 114.712 124.405 114.243C124 113.763 123.467 113.523 122.805 113.523C122.133 113.523 121.595 113.763 121.189 114.243C120.784 114.712 120.581 115.4 120.581 116.307C120.581 117.214 120.784 117.907 121.189 118.387C121.595 118.867 122.133 119.107 122.805 119.107ZM135.991 120.355C135.01 120.355 134.279 120.104 133.799 119.603C133.319 119.102 133.079 118.376 133.079 117.427V113.651H131.559V112.403H133.079V110.051H134.695V112.403H137.111V113.651H134.695V117.299C134.695 117.864 134.813 118.291 135.047 118.579C135.293 118.867 135.687 119.011 136.231 119.011C136.402 119.011 136.567 118.995 136.727 118.963C136.887 118.92 137.047 118.872 137.207 118.819L137.463 120.035C137.303 120.131 137.079 120.206 136.791 120.259C136.514 120.323 136.247 120.355 135.991 120.355ZM138.507 120.211V108.931H140.123V113.619C140.39 113.171 140.747 112.835 141.195 112.611C141.654 112.376 142.166 112.259 142.731 112.259C144.576 112.259 145.499 113.304 145.499 115.395V120.211H143.883V115.491C143.883 114.819 143.75 114.328 143.483 114.019C143.227 113.71 142.822 113.555 142.267 113.555C141.616 113.555 141.094 113.763 140.699 114.179C140.315 114.584 140.123 115.123 140.123 115.795V120.211H138.507ZM151.39 120.355C150.11 120.355 149.102 119.998 148.366 119.283C147.63 118.558 147.262 117.571 147.262 116.323C147.262 115.523 147.422 114.819 147.742 114.211C148.073 113.592 148.526 113.112 149.102 112.771C149.678 112.43 150.339 112.259 151.086 112.259C152.163 112.259 153.011 112.606 153.63 113.299C154.249 113.982 154.558 114.926 154.558 116.131V116.675H148.83C148.947 118.296 149.806 119.107 151.406 119.107C151.854 119.107 152.291 119.038 152.718 118.899C153.155 118.76 153.566 118.531 153.95 118.211L154.43 119.331C154.078 119.651 153.625 119.902 153.07 120.083C152.515 120.264 151.955 120.355 151.39 120.355ZM151.15 113.395C150.478 113.395 149.945 113.603 149.55 114.019C149.155 114.435 148.915 114.99 148.83 115.683H153.198C153.166 114.958 152.974 114.398 152.622 114.003C152.27 113.598 151.779 113.395 151.15 113.395ZM160.523 120.211V112.403H162.091V113.795C162.496 112.867 163.339 112.35 164.619 112.243L165.147 112.211L165.259 113.587L164.283 113.683C162.864 113.822 162.155 114.552 162.155 115.875V120.211H160.523ZM170.046 120.355C168.766 120.355 167.758 119.998 167.022 119.283C166.286 118.558 165.918 117.571 165.918 116.323C165.918 115.523 166.078 114.819 166.398 114.211C166.729 113.592 167.182 113.112 167.758 112.771C168.334 112.43 168.995 112.259 169.742 112.259C170.819 112.259 171.667 112.606 172.286 113.299C172.905 113.982 173.214 114.926 173.214 116.131V116.675H167.486C167.603 118.296 168.462 119.107 170.062 119.107C170.51 119.107 170.947 119.038 171.374 118.899C171.811 118.76 172.222 118.531 172.606 118.211L173.086 119.331C172.734 119.651 172.281 119.902 171.726 120.083C171.171 120.264 170.611 120.355 170.046 120.355ZM169.806 113.395C169.134 113.395 168.601 113.603 168.206 114.019C167.811 114.435 167.571 114.99 167.486 115.683H171.854C171.822 114.958 171.63 114.398 171.278 114.003C170.926 113.598 170.435 113.395 169.806 113.395ZM178.416 120.355C177.616 120.355 176.923 120.19 176.336 119.859C175.76 119.518 175.312 119.043 174.992 118.435C174.672 117.816 174.512 117.091 174.512 116.259C174.512 115.022 174.864 114.046 175.568 113.331C176.272 112.616 177.221 112.259 178.416 112.259C178.907 112.259 179.392 112.344 179.872 112.515C180.352 112.686 180.747 112.92 181.056 113.219L180.544 114.355C180.245 114.078 179.915 113.875 179.552 113.747C179.2 113.608 178.864 113.539 178.544 113.539C177.787 113.539 177.2 113.779 176.784 114.259C176.379 114.728 176.176 115.4 176.176 116.275C176.176 117.15 176.379 117.838 176.784 118.339C177.2 118.83 177.787 119.075 178.544 119.075C178.864 119.075 179.2 119.011 179.552 118.883C179.915 118.744 180.245 118.536 180.544 118.259L181.056 119.411C180.747 119.699 180.347 119.928 179.856 120.099C179.376 120.27 178.896 120.355 178.416 120.355ZM182.301 110.595V108.915H184.189V110.595H182.301ZM182.445 120.211V112.403H184.061V120.211H182.445ZM186.335 123.091V112.403H187.919V113.731C188.143 113.283 188.485 112.926 188.943 112.659C189.402 112.392 189.93 112.259 190.527 112.259C191.221 112.259 191.823 112.424 192.335 112.755C192.858 113.086 193.258 113.555 193.535 114.163C193.823 114.76 193.967 115.475 193.967 116.307C193.967 117.139 193.823 117.859 193.535 118.467C193.258 119.075 192.858 119.544 192.335 119.875C191.823 120.195 191.221 120.355 190.527 120.355C189.951 120.355 189.434 120.232 188.975 119.987C188.527 119.731 188.186 119.384 187.951 118.947V123.091H186.335ZM190.127 119.107C190.799 119.107 191.333 118.867 191.727 118.387C192.133 117.907 192.335 117.214 192.335 116.307C192.335 115.4 192.133 114.712 191.727 114.243C191.333 113.763 190.799 113.523 190.127 113.523C189.455 113.523 188.917 113.763 188.511 114.243C188.117 114.712 187.919 115.4 187.919 116.307C187.919 117.214 188.117 117.907 188.511 118.387C188.917 118.867 189.455 119.107 190.127 119.107ZM199.452 120.355C198.172 120.355 197.164 119.998 196.428 119.283C195.692 118.558 195.324 117.571 195.324 116.323C195.324 115.523 195.484 114.819 195.804 114.211C196.135 113.592 196.588 113.112 197.164 112.771C197.74 112.43 198.402 112.259 199.148 112.259C200.226 112.259 201.074 112.606 201.692 113.299C202.311 113.982 202.62 114.926 202.62 116.131V116.675H196.892C197.01 118.296 197.868 119.107 199.468 119.107C199.916 119.107 200.354 119.038 200.78 118.899C201.218 118.76 201.628 118.531 202.012 118.211L202.492 119.331C202.14 119.651 201.687 119.902 201.132 120.083C200.578 120.264 200.018 120.355 199.452 120.355ZM199.212 113.395C198.54 113.395 198.007 113.603 197.612 114.019C197.218 114.435 196.978 114.99 196.892 115.683H201.26C201.228 114.958 201.036 114.398 200.684 114.003C200.332 113.598 199.842 113.395 199.212 113.395ZM208.441 110.595V108.915H210.329V110.595H208.441ZM208.585 120.211V112.403H210.201V120.211H208.585ZM215.804 120.355C214.823 120.355 214.092 120.104 213.612 119.603C213.132 119.102 212.892 118.376 212.892 117.427V113.651H211.372V112.403H212.892V110.051H214.508V112.403H216.924V113.651H214.508V117.299C214.508 117.864 214.625 118.291 214.86 118.579C215.105 118.867 215.5 119.011 216.044 119.011C216.215 119.011 216.38 118.995 216.54 118.963C216.7 118.92 216.86 118.872 217.02 118.819L217.276 120.035C217.116 120.131 216.892 120.206 216.604 120.259C216.327 120.323 216.06 120.355 215.804 120.355ZM221.056 120.355C220.416 120.355 219.818 120.275 219.264 120.115C218.709 119.944 218.245 119.71 217.872 119.411L218.336 118.323C218.73 118.6 219.162 118.814 219.632 118.963C220.112 119.112 220.592 119.187 221.072 119.187C221.637 119.187 222.064 119.086 222.352 118.883C222.64 118.68 222.784 118.408 222.784 118.067C222.784 117.79 222.688 117.576 222.496 117.427C222.304 117.267 222.016 117.144 221.632 117.059L220.112 116.755C218.768 116.478 218.096 115.784 218.096 114.675C218.096 113.939 218.389 113.352 218.976 112.915C219.562 112.478 220.33 112.259 221.28 112.259C221.824 112.259 222.341 112.339 222.832 112.499C223.333 112.659 223.749 112.899 224.08 113.219L223.616 114.307C223.296 114.03 222.928 113.816 222.512 113.667C222.096 113.518 221.685 113.443 221.28 113.443C220.725 113.443 220.304 113.55 220.016 113.763C219.728 113.966 219.584 114.243 219.584 114.595C219.584 115.128 219.936 115.47 220.64 115.619L222.16 115.923C222.853 116.062 223.376 116.296 223.728 116.627C224.09 116.958 224.272 117.406 224.272 117.971C224.272 118.718 223.978 119.304 223.392 119.731C222.805 120.147 222.026 120.355 221.056 120.355ZM229.734 120.355C228.454 120.355 227.446 119.998 226.71 119.283C225.974 118.558 225.606 117.571 225.606 116.323C225.606 115.523 225.766 114.819 226.086 114.211C226.416 113.592 226.87 113.112 227.446 112.771C228.022 112.43 228.683 112.259 229.43 112.259C230.507 112.259 231.355 112.606 231.974 113.299C232.592 113.982 232.902 114.926 232.902 116.131V116.675H227.174C227.291 118.296 228.15 119.107 229.75 119.107C230.198 119.107 230.635 119.038 231.062 118.899C231.499 118.76 231.91 118.531 232.294 118.211L232.774 119.331C232.422 119.651 231.968 119.902 231.414 120.083C230.859 120.264 230.299 120.355 229.734 120.355ZM229.494 113.395C228.822 113.395 228.288 113.603 227.894 114.019C227.499 114.435 227.259 114.99 227.174 115.683H231.542C231.51 114.958 231.318 114.398 230.966 114.003C230.614 113.598 230.123 113.395 229.494 113.395ZM237.207 120.355C236.354 120.355 235.714 120.115 235.287 119.635C234.871 119.155 234.663 118.451 234.663 117.523V108.931H236.279V117.427C236.279 118.483 236.711 119.011 237.575 119.011C237.703 119.011 237.821 119.006 237.927 118.995C238.045 118.984 238.162 118.963 238.279 118.931L238.247 120.227C237.885 120.312 237.538 120.355 237.207 120.355ZM239.877 120.211V113.651H238.357V112.403H239.877V112.259C239.877 111.182 240.149 110.371 240.693 109.827C241.248 109.283 242.096 108.979 243.237 108.915L243.941 108.867L244.053 110.083L243.317 110.131C242.667 110.174 242.197 110.35 241.909 110.659C241.632 110.968 241.493 111.427 241.493 112.035V112.403H243.685V113.651H241.493V120.211H239.877ZM244.378 120.211V118.307H246.282V120.211H244.378Z" fill="black"/>
<path d="M6.53516 34.1641C6.37891 33.3828 6.30078 32.5365 6.30078 31.625C6.30078 30.3229 6.45703 28.9557 6.76953 27.5234C7.10807 26.0911 7.62891 24.724 8.33203 23.4219C9.0612 22.0938 9.98568 20.8958 11.1055 19.8281C12.2253 18.7604 13.5924 17.9401 15.207 17.3672C15.4154 17.263 15.6497 17.2109 15.9102 17.2109C16.1445 17.2109 16.3659 17.2891 16.5742 17.4453C16.7826 17.6016 16.8867 17.9271 16.8867 18.4219V20.5703C16.2617 20.9609 15.6497 21.4427 15.0508 22.0156C14.4779 22.5885 13.957 23.2266 13.4883 23.9297C13.0456 24.6328 12.681 25.401 12.3945 26.2344C12.1341 27.0417 12.0039 27.875 12.0039 28.7344C12.056 28.6823 12.1211 28.6562 12.1992 28.6562C12.3034 28.6562 12.3945 28.6562 12.4727 28.6562C13.306 28.6562 14.0742 28.7995 14.7773 29.0859C15.4805 29.3724 16.0794 29.763 16.5742 30.2578C17.069 30.7266 17.4466 31.2995 17.707 31.9766C17.9935 32.6536 18.1367 33.3828 18.1367 34.1641C18.1367 34.9193 17.9935 35.6224 17.707 36.2734C17.4466 36.8984 17.069 37.4583 16.5742 37.9531C16.0794 38.4479 15.4805 38.8385 14.7773 39.125C14.0742 39.3854 13.306 39.5156 12.4727 39.5156C11.6133 39.5156 10.8451 39.3854 10.168 39.125C9.49089 38.8385 8.90495 38.4479 8.41016 37.9531C7.94141 37.4583 7.55078 36.8984 7.23828 36.2734C6.92578 35.6224 6.69141 34.9193 6.53516 34.1641ZM22.8633 34.1641C22.707 33.3828 22.6289 32.5365 22.6289 31.625C22.6289 30.3229 22.7852 28.9557 23.0977 27.5234C23.4362 26.0911 23.957 24.724 24.6602 23.4219C25.3893 22.0938 26.3138 20.8958 27.4336 19.8281C28.5534 18.7604 29.9076 17.9401 31.4961 17.3672C31.6003 17.3151 31.7044 17.276 31.8086 17.25C31.9388 17.224 32.082 17.2109 32.2383 17.2109C32.4727 17.2109 32.681 17.2891 32.8633 17.4453C33.0716 17.6016 33.1758 17.9271 33.1758 18.4219V20.5703C32.5508 20.9609 31.9518 21.4427 31.3789 22.0156C30.806 22.5885 30.2852 23.2266 29.8164 23.9297C29.3737 24.6328 29.0091 25.401 28.7227 26.2344C28.4622 27.0417 28.332 27.875 28.332 28.7344C28.3841 28.6823 28.4492 28.6562 28.5273 28.6562C28.6315 28.6562 28.7227 28.6562 28.8008 28.6562C29.6341 28.6562 30.4023 28.7995 31.1055 29.0859C31.8086 29.3724 32.4076 29.763 32.9023 30.2578C33.3971 30.7266 33.7747 31.2995 34.0352 31.9766C34.3216 32.6536 34.4648 33.3828 34.4648 34.1641C34.4648 34.9193 34.3216 35.6224 34.0352 36.2734C33.7747 36.8984 33.3971 37.4583 32.9023 37.9531C32.4076 38.4479 31.8086 38.8385 31.1055 39.125C30.4023 39.3854 29.6341 39.5156 28.8008 39.5156C27.9414 39.5156 27.1732 39.3854 26.4961 39.125C25.819 38.8385 25.2331 38.4479 24.7383 37.9531C24.2695 37.4583 23.8789 36.8984 23.5664 36.2734C23.2539 35.6224 23.0195 34.9193 22.8633 34.1641Z" fill="#E2D5D1"/>
<path d="M339.464 104.047C339.621 104.828 339.699 105.674 339.699 106.586C339.699 107.888 339.542 109.255 339.23 110.688C338.891 112.12 338.371 113.487 337.667 114.789C336.938 116.117 336.014 117.315 334.894 118.383C333.774 119.451 332.407 120.271 330.792 120.844C330.584 120.948 330.35 121 330.089 121C329.855 121 329.634 120.922 329.425 120.766C329.217 120.609 329.113 120.284 329.113 119.789V117.641C329.738 117.25 330.35 116.768 330.949 116.195C331.522 115.622 332.042 114.984 332.511 114.281C332.954 113.578 333.319 112.81 333.605 111.977C333.865 111.169 333.996 110.336 333.996 109.477C333.944 109.529 333.878 109.555 333.8 109.555C333.696 109.555 333.605 109.555 333.527 109.555C332.694 109.555 331.925 109.411 331.222 109.125C330.519 108.839 329.92 108.448 329.425 107.953C328.931 107.484 328.553 106.911 328.292 106.234C328.006 105.557 327.863 104.828 327.863 104.047C327.863 103.292 328.006 102.589 328.292 101.938C328.553 101.312 328.931 100.753 329.425 100.258C329.92 99.763 330.519 99.3724 331.222 99.0859C331.925 98.8255 332.694 98.6953 333.527 98.6953C334.386 98.6953 335.154 98.8255 335.832 99.0859C336.509 99.3724 337.095 99.763 337.589 100.258C338.058 100.753 338.449 101.312 338.761 101.938C339.074 102.589 339.308 103.292 339.464 104.047ZM323.136 104.047C323.292 104.828 323.371 105.674 323.371 106.586C323.371 107.888 323.214 109.255 322.902 110.688C322.563 112.12 322.042 113.487 321.339 114.789C320.61 116.117 319.686 117.315 318.566 118.383C317.446 119.451 316.092 120.271 314.503 120.844C314.399 120.896 314.295 120.935 314.191 120.961C314.061 120.987 313.917 121 313.761 121C313.527 121 313.319 120.922 313.136 120.766C312.928 120.609 312.824 120.284 312.824 119.789V117.641C313.449 117.25 314.048 116.768 314.621 116.195C315.194 115.622 315.714 114.984 316.183 114.281C316.626 113.578 316.99 112.81 317.277 111.977C317.537 111.169 317.667 110.336 317.667 109.477C317.615 109.529 317.55 109.555 317.472 109.555C317.368 109.555 317.277 109.555 317.199 109.555C316.365 109.555 315.597 109.411 314.894 109.125C314.191 108.839 313.592 108.448 313.097 107.953C312.602 107.484 312.225 106.911 311.964 106.234C311.678 105.557 311.535 104.828 311.535 104.047C311.535 103.292 311.678 102.589 311.964 101.938C312.225 101.312 312.602 100.753 313.097 100.258C313.592 99.763 314.191 99.3724 314.894 99.0859C315.597 98.8255 316.365 98.6953 317.199 98.6953C318.058 98.6953 318.826 98.8255 319.503 99.0859C320.181 99.3724 320.766 99.763 321.261 100.258C321.73 100.753 322.121 101.312 322.433 101.938C322.746 102.589 322.98 103.292 323.136 104.047Z" fill="#E2D5D1"/>
</svg>
