<svg width="493" height="95" viewBox="0 0 493 95" fill="none" xmlns="http://www.w3.org/2000/svg">
<path d="M51.3921 31V21.112H47.3921V19.72H57.0401V21.112H53.0401V31H51.3921ZM58.2454 31V19.72H59.8614V24.408C60.128 23.96 60.4854 23.624 60.9334 23.4C61.392 23.1653 61.904 23.048 62.4694 23.048C64.3147 23.048 65.2374 24.0933 65.2374 26.184V31H63.6214V26.28C63.6214 25.608 63.488 25.1173 63.2214 24.808C62.9654 24.4987 62.56 24.344 62.0054 24.344C61.3547 24.344 60.832 24.552 60.4374 24.968C60.0534 25.3733 59.8614 25.912 59.8614 26.584V31H58.2454ZM71.1281 31.144C69.8481 31.144 68.8401 30.7867 68.1041 30.072C67.3681 29.3467 67.0001 28.36 67.0001 27.112C67.0001 26.312 67.1601 25.608 67.4801 25C67.8108 24.3813 68.2641 23.9013 68.8401 23.56C69.4161 23.2187 70.0775 23.048 70.8241 23.048C71.9015 23.048 72.7495 23.3947 73.3681 24.088C73.9868 24.7707 74.2961 25.7147 74.2961 26.92V27.464H68.5681C68.6855 29.0853 69.5441 29.896 71.1441 29.896C71.5921 29.896 72.0295 29.8267 72.4561 29.688C72.8935 29.5493 73.3041 29.32 73.6881 29L74.1681 30.12C73.8161 30.44 73.3628 30.6907 72.8081 30.872C72.2535 31.0533 71.6935 31.144 71.1281 31.144ZM70.8881 24.184C70.2161 24.184 69.6828 24.392 69.2881 24.808C68.8935 25.224 68.6535 25.7787 68.5681 26.472H72.9361C72.9041 25.7467 72.7121 25.1867 72.3601 24.792C72.0081 24.3867 71.5175 24.184 70.8881 24.184ZM83.653 31.144C82.8637 31.144 82.181 30.9787 81.605 30.648C81.029 30.3173 80.581 29.8533 80.261 29.256C79.9517 28.648 79.797 27.928 79.797 27.096C79.797 26.264 79.9517 25.5493 80.261 24.952C80.581 24.344 81.029 23.8747 81.605 23.544C82.181 23.2133 82.8637 23.048 83.653 23.048C84.421 23.048 85.093 23.2133 85.669 23.544C86.245 23.8747 86.693 24.344 87.013 24.952C87.333 25.5493 87.493 26.264 87.493 27.096C87.493 27.928 87.333 28.648 87.013 29.256C86.693 29.8533 86.245 30.3173 85.669 30.648C85.093 30.9787 84.421 31.144 83.653 31.144ZM83.653 29.896C84.3143 29.896 84.8477 29.656 85.253 29.176C85.6583 28.696 85.861 28.0027 85.861 27.096C85.861 26.1893 85.6583 25.5013 85.253 25.032C84.8477 24.552 84.3143 24.312 83.653 24.312C82.981 24.312 82.4423 24.552 82.037 25.032C81.6317 25.5013 81.429 26.1893 81.429 27.096C81.429 28.0027 81.6317 28.696 82.037 29.176C82.4423 29.656 82.981 29.896 83.653 29.896ZM92.5578 31.144C91.5764 31.144 90.8458 30.8933 90.3658 30.392C89.8858 29.8907 89.6458 29.1653 89.6458 28.216V24.44H88.1258V23.192H89.6458V20.84H91.2618V23.192H93.6778V24.44H91.2618V28.088C91.2618 28.6533 91.3791 29.08 91.6138 29.368C91.8591 29.656 92.2538 29.8 92.7977 29.8C92.9684 29.8 93.1338 29.784 93.2938 29.752C93.4538 29.7093 93.6138 29.6613 93.7738 29.608L94.0298 30.824C93.8698 30.92 93.6458 30.9947 93.3578 31.048C93.0804 31.112 92.8138 31.144 92.5578 31.144ZM95.0735 31V19.72H96.6895V24.408C96.9562 23.96 97.3135 23.624 97.7615 23.4C98.2202 23.1653 98.7322 23.048 99.2975 23.048C101.143 23.048 102.066 24.0933 102.066 26.184V31H100.45V26.28C100.45 25.608 100.316 25.1173 100.05 24.808C99.7935 24.4987 99.3882 24.344 98.8335 24.344C98.1828 24.344 97.6602 24.552 97.2655 24.968C96.8815 25.3733 96.6895 25.912 96.6895 26.584V31H95.0735ZM107.956 31.144C106.676 31.144 105.668 30.7867 104.932 30.072C104.196 29.3467 103.828 28.36 103.828 27.112C103.828 26.312 103.988 25.608 104.308 25C104.639 24.3813 105.092 23.9013 105.668 23.56C106.244 23.2187 106.906 23.048 107.652 23.048C108.73 23.048 109.578 23.3947 110.196 24.088C110.815 24.7707 111.124 25.7147 111.124 26.92V27.464H105.396C105.514 29.0853 106.372 29.896 107.972 29.896C108.42 29.896 108.858 29.8267 109.284 29.688C109.722 29.5493 110.132 29.32 110.516 29L110.996 30.12C110.644 30.44 110.191 30.6907 109.636 30.872C109.082 31.0533 108.522 31.144 107.956 31.144ZM107.716 24.184C107.044 24.184 106.511 24.392 106.116 24.808C105.722 25.224 105.482 25.7787 105.396 26.472H109.764C109.732 25.7467 109.54 25.1867 109.188 24.792C108.836 24.3867 108.346 24.184 107.716 24.184ZM112.886 31V23.192H114.454V24.584C114.859 23.656 115.702 23.1387 116.982 23.032L117.51 23L117.622 24.376L116.646 24.472C115.227 24.6107 114.518 25.3413 114.518 26.664V31H112.886ZM123.65 33.88V19.72H127.09V20.968H125.266V32.632H127.09V33.88H123.65ZM131.206 31.144C130.523 31.144 129.92 30.984 129.398 30.664C128.886 30.3333 128.486 29.864 128.198 29.256C127.91 28.648 127.766 27.928 127.766 27.096C127.766 26.264 127.91 25.5493 128.198 24.952C128.486 24.344 128.886 23.8747 129.398 23.544C129.91 23.2133 130.512 23.048 131.206 23.048C131.792 23.048 132.315 23.176 132.774 23.432C133.232 23.688 133.574 24.0347 133.798 24.472V19.72H135.414V31H133.83V29.64C133.606 30.1093 133.259 30.4773 132.79 30.744C132.331 31.0107 131.803 31.144 131.206 31.144ZM131.622 29.896C132.283 29.896 132.816 29.656 133.222 29.176C133.627 28.696 133.83 28.0027 133.83 27.096C133.83 26.1893 133.627 25.5013 133.222 25.032C132.816 24.552 132.283 24.312 131.622 24.312C130.95 24.312 130.411 24.552 130.006 25.032C129.6 25.5013 129.398 26.1893 129.398 27.096C129.398 28.0027 129.6 28.696 130.006 29.176C130.411 29.656 130.95 29.896 131.622 29.896ZM137.539 21.384V19.704H139.427V21.384H137.539ZM137.683 31V23.192H139.299V31H137.683ZM144.31 31.144C143.67 31.144 143.072 31.064 142.518 30.904C141.963 30.7333 141.499 30.4987 141.126 30.2L141.59 29.112C141.984 29.3893 142.416 29.6027 142.886 29.752C143.366 29.9013 143.846 29.976 144.326 29.976C144.891 29.976 145.318 29.8747 145.606 29.672C145.894 29.4693 146.038 29.1973 146.038 28.856C146.038 28.5787 145.942 28.3653 145.75 28.216C145.558 28.056 145.27 27.9333 144.886 27.848L143.366 27.544C142.022 27.2667 141.35 26.5733 141.35 25.464C141.35 24.728 141.643 24.1413 142.23 23.704C142.816 23.2667 143.584 23.048 144.534 23.048C145.078 23.048 145.595 23.128 146.086 23.288C146.587 23.448 147.003 23.688 147.334 24.008L146.87 25.096C146.55 24.8187 146.182 24.6053 145.766 24.456C145.35 24.3067 144.939 24.232 144.534 24.232C143.979 24.232 143.558 24.3387 143.27 24.552C142.982 24.7547 142.838 25.032 142.838 25.384C142.838 25.9173 143.19 26.2587 143.894 26.408L145.414 26.712C146.107 26.8507 146.63 27.0853 146.982 27.416C147.344 27.7467 147.526 28.1947 147.526 28.76C147.526 29.5067 147.232 30.0933 146.646 30.52C146.059 30.936 145.28 31.144 144.31 31.144ZM151.868 31.144C151.014 31.144 150.374 30.904 149.948 30.424C149.532 29.944 149.324 29.24 149.324 28.312V19.72H150.94V28.216C150.94 29.272 151.372 29.8 152.236 29.8C152.364 29.8 152.481 29.7947 152.588 29.784C152.705 29.7733 152.822 29.752 152.94 29.72L152.908 31.016C152.545 31.1013 152.198 31.144 151.868 31.144ZM154.07 21.384V19.704H155.958V21.384H154.07ZM154.214 31V23.192H155.83V31H154.214ZM158.105 31V19.72H159.721V26.6H159.753L163.145 23.192H165.145L161.401 26.952L165.433 31H163.417L159.753 27.432H159.721V31H158.105ZM169.847 31.144C168.567 31.144 167.559 30.7867 166.823 30.072C166.087 29.3467 165.719 28.36 165.719 27.112C165.719 26.312 165.879 25.608 166.199 25C166.53 24.3813 166.983 23.9013 167.559 23.56C168.135 23.2187 168.796 23.048 169.543 23.048C170.62 23.048 171.468 23.3947 172.087 24.088C172.706 24.7707 173.015 25.7147 173.015 26.92V27.464H167.287C167.404 29.0853 168.263 29.896 169.863 29.896C170.311 29.896 170.748 29.8267 171.175 29.688C171.612 29.5493 172.023 29.32 172.407 29L172.887 30.12C172.535 30.44 172.082 30.6907 171.527 30.872C170.972 31.0533 170.412 31.144 169.847 31.144ZM169.607 24.184C168.935 24.184 168.402 24.392 168.007 24.808C167.612 25.224 167.372 25.7787 167.287 26.472H171.655C171.623 25.7467 171.431 25.1867 171.079 24.792C170.727 24.3867 170.236 24.184 169.607 24.184ZM173.644 33.88V32.632H175.468V20.968H173.644V19.72H177.084V33.88H173.644ZM184.008 21.384V19.704H185.896V21.384H184.008ZM184.152 31V23.192H185.768V31H184.152ZM190.778 31.144C190.138 31.144 189.541 31.064 188.986 30.904C188.432 30.7333 187.968 30.4987 187.594 30.2L188.058 29.112C188.453 29.3893 188.885 29.6027 189.354 29.752C189.834 29.9013 190.314 29.976 190.794 29.976C191.36 29.976 191.786 29.8747 192.074 29.672C192.362 29.4693 192.506 29.1973 192.506 28.856C192.506 28.5787 192.41 28.3653 192.218 28.216C192.026 28.056 191.738 27.9333 191.354 27.848L189.834 27.544C188.49 27.2667 187.818 26.5733 187.818 25.464C187.818 24.728 188.112 24.1413 188.698 23.704C189.285 23.2667 190.053 23.048 191.002 23.048C191.546 23.048 192.064 23.128 192.554 23.288C193.056 23.448 193.472 23.688 193.802 24.008L193.338 25.096C193.018 24.8187 192.65 24.6053 192.234 24.456C191.818 24.3067 191.408 24.232 191.002 24.232C190.448 24.232 190.026 24.3387 189.738 24.552C189.45 24.7547 189.306 25.032 189.306 25.384C189.306 25.9173 189.658 26.2587 190.362 26.408L191.882 26.712C192.576 26.8507 193.098 27.0853 193.45 27.416C193.813 27.7467 193.994 28.1947 193.994 28.76C193.994 29.5067 193.701 30.0933 193.114 30.52C192.528 30.936 191.749 31.144 190.778 31.144ZM203.323 31.144C202.342 31.144 201.611 30.8933 201.131 30.392C200.651 29.8907 200.411 29.1653 200.411 28.216V24.44H198.891V23.192H200.411V20.84H202.027V23.192H204.443V24.44H202.027V28.088C202.027 28.6533 202.145 29.08 202.379 29.368C202.625 29.656 203.019 29.8 203.563 29.8C203.734 29.8 203.899 29.784 204.059 29.752C204.219 29.7093 204.379 29.6613 204.539 29.608L204.795 30.824C204.635 30.92 204.411 30.9947 204.123 31.048C203.846 31.112 203.579 31.144 203.323 31.144ZM205.839 31V19.72H207.455V24.408C207.722 23.96 208.079 23.624 208.527 23.4C208.986 23.1653 209.498 23.048 210.063 23.048C211.908 23.048 212.831 24.0933 212.831 26.184V31H211.215V26.28C211.215 25.608 211.082 25.1173 210.815 24.808C210.559 24.4987 210.154 24.344 209.599 24.344C208.948 24.344 208.426 24.552 208.031 24.968C207.647 25.3733 207.455 25.912 207.455 26.584V31H205.839ZM217.554 31.144C217.01 31.144 216.525 31.0373 216.098 30.824C215.671 30.6107 215.33 30.3227 215.074 29.96C214.829 29.5973 214.706 29.1867 214.706 28.728C214.706 28.152 214.85 27.6987 215.138 27.368C215.437 27.0373 215.922 26.7973 216.594 26.648C217.277 26.4987 218.194 26.424 219.346 26.424H219.89V26.008C219.89 25.4 219.762 24.9627 219.506 24.696C219.25 24.4293 218.829 24.296 218.242 24.296C217.794 24.296 217.346 24.3653 216.898 24.504C216.45 24.632 215.991 24.84 215.522 25.128L215.026 23.992C215.431 23.704 215.938 23.4747 216.546 23.304C217.154 23.1333 217.735 23.048 218.29 23.048C219.357 23.048 220.146 23.304 220.658 23.816C221.17 24.3173 221.426 25.1067 221.426 26.184V31H219.906V29.704C219.714 30.152 219.415 30.504 219.01 30.76C218.605 31.016 218.119 31.144 217.554 31.144ZM217.874 29.992C218.45 29.992 218.93 29.7893 219.314 29.384C219.698 28.9787 219.89 28.4667 219.89 27.848V27.416H219.362C218.583 27.416 217.97 27.4533 217.522 27.528C217.085 27.6027 216.77 27.7307 216.578 27.912C216.397 28.0827 216.306 28.3227 216.306 28.632C216.306 29.0373 216.445 29.368 216.722 29.624C216.999 29.8693 217.383 29.992 217.874 29.992ZM226.98 31.144C225.998 31.144 225.268 30.8933 224.788 30.392C224.308 29.8907 224.068 29.1653 224.068 28.216V24.44H222.548V23.192H224.068V20.84H225.684V23.192H228.1V24.44H225.684V28.088C225.684 28.6533 225.801 29.08 226.036 29.368C226.281 29.656 226.676 29.8 227.22 29.8C227.39 29.8 227.556 29.784 227.716 29.752C227.876 29.7093 228.036 29.6613 228.196 29.608L228.452 30.824C228.292 30.92 228.068 30.9947 227.78 31.048C227.502 31.112 227.236 31.144 226.98 31.144ZM233.699 31V23.192H235.267V24.584C235.672 23.656 236.515 23.1387 237.795 23.032L238.323 23L238.435 24.376L237.459 24.472C236.04 24.6107 235.331 25.3413 235.331 26.664V31H233.699ZM243.222 31.144C241.942 31.144 240.934 30.7867 240.198 30.072C239.462 29.3467 239.094 28.36 239.094 27.112C239.094 26.312 239.254 25.608 239.574 25C239.905 24.3813 240.358 23.9013 240.934 23.56C241.51 23.2187 242.171 23.048 242.918 23.048C243.995 23.048 244.843 23.3947 245.462 24.088C246.081 24.7707 246.39 25.7147 246.39 26.92V27.464H240.662C240.779 29.0853 241.638 29.896 243.238 29.896C243.686 29.896 244.123 29.8267 244.55 29.688C244.987 29.5493 245.398 29.32 245.782 29L246.262 30.12C245.91 30.44 245.457 30.6907 244.902 30.872C244.347 31.0533 243.787 31.144 243.222 31.144ZM242.982 24.184C242.31 24.184 241.777 24.392 241.382 24.808C240.987 25.224 240.747 25.7787 240.662 26.472H245.03C244.998 25.7467 244.806 25.1867 244.454 24.792C244.102 24.3867 243.611 24.184 242.982 24.184ZM251.592 31.144C250.792 31.144 250.098 30.9787 249.512 30.648C248.936 30.3067 248.488 29.832 248.168 29.224C247.848 28.6053 247.688 27.88 247.688 27.048C247.688 25.8107 248.04 24.8347 248.744 24.12C249.448 23.4053 250.397 23.048 251.592 23.048C252.082 23.048 252.568 23.1333 253.048 23.304C253.528 23.4747 253.922 23.7093 254.232 24.008L253.72 25.144C253.421 24.8667 253.09 24.664 252.728 24.536C252.376 24.3973 252.04 24.328 251.72 24.328C250.962 24.328 250.376 24.568 249.96 25.048C249.554 25.5173 249.352 26.1893 249.352 27.064C249.352 27.9387 249.554 28.6267 249.96 29.128C250.376 29.6187 250.962 29.864 251.72 29.864C252.04 29.864 252.376 29.8 252.728 29.672C253.09 29.5333 253.421 29.3253 253.72 29.048L254.232 30.2C253.922 30.488 253.522 30.7173 253.032 30.888C252.552 31.0587 252.072 31.144 251.592 31.144ZM255.476 21.384V19.704H257.364V21.384H255.476ZM255.62 31V23.192H257.236V31H255.62ZM259.511 33.88V23.192H261.095V24.52C261.319 24.072 261.66 23.7147 262.119 23.448C262.578 23.1813 263.106 23.048 263.703 23.048C264.396 23.048 264.999 23.2133 265.511 23.544C266.034 23.8747 266.434 24.344 266.711 24.952C266.999 25.5493 267.143 26.264 267.143 27.096C267.143 27.928 266.999 28.648 266.711 29.256C266.434 29.864 266.034 30.3333 265.511 30.664C264.999 30.984 264.396 31.144 263.703 31.144C263.127 31.144 262.61 31.0213 262.151 30.776C261.703 30.52 261.362 30.1733 261.127 29.736V33.88H259.511ZM263.303 29.896C263.975 29.896 264.508 29.656 264.903 29.176C265.308 28.696 265.511 28.0027 265.511 27.096C265.511 26.1893 265.308 25.5013 264.903 25.032C264.508 24.552 263.975 24.312 263.303 24.312C262.631 24.312 262.092 24.552 261.687 25.032C261.292 25.5013 261.095 26.1893 261.095 27.096C261.095 28.0027 261.292 28.696 261.687 29.176C262.092 29.656 262.631 29.896 263.303 29.896ZM272.628 31.144C271.348 31.144 270.34 30.7867 269.604 30.072C268.868 29.3467 268.5 28.36 268.5 27.112C268.5 26.312 268.66 25.608 268.98 25C269.311 24.3813 269.764 23.9013 270.34 23.56C270.916 23.2187 271.577 23.048 272.324 23.048C273.401 23.048 274.249 23.3947 274.868 24.088C275.487 24.7707 275.796 25.7147 275.796 26.92V27.464H270.068C270.185 29.0853 271.044 29.896 272.644 29.896C273.092 29.896 273.529 29.8267 273.956 29.688C274.393 29.5493 274.804 29.32 275.188 29L275.668 30.12C275.316 30.44 274.863 30.6907 274.308 30.872C273.753 31.0533 273.193 31.144 272.628 31.144ZM272.388 24.184C271.716 24.184 271.183 24.392 270.788 24.808C270.393 25.224 270.153 25.7787 270.068 26.472H274.436C274.404 25.7467 274.212 25.1867 273.86 24.792C273.508 24.3867 273.017 24.184 272.388 24.184ZM280.294 31.144C279.654 31.144 279.057 31.064 278.502 30.904C277.947 30.7333 277.483 30.4987 277.11 30.2L277.574 29.112C277.969 29.3893 278.401 29.6027 278.87 29.752C279.35 29.9013 279.83 29.976 280.31 29.976C280.875 29.976 281.302 29.8747 281.59 29.672C281.878 29.4693 282.022 29.1973 282.022 28.856C282.022 28.5787 281.926 28.3653 281.734 28.216C281.542 28.056 281.254 27.9333 280.87 27.848L279.35 27.544C278.006 27.2667 277.334 26.5733 277.334 25.464C277.334 24.728 277.627 24.1413 278.214 23.704C278.801 23.2667 279.569 23.048 280.518 23.048C281.062 23.048 281.579 23.128 282.07 23.288C282.571 23.448 282.987 23.688 283.318 24.008L282.854 25.096C282.534 24.8187 282.166 24.6053 281.75 24.456C281.334 24.3067 280.923 24.232 280.518 24.232C279.963 24.232 279.542 24.3387 279.254 24.552C278.966 24.7547 278.822 25.032 278.822 25.384C278.822 25.9173 279.174 26.2587 279.878 26.408L281.398 26.712C282.091 26.8507 282.614 27.0853 282.966 27.416C283.329 27.7467 283.51 28.1947 283.51 28.76C283.51 29.5067 283.217 30.0933 282.63 30.52C282.043 30.936 281.265 31.144 280.294 31.144ZM292.007 31.144C291.463 31.144 290.978 31.0373 290.551 30.824C290.124 30.6107 289.783 30.3227 289.527 29.96C289.282 29.5973 289.159 29.1867 289.159 28.728C289.159 28.152 289.303 27.6987 289.591 27.368C289.89 27.0373 290.375 26.7973 291.047 26.648C291.73 26.4987 292.647 26.424 293.799 26.424H294.343V26.008C294.343 25.4 294.215 24.9627 293.959 24.696C293.703 24.4293 293.282 24.296 292.695 24.296C292.247 24.296 291.799 24.3653 291.351 24.504C290.903 24.632 290.444 24.84 289.975 25.128L289.479 23.992C289.884 23.704 290.391 23.4747 290.999 23.304C291.607 23.1333 292.188 23.048 292.743 23.048C293.81 23.048 294.599 23.304 295.111 23.816C295.623 24.3173 295.879 25.1067 295.879 26.184V31H294.359V29.704C294.167 30.152 293.868 30.504 293.463 30.76C293.058 31.016 292.572 31.144 292.007 31.144ZM292.327 29.992C292.903 29.992 293.383 29.7893 293.767 29.384C294.151 28.9787 294.343 28.4667 294.343 27.848V27.416H293.815C293.036 27.416 292.423 27.4533 291.975 27.528C291.538 27.6027 291.223 27.7307 291.031 27.912C290.85 28.0827 290.759 28.3227 290.759 28.632C290.759 29.0373 290.898 29.368 291.175 29.624C291.452 29.8693 291.836 29.992 292.327 29.992ZM298.105 31V23.192H299.673V24.584C300.078 23.656 300.921 23.1387 302.201 23.032L302.729 23L302.841 24.376L301.865 24.472C300.446 24.6107 299.737 25.3413 299.737 26.664V31H298.105ZM307.628 31.144C306.348 31.144 305.34 30.7867 304.604 30.072C303.868 29.3467 303.5 28.36 303.5 27.112C303.5 26.312 303.66 25.608 303.98 25C304.311 24.3813 304.764 23.9013 305.34 23.56C305.916 23.2187 306.577 23.048 307.324 23.048C308.401 23.048 309.249 23.3947 309.868 24.088C310.487 24.7707 310.796 25.7147 310.796 26.92V27.464H305.068C305.185 29.0853 306.044 29.896 307.644 29.896C308.092 29.896 308.529 29.8267 308.956 29.688C309.393 29.5493 309.804 29.32 310.188 29L310.668 30.12C310.316 30.44 309.863 30.6907 309.308 30.872C308.753 31.0533 308.193 31.144 307.628 31.144ZM307.388 24.184C306.716 24.184 306.183 24.392 305.788 24.808C305.393 25.224 305.153 25.7787 305.068 26.472H309.436C309.404 25.7467 309.212 25.1867 308.86 24.792C308.508 24.3867 308.017 24.184 307.388 24.184ZM319.545 31.144C317.657 31.144 316.713 30.0933 316.713 27.992V23.192H318.329V28.008C318.329 28.6373 318.457 29.1013 318.713 29.4C318.969 29.6987 319.374 29.848 319.929 29.848C320.537 29.848 321.028 29.6453 321.401 29.24C321.785 28.8347 321.977 28.2907 321.977 27.608V23.192H323.593V31H322.025V29.752C321.769 30.2107 321.428 30.5573 321.001 30.792C320.574 31.0267 320.089 31.144 319.545 31.144ZM328.606 31.144C327.966 31.144 327.369 31.064 326.814 30.904C326.26 30.7333 325.796 30.4987 325.422 30.2L325.886 29.112C326.281 29.3893 326.713 29.6027 327.182 29.752C327.662 29.9013 328.142 29.976 328.622 29.976C329.188 29.976 329.614 29.8747 329.902 29.672C330.19 29.4693 330.334 29.1973 330.334 28.856C330.334 28.5787 330.238 28.3653 330.046 28.216C329.854 28.056 329.566 27.9333 329.182 27.848L327.662 27.544C326.318 27.2667 325.646 26.5733 325.646 25.464C325.646 24.728 325.94 24.1413 326.526 23.704C327.113 23.2667 327.881 23.048 328.83 23.048C329.374 23.048 329.892 23.128 330.382 23.288C330.884 23.448 331.3 23.688 331.63 24.008L331.166 25.096C330.846 24.8187 330.478 24.6053 330.062 24.456C329.646 24.3067 329.236 24.232 328.83 24.232C328.276 24.232 327.854 24.3387 327.566 24.552C327.278 24.7547 327.134 25.032 327.134 25.384C327.134 25.9173 327.486 26.2587 328.19 26.408L329.71 26.712C330.404 26.8507 330.926 27.0853 331.278 27.416C331.641 27.7467 331.822 28.1947 331.822 28.76C331.822 29.5067 331.529 30.0933 330.942 30.52C330.356 30.936 329.577 31.144 328.606 31.144ZM336.404 31.144C334.516 31.144 333.572 30.0933 333.572 27.992V23.192H335.188V28.008C335.188 28.6373 335.316 29.1013 335.572 29.4C335.828 29.6987 336.234 29.848 336.788 29.848C337.396 29.848 337.887 29.6453 338.26 29.24C338.644 28.8347 338.836 28.2907 338.836 27.608V23.192H340.452V31H338.884V29.752C338.628 30.2107 338.287 30.5573 337.86 30.792C337.434 31.0267 336.948 31.144 336.404 31.144ZM345.226 31.144C344.682 31.144 344.196 31.0373 343.77 30.824C343.343 30.6107 343.002 30.3227 342.746 29.96C342.5 29.5973 342.378 29.1867 342.378 28.728C342.378 28.152 342.522 27.6987 342.81 27.368C343.108 27.0373 343.594 26.7973 344.266 26.648C344.948 26.4987 345.866 26.424 347.018 26.424H347.562V26.008C347.562 25.4 347.434 24.9627 347.178 24.696C346.922 24.4293 346.5 24.296 345.914 24.296C345.466 24.296 345.018 24.3653 344.57 24.504C344.122 24.632 343.663 24.84 343.194 25.128L342.698 23.992C343.103 23.704 343.61 23.4747 344.218 23.304C344.826 23.1333 345.407 23.048 345.962 23.048C347.028 23.048 347.818 23.304 348.33 23.816C348.842 24.3173 349.098 25.1067 349.098 26.184V31H347.578V29.704C347.386 30.152 347.087 30.504 346.682 30.76C346.276 31.016 345.791 31.144 345.226 31.144ZM345.546 29.992C346.122 29.992 346.602 29.7893 346.986 29.384C347.37 28.9787 347.562 28.4667 347.562 27.848V27.416H347.034C346.255 27.416 345.642 27.4533 345.194 27.528C344.756 27.6027 344.442 27.7307 344.25 27.912C344.068 28.0827 343.978 28.3227 343.978 28.632C343.978 29.0373 344.116 29.368 344.394 29.624C344.671 29.8693 345.055 29.992 345.546 29.992ZM353.868 31.144C353.014 31.144 352.374 30.904 351.948 30.424C351.532 29.944 351.324 29.24 351.324 28.312V19.72H352.94V28.216C352.94 29.272 353.372 29.8 354.236 29.8C354.364 29.8 354.481 29.7947 354.588 29.784C354.705 29.7733 354.822 29.752 354.94 29.72L354.908 31.016C354.545 31.1013 354.198 31.144 353.868 31.144ZM358.758 31.144C357.905 31.144 357.265 30.904 356.838 30.424C356.422 29.944 356.214 29.24 356.214 28.312V19.72H357.83V28.216C357.83 29.272 358.262 29.8 359.126 29.8C359.254 29.8 359.371 29.7947 359.478 29.784C359.595 29.7733 359.713 29.752 359.83 29.72L359.798 31.016C359.435 31.1013 359.089 31.144 358.758 31.144ZM361.717 33.88L363.109 30.792L359.845 23.192H361.573L363.973 29.128L366.405 23.192H368.069L363.413 33.88H361.717ZM373.289 21.384V19.704H375.177V21.384H373.289ZM373.433 31V23.192H375.049V31H373.433ZM377.324 31V23.192H378.892V24.488C379.158 24.0187 379.521 23.6613 379.98 23.416C380.449 23.1707 380.972 23.048 381.548 23.048C383.393 23.048 384.316 24.0933 384.316 26.184V31H382.7V26.28C382.7 25.608 382.566 25.1173 382.3 24.808C382.044 24.4987 381.638 24.344 381.084 24.344C380.433 24.344 379.91 24.552 379.516 24.968C379.132 25.3733 378.94 25.912 378.94 26.584V31H377.324ZM394.073 31.144C393.092 31.144 392.361 30.8933 391.881 30.392C391.401 29.8907 391.161 29.1653 391.161 28.216V24.44H389.641V23.192H391.161V20.84H392.777V23.192H395.193V24.44H392.777V28.088C392.777 28.6533 392.895 29.08 393.129 29.368C393.375 29.656 393.769 29.8 394.313 29.8C394.484 29.8 394.649 29.784 394.809 29.752C394.969 29.7093 395.129 29.6613 395.289 29.608L395.545 30.824C395.385 30.92 395.161 30.9947 394.873 31.048C394.596 31.112 394.329 31.144 394.073 31.144ZM396.589 31V19.72H398.205V24.408C398.472 23.96 398.829 23.624 399.277 23.4C399.736 23.1653 400.248 23.048 400.813 23.048C402.658 23.048 403.581 24.0933 403.581 26.184V31H401.965V26.28C401.965 25.608 401.832 25.1173 401.565 24.808C401.309 24.4987 400.904 24.344 400.349 24.344C399.698 24.344 399.176 24.552 398.781 24.968C398.397 25.3733 398.205 25.912 398.205 26.584V31H396.589ZM409.472 31.144C408.192 31.144 407.184 30.7867 406.448 30.072C405.712 29.3467 405.344 28.36 405.344 27.112C405.344 26.312 405.504 25.608 405.824 25C406.155 24.3813 406.608 23.9013 407.184 23.56C407.76 23.2187 408.421 23.048 409.168 23.048C410.245 23.048 411.093 23.3947 411.712 24.088C412.331 24.7707 412.64 25.7147 412.64 26.92V27.464H406.912C407.029 29.0853 407.888 29.896 409.488 29.896C409.936 29.896 410.373 29.8267 410.8 29.688C411.237 29.5493 411.648 29.32 412.032 29L412.512 30.12C412.16 30.44 411.707 30.6907 411.152 30.872C410.597 31.0533 410.037 31.144 409.472 31.144ZM409.232 24.184C408.56 24.184 408.027 24.392 407.632 24.808C407.237 25.224 406.997 25.7787 406.912 26.472H411.28C411.248 25.7467 411.056 25.1867 410.704 24.792C410.352 24.3867 409.861 24.184 409.232 24.184ZM419.069 31V24.44H417.549V23.192H419.069V23.048C419.069 21.9707 419.341 21.16 419.885 20.616C420.439 20.072 421.287 19.768 422.429 19.704L423.133 19.656L423.245 20.872L422.509 20.92C421.858 20.9627 421.389 21.1387 421.101 21.448C420.823 21.7573 420.685 22.216 420.685 22.824V23.192H422.877V24.44H420.685V31H419.069ZM427.325 31.144C426.536 31.144 425.853 30.9787 425.277 30.648C424.701 30.3173 424.253 29.8533 423.933 29.256C423.624 28.648 423.469 27.928 423.469 27.096C423.469 26.264 423.624 25.5493 423.933 24.952C424.253 24.344 424.701 23.8747 425.277 23.544C425.853 23.2133 426.536 23.048 427.325 23.048C428.093 23.048 428.765 23.2133 429.341 23.544C429.917 23.8747 430.365 24.344 430.685 24.952C431.005 25.5493 431.165 26.264 431.165 27.096C431.165 27.928 431.005 28.648 430.685 29.256C430.365 29.8533 429.917 30.3173 429.341 30.648C428.765 30.9787 428.093 31.144 427.325 31.144ZM427.325 29.896C427.986 29.896 428.52 29.656 428.925 29.176C429.33 28.696 429.533 28.0027 429.533 27.096C429.533 26.1893 429.33 25.5013 428.925 25.032C428.52 24.552 427.986 24.312 427.325 24.312C426.653 24.312 426.114 24.552 425.709 25.032C425.304 25.5013 425.101 26.1893 425.101 27.096C425.101 28.0027 425.304 28.696 425.709 29.176C426.114 29.656 426.653 29.896 427.325 29.896ZM432.98 31V23.192H434.548V24.584C434.953 23.656 435.796 23.1387 437.076 23.032L437.604 23L437.716 24.376L436.74 24.472C435.321 24.6107 434.612 25.3413 434.612 26.664V31H432.98ZM438.981 31V23.192H440.549V24.456C440.783 24.008 441.109 23.6613 441.525 23.416C441.941 23.1707 442.426 23.048 442.981 23.048C444.175 23.048 444.949 23.5707 445.301 24.616C445.546 24.1253 445.898 23.7413 446.357 23.464C446.815 23.1867 447.338 23.048 447.925 23.048C449.674 23.048 450.549 24.0933 450.549 26.184V31H448.933V26.264C448.933 25.6027 448.815 25.1173 448.581 24.808C448.357 24.4987 447.983 24.344 447.461 24.344C446.874 24.344 446.41 24.552 446.069 24.968C445.727 25.3733 445.557 25.928 445.557 26.632V31H443.941V26.264C443.941 25.6027 443.829 25.1173 443.605 24.808C443.381 24.4987 443.007 24.344 442.485 24.344C441.898 24.344 441.434 24.552 441.093 24.968C440.762 25.3733 440.597 25.928 440.597 26.632V31H438.981ZM58.7702 53.144C57.9809 53.144 57.2982 52.9787 56.7222 52.648C56.1462 52.3173 55.6982 51.8533 55.3782 51.256C55.0689 50.648 54.9142 49.928 54.9142 49.096C54.9142 48.264 55.0689 47.5493 55.3782 46.952C55.6982 46.344 56.1462 45.8747 56.7222 45.544C57.2982 45.2133 57.9809 45.048 58.7702 45.048C59.5382 45.048 60.2102 45.2133 60.7862 45.544C61.3622 45.8747 61.8102 46.344 62.1302 46.952C62.4502 47.5493 62.6102 48.264 62.6102 49.096C62.6102 49.928 62.4502 50.648 62.1302 51.256C61.8102 51.8533 61.3622 52.3173 60.7862 52.648C60.2102 52.9787 59.5382 53.144 58.7702 53.144ZM58.7702 51.896C59.4315 51.896 59.9649 51.656 60.3702 51.176C60.7755 50.696 60.9782 50.0027 60.9782 49.096C60.9782 48.1893 60.7755 47.5013 60.3702 47.032C59.9649 46.552 59.4315 46.312 58.7702 46.312C58.0982 46.312 57.5595 46.552 57.1542 47.032C56.7489 47.5013 56.5462 48.1893 56.5462 49.096C56.5462 50.0027 56.7489 50.696 57.1542 51.176C57.5595 51.656 58.0982 51.896 58.7702 51.896ZM64.8109 53V46.44H63.2909V45.192H64.8109V45.048C64.8109 43.9707 65.0829 43.16 65.6269 42.616C66.1816 42.072 67.0296 41.768 68.1709 41.704L68.8749 41.656L68.9869 42.872L68.2509 42.92C67.6003 42.9627 67.1309 43.1387 66.8429 43.448C66.5656 43.7573 66.4269 44.216 66.4269 44.824V45.192H68.6189V46.44H66.4269V53H64.8109ZM76.5929 53.144C76.0489 53.144 75.5636 53.0373 75.1369 52.824C74.7103 52.6107 74.3689 52.3227 74.1129 51.96C73.8676 51.5973 73.7449 51.1867 73.7449 50.728C73.7449 50.152 73.8889 49.6987 74.1769 49.368C74.4756 49.0373 74.9609 48.7973 75.6329 48.648C76.3156 48.4987 77.2329 48.424 78.3849 48.424H78.9289V48.008C78.9289 47.4 78.8009 46.9627 78.5449 46.696C78.2889 46.4293 77.8676 46.296 77.2809 46.296C76.8329 46.296 76.3849 46.3653 75.9369 46.504C75.4889 46.632 75.0303 46.84 74.5609 47.128L74.0649 45.992C74.4703 45.704 74.9769 45.4747 75.5849 45.304C76.1929 45.1333 76.7743 45.048 77.3289 45.048C78.3956 45.048 79.1849 45.304 79.6969 45.816C80.2089 46.3173 80.4649 47.1067 80.4649 48.184V53H78.9449V51.704C78.7529 52.152 78.4543 52.504 78.0489 52.76C77.6436 53.016 77.1583 53.144 76.5929 53.144ZM76.9129 51.992C77.4889 51.992 77.9689 51.7893 78.3529 51.384C78.7369 50.9787 78.9289 50.4667 78.9289 49.848V49.416H78.4009C77.6223 49.416 77.0089 49.4533 76.5609 49.528C76.1236 49.6027 75.8089 49.7307 75.6169 49.912C75.4356 50.0827 75.3449 50.3227 75.3449 50.632C75.3449 51.0373 75.4836 51.368 75.7609 51.624C76.0383 51.8693 76.4223 51.992 76.9129 51.992ZM91.0858 53.144C90.4885 53.144 89.9605 53.0107 89.5018 52.744C89.0431 52.4773 88.7018 52.12 88.4778 51.672V53H86.8938V41.72H88.5098V46.456C88.7445 46.0293 89.0858 45.688 89.5338 45.432C89.9925 45.176 90.5098 45.048 91.0858 45.048C91.7791 45.048 92.3818 45.2133 92.8938 45.544C93.4165 45.8747 93.8165 46.344 94.0938 46.952C94.3818 47.5493 94.5258 48.264 94.5258 49.096C94.5258 49.928 94.3818 50.648 94.0938 51.256C93.8165 51.864 93.4165 52.3333 92.8938 52.664C92.3818 52.984 91.7791 53.144 91.0858 53.144ZM90.6858 51.896C91.3578 51.896 91.8911 51.656 92.2858 51.176C92.6911 50.696 92.8938 50.0027 92.8938 49.096C92.8938 48.1893 92.6911 47.5013 92.2858 47.032C91.8911 46.552 91.3578 46.312 90.6858 46.312C90.0138 46.312 89.4751 46.552 89.0698 47.032C88.6751 47.5013 88.4778 48.1893 88.4778 49.096C88.4778 50.0027 88.6751 50.696 89.0698 51.176C89.4751 51.656 90.0138 51.896 90.6858 51.896ZM98.8909 53.144C98.0376 53.144 97.3976 52.904 96.9709 52.424C96.5549 51.944 96.3469 51.24 96.3469 50.312V41.72H97.9629V50.216C97.9629 51.272 98.3949 51.8 99.2589 51.8C99.3869 51.8 99.5043 51.7947 99.6109 51.784C99.7283 51.7733 99.8456 51.752 99.9629 51.72L99.9309 53.016C99.5683 53.1013 99.2216 53.144 98.8909 53.144ZM104.551 53.144C103.762 53.144 103.079 52.9787 102.503 52.648C101.927 52.3173 101.479 51.8533 101.159 51.256C100.85 50.648 100.695 49.928 100.695 49.096C100.695 48.264 100.85 47.5493 101.159 46.952C101.479 46.344 101.927 45.8747 102.503 45.544C103.079 45.2133 103.762 45.048 104.551 45.048C105.319 45.048 105.991 45.2133 106.567 45.544C107.143 45.8747 107.591 46.344 107.911 46.952C108.231 47.5493 108.391 48.264 108.391 49.096C108.391 49.928 108.231 50.648 107.911 51.256C107.591 51.8533 107.143 52.3173 106.567 52.648C105.991 52.9787 105.319 53.144 104.551 53.144ZM104.551 51.896C105.213 51.896 105.746 51.656 106.151 51.176C106.557 50.696 106.759 50.0027 106.759 49.096C106.759 48.1893 106.557 47.5013 106.151 47.032C105.746 46.552 105.213 46.312 104.551 46.312C103.879 46.312 103.341 46.552 102.935 47.032C102.53 47.5013 102.327 48.1893 102.327 49.096C102.327 50.0027 102.53 50.696 102.935 51.176C103.341 51.656 103.879 51.896 104.551 51.896ZM113.742 56.024C113.038 56.024 112.382 55.9387 111.774 55.768C111.166 55.608 110.628 55.352 110.158 55L110.654 53.848C111.124 54.168 111.604 54.4027 112.094 54.552C112.585 54.7013 113.097 54.776 113.63 54.776C115.124 54.776 115.87 54.0293 115.87 52.536V51.304C115.646 51.7733 115.294 52.1413 114.814 52.408C114.345 52.6747 113.817 52.808 113.23 52.808C112.526 52.808 111.913 52.648 111.39 52.328C110.868 51.9973 110.462 51.544 110.174 50.968C109.886 50.3813 109.742 49.6987 109.742 48.92C109.742 48.152 109.886 47.48 110.174 46.904C110.462 46.3173 110.868 45.864 111.39 45.544C111.913 45.2133 112.526 45.048 113.23 45.048C113.828 45.048 114.361 45.1813 114.83 45.448C115.3 45.7147 115.646 46.0827 115.87 46.552V45.192H117.438V52.344C117.438 53.5707 117.124 54.488 116.494 55.096C115.865 55.7147 114.948 56.024 113.742 56.024ZM113.614 51.544C114.297 51.544 114.841 51.3093 115.246 50.84C115.652 50.3707 115.854 49.7307 115.854 48.92C115.854 48.1093 115.652 47.4747 115.246 47.016C114.841 46.5467 114.297 46.312 113.614 46.312C112.932 46.312 112.388 46.5467 111.982 47.016C111.577 47.4747 111.374 48.1093 111.374 48.92C111.374 49.7307 111.577 50.3707 111.982 50.84C112.388 51.3093 112.932 51.544 113.614 51.544ZM120.33 54.968L119.626 54.424C119.872 54.1573 120.053 53.912 120.17 53.688C120.288 53.464 120.362 53.2347 120.394 53H119.514V51.096H121.418V52.392C121.418 52.8827 121.338 53.3307 121.178 53.736C121.018 54.152 120.736 54.5627 120.33 54.968ZM129.818 53L126.842 45.192H128.506L130.602 51.112L132.762 45.192H134.01L136.138 51.144L138.266 45.192H139.85L136.874 53H135.402L133.338 47.416L131.29 53H129.818ZM141.238 53V41.72H142.854V46.408C143.12 45.96 143.478 45.624 143.926 45.4C144.384 45.1653 144.896 45.048 145.462 45.048C147.307 45.048 148.23 46.0933 148.23 48.184V53H146.614V48.28C146.614 47.608 146.48 47.1173 146.214 46.808C145.958 46.4987 145.552 46.344 144.998 46.344C144.347 46.344 143.824 46.552 143.43 46.968C143.046 47.3733 142.854 47.912 142.854 48.584V53H141.238ZM150.312 43.384V41.704H152.2V43.384H150.312ZM150.456 53V45.192H152.072V53H150.456ZM157.787 53.144C156.987 53.144 156.294 52.9787 155.707 52.648C155.131 52.3067 154.683 51.832 154.363 51.224C154.043 50.6053 153.883 49.88 153.883 49.048C153.883 47.8107 154.235 46.8347 154.939 46.12C155.643 45.4053 156.592 45.048 157.787 45.048C158.278 45.048 158.763 45.1333 159.243 45.304C159.723 45.4747 160.118 45.7093 160.427 46.008L159.915 47.144C159.616 46.8667 159.286 46.664 158.923 46.536C158.571 46.3973 158.235 46.328 157.915 46.328C157.158 46.328 156.571 46.568 156.155 47.048C155.75 47.5173 155.547 48.1893 155.547 49.064C155.547 49.9387 155.75 50.6267 156.155 51.128C156.571 51.6187 157.158 51.864 157.915 51.864C158.235 51.864 158.571 51.8 158.923 51.672C159.286 51.5333 159.616 51.3253 159.915 51.048L160.427 52.2C160.118 52.488 159.718 52.7173 159.227 52.888C158.747 53.0587 158.267 53.144 157.787 53.144ZM161.816 53V41.72H163.432V46.408C163.698 45.96 164.056 45.624 164.504 45.4C164.962 45.1653 165.474 45.048 166.04 45.048C167.885 45.048 168.808 46.0933 168.808 48.184V53H167.192V48.28C167.192 47.608 167.058 47.1173 166.792 46.808C166.536 46.4987 166.13 46.344 165.576 46.344C164.925 46.344 164.402 46.552 164.008 46.968C163.624 47.3733 163.432 47.912 163.432 48.584V53H161.816ZM178.678 53.144C177.878 53.144 177.184 52.9787 176.598 52.648C176.022 52.3067 175.574 51.832 175.254 51.224C174.934 50.6053 174.774 49.88 174.774 49.048C174.774 47.8107 175.126 46.8347 175.83 46.12C176.534 45.4053 177.483 45.048 178.678 45.048C179.168 45.048 179.654 45.1333 180.134 45.304C180.614 45.4747 181.008 45.7093 181.318 46.008L180.806 47.144C180.507 46.8667 180.176 46.664 179.814 46.536C179.462 46.3973 179.126 46.328 178.806 46.328C178.048 46.328 177.462 46.568 177.046 47.048C176.64 47.5173 176.438 48.1893 176.438 49.064C176.438 49.9387 176.64 50.6267 177.046 51.128C177.462 51.6187 178.048 51.864 178.806 51.864C179.126 51.864 179.462 51.8 179.814 51.672C180.176 51.5333 180.507 51.3253 180.806 51.048L181.318 52.2C181.008 52.488 180.608 52.7173 180.118 52.888C179.638 53.0587 179.158 53.144 178.678 53.144ZM185.942 53.144C185.153 53.144 184.47 52.9787 183.894 52.648C183.318 52.3173 182.87 51.8533 182.55 51.256C182.241 50.648 182.086 49.928 182.086 49.096C182.086 48.264 182.241 47.5493 182.55 46.952C182.87 46.344 183.318 45.8747 183.894 45.544C184.47 45.2133 185.153 45.048 185.942 45.048C186.71 45.048 187.382 45.2133 187.958 45.544C188.534 45.8747 188.982 46.344 189.302 46.952C189.622 47.5493 189.782 48.264 189.782 49.096C189.782 49.928 189.622 50.648 189.302 51.256C188.982 51.8533 188.534 52.3173 187.958 52.648C187.382 52.9787 186.71 53.144 185.942 53.144ZM185.942 51.896C186.603 51.896 187.137 51.656 187.542 51.176C187.947 50.696 188.15 50.0027 188.15 49.096C188.15 48.1893 187.947 47.5013 187.542 47.032C187.137 46.552 186.603 46.312 185.942 46.312C185.27 46.312 184.731 46.552 184.326 47.032C183.921 47.5013 183.718 48.1893 183.718 49.096C183.718 50.0027 183.921 50.696 184.326 51.176C184.731 51.656 185.27 51.896 185.942 51.896ZM191.597 53V45.192H193.165V46.488C193.432 46.0187 193.794 45.6613 194.253 45.416C194.722 45.1707 195.245 45.048 195.821 45.048C197.666 45.048 198.589 46.0933 198.589 48.184V53H196.973V48.28C196.973 47.608 196.84 47.1173 196.573 46.808C196.317 46.4987 195.912 46.344 195.357 46.344C194.706 46.344 194.184 46.552 193.789 46.968C193.405 47.3733 193.213 47.912 193.213 48.584V53H191.597ZM204.144 53.144C203.162 53.144 202.432 52.8933 201.952 52.392C201.472 51.8907 201.232 51.1653 201.232 50.216V46.44H199.712V45.192H201.232V42.84H202.848V45.192H205.264V46.44H202.848V50.088C202.848 50.6533 202.965 51.08 203.2 51.368C203.445 51.656 203.84 51.8 204.384 51.8C204.554 51.8 204.72 51.784 204.88 51.752C205.04 51.7093 205.2 51.6613 205.36 51.608L205.616 52.824C205.456 52.92 205.232 52.9947 204.944 53.048C204.666 53.112 204.4 53.144 204.144 53.144ZM209.155 53.144C208.611 53.144 208.126 53.0373 207.699 52.824C207.273 52.6107 206.931 52.3227 206.675 51.96C206.43 51.5973 206.307 51.1867 206.307 50.728C206.307 50.152 206.451 49.6987 206.739 49.368C207.038 49.0373 207.523 48.7973 208.195 48.648C208.878 48.4987 209.795 48.424 210.947 48.424H211.491V48.008C211.491 47.4 211.363 46.9627 211.107 46.696C210.851 46.4293 210.43 46.296 209.843 46.296C209.395 46.296 208.947 46.3653 208.499 46.504C208.051 46.632 207.593 46.84 207.123 47.128L206.627 45.992C207.033 45.704 207.539 45.4747 208.147 45.304C208.755 45.1333 209.337 45.048 209.891 45.048C210.958 45.048 211.747 45.304 212.259 45.816C212.771 46.3173 213.027 47.1067 213.027 48.184V53H211.507V51.704C211.315 52.152 211.017 52.504 210.611 52.76C210.206 53.016 209.721 53.144 209.155 53.144ZM209.475 51.992C210.051 51.992 210.531 51.7893 210.915 51.384C211.299 50.9787 211.491 50.4667 211.491 49.848V49.416H210.963C210.185 49.416 209.571 49.4533 209.123 49.528C208.686 49.6027 208.371 49.7307 208.179 49.912C207.998 50.0827 207.907 50.3227 207.907 50.632C207.907 51.0373 208.046 51.368 208.323 51.624C208.601 51.8693 208.985 51.992 209.475 51.992ZM215.109 43.384V41.704H216.997V43.384H215.109ZM215.253 53V45.192H216.869V53H215.253ZM219.144 53V45.192H220.712V46.488C220.978 46.0187 221.341 45.6613 221.8 45.416C222.269 45.1707 222.792 45.048 223.368 45.048C225.213 45.048 226.136 46.0933 226.136 48.184V53H224.52V48.28C224.52 47.608 224.386 47.1173 224.12 46.808C223.864 46.4987 223.458 46.344 222.904 46.344C222.253 46.344 221.73 46.552 221.336 46.968C220.952 47.3733 220.76 47.912 220.76 48.584V53H219.144ZM231.099 53.144C230.459 53.144 229.861 53.064 229.307 52.904C228.752 52.7333 228.288 52.4987 227.915 52.2L228.379 51.112C228.773 51.3893 229.205 51.6027 229.675 51.752C230.155 51.9013 230.635 51.976 231.115 51.976C231.68 51.976 232.107 51.8747 232.395 51.672C232.683 51.4693 232.827 51.1973 232.827 50.856C232.827 50.5787 232.731 50.3653 232.539 50.216C232.347 50.056 232.059 49.9333 231.675 49.848L230.155 49.544C228.811 49.2667 228.139 48.5733 228.139 47.464C228.139 46.728 228.432 46.1413 229.019 45.704C229.605 45.2667 230.373 45.048 231.323 45.048C231.867 45.048 232.384 45.128 232.875 45.288C233.376 45.448 233.792 45.688 234.123 46.008L233.659 47.096C233.339 46.8187 232.971 46.6053 232.555 46.456C232.139 46.3067 231.728 46.232 231.323 46.232C230.768 46.232 230.347 46.3387 230.059 46.552C229.771 46.7547 229.627 47.032 229.627 47.384C229.627 47.9173 229.979 48.2587 230.683 48.408L232.203 48.712C232.896 48.8507 233.419 49.0853 233.771 49.416C234.133 49.7467 234.315 50.1947 234.315 50.76C234.315 51.5067 234.021 52.0933 233.435 52.52C232.848 52.936 232.069 53.144 231.099 53.144ZM242.428 53L239.452 45.192H241.116L243.212 51.112L245.372 45.192H246.62L248.748 51.144L250.876 45.192H252.46L249.484 53H248.012L245.948 47.416L243.9 53H242.428ZM256.187 53.144C255.643 53.144 255.157 53.0373 254.731 52.824C254.304 52.6107 253.963 52.3227 253.707 51.96C253.461 51.5973 253.339 51.1867 253.339 50.728C253.339 50.152 253.483 49.6987 253.771 49.368C254.069 49.0373 254.555 48.7973 255.227 48.648C255.909 48.4987 256.827 48.424 257.979 48.424H258.523V48.008C258.523 47.4 258.395 46.9627 258.139 46.696C257.883 46.4293 257.461 46.296 256.875 46.296C256.427 46.296 255.979 46.3653 255.531 46.504C255.083 46.632 254.624 46.84 254.155 47.128L253.659 45.992C254.064 45.704 254.571 45.4747 255.179 45.304C255.787 45.1333 256.368 45.048 256.923 45.048C257.989 45.048 258.779 45.304 259.291 45.816C259.803 46.3173 260.059 47.1067 260.059 48.184V53H258.539V51.704C258.347 52.152 258.048 52.504 257.643 52.76C257.237 53.016 256.752 53.144 256.187 53.144ZM256.507 51.992C257.083 51.992 257.563 51.7893 257.947 51.384C258.331 50.9787 258.523 50.4667 258.523 49.848V49.416H257.995C257.216 49.416 256.603 49.4533 256.155 49.528C255.717 49.6027 255.403 49.7307 255.211 49.912C255.029 50.0827 254.939 50.3227 254.939 50.632C254.939 51.0373 255.077 51.368 255.355 51.624C255.632 51.8693 256.016 51.992 256.507 51.992ZM263.006 55.88L264.398 52.792L261.134 45.192H262.862L265.262 51.128L267.694 45.192H269.358L264.702 55.88H263.006ZM278.05 53.144C277.069 53.144 276.338 52.8933 275.858 52.392C275.378 51.8907 275.138 51.1653 275.138 50.216V46.44H273.618V45.192H275.138V42.84H276.754V45.192H279.17V46.44H276.754V50.088C276.754 50.6533 276.871 51.08 277.106 51.368C277.351 51.656 277.746 51.8 278.29 51.8C278.461 51.8 278.626 51.784 278.786 51.752C278.946 51.7093 279.106 51.6613 279.266 51.608L279.522 52.824C279.362 52.92 279.138 52.9947 278.85 53.048C278.573 53.112 278.306 53.144 278.05 53.144ZM283.88 53.144C283.09 53.144 282.408 52.9787 281.832 52.648C281.256 52.3173 280.808 51.8533 280.488 51.256C280.178 50.648 280.024 49.928 280.024 49.096C280.024 48.264 280.178 47.5493 280.488 46.952C280.808 46.344 281.256 45.8747 281.832 45.544C282.408 45.2133 283.09 45.048 283.88 45.048C284.648 45.048 285.32 45.2133 285.896 45.544C286.472 45.8747 286.92 46.344 287.24 46.952C287.56 47.5493 287.72 48.264 287.72 49.096C287.72 49.928 287.56 50.648 287.24 51.256C286.92 51.8533 286.472 52.3173 285.896 52.648C285.32 52.9787 284.648 53.144 283.88 53.144ZM283.88 51.896C284.541 51.896 285.074 51.656 285.48 51.176C285.885 50.696 286.088 50.0027 286.088 49.096C286.088 48.1893 285.885 47.5013 285.48 47.032C285.074 46.552 284.541 46.312 283.88 46.312C283.208 46.312 282.669 46.552 282.264 47.032C281.858 47.5013 281.656 48.1893 281.656 49.096C281.656 50.0027 281.858 50.696 282.264 51.176C282.669 51.656 283.208 51.896 283.88 51.896ZM292.926 53.144C292.137 53.144 291.454 52.9787 290.878 52.648C290.302 52.3173 289.854 51.8533 289.534 51.256C289.225 50.648 289.07 49.928 289.07 49.096C289.07 48.264 289.225 47.5493 289.534 46.952C289.854 46.344 290.302 45.8747 290.878 45.544C291.454 45.2133 292.137 45.048 292.926 45.048C293.694 45.048 294.366 45.2133 294.942 45.544C295.518 45.8747 295.966 46.344 296.286 46.952C296.606 47.5493 296.766 48.264 296.766 49.096C296.766 49.928 296.606 50.648 296.286 51.256C295.966 51.8533 295.518 52.3173 294.942 52.648C294.366 52.9787 293.694 53.144 292.926 53.144ZM292.926 51.896C293.588 51.896 294.121 51.656 294.526 51.176C294.932 50.696 295.134 50.0027 295.134 49.096C295.134 48.1893 294.932 47.5013 294.526 47.032C294.121 46.552 293.588 46.312 292.926 46.312C292.254 46.312 291.716 46.552 291.31 47.032C290.905 47.5013 290.702 48.1893 290.702 49.096C290.702 50.0027 290.905 50.696 291.31 51.176C291.716 51.656 292.254 51.896 292.926 51.896ZM302.816 53V45.192H304.384V46.456C304.619 46.008 304.944 45.6613 305.36 45.416C305.776 45.1707 306.262 45.048 306.816 45.048C308.011 45.048 308.784 45.5707 309.136 46.616C309.382 46.1253 309.734 45.7413 310.192 45.464C310.651 45.1867 311.174 45.048 311.76 45.048C313.51 45.048 314.384 46.0933 314.384 48.184V53H312.768V48.264C312.768 47.6027 312.651 47.1173 312.416 46.808C312.192 46.4987 311.819 46.344 311.296 46.344C310.71 46.344 310.246 46.552 309.904 46.968C309.563 47.3733 309.392 47.928 309.392 48.632V53H307.776V48.264C307.776 47.6027 307.664 47.1173 307.44 46.808C307.216 46.4987 306.843 46.344 306.32 46.344C305.734 46.344 305.27 46.552 304.928 46.968C304.598 47.3733 304.432 47.928 304.432 48.632V53H302.816ZM319.14 53.144C318.596 53.144 318.11 53.0373 317.684 52.824C317.257 52.6107 316.916 52.3227 316.66 51.96C316.414 51.5973 316.292 51.1867 316.292 50.728C316.292 50.152 316.436 49.6987 316.724 49.368C317.022 49.0373 317.508 48.7973 318.18 48.648C318.862 48.4987 319.78 48.424 320.932 48.424H321.476V48.008C321.476 47.4 321.348 46.9627 321.092 46.696C320.836 46.4293 320.414 46.296 319.828 46.296C319.38 46.296 318.932 46.3653 318.484 46.504C318.036 46.632 317.577 46.84 317.108 47.128L316.612 45.992C317.017 45.704 317.524 45.4747 318.132 45.304C318.74 45.1333 319.321 45.048 319.876 45.048C320.942 45.048 321.732 45.304 322.244 45.816C322.756 46.3173 323.012 47.1067 323.012 48.184V53H321.492V51.704C321.3 52.152 321.001 52.504 320.596 52.76C320.19 53.016 319.705 53.144 319.14 53.144ZM319.46 51.992C320.036 51.992 320.516 51.7893 320.9 51.384C321.284 50.9787 321.476 50.4667 321.476 49.848V49.416H320.948C320.169 49.416 319.556 49.4533 319.108 49.528C318.67 49.6027 318.356 49.7307 318.164 49.912C317.982 50.0827 317.892 50.3227 317.892 50.632C317.892 51.0373 318.03 51.368 318.308 51.624C318.585 51.8693 318.969 51.992 319.46 51.992ZM325.238 53V45.192H326.806V46.488C327.072 46.0187 327.435 45.6613 327.894 45.416C328.363 45.1707 328.886 45.048 329.462 45.048C331.307 45.048 332.23 46.0933 332.23 48.184V53H330.614V48.28C330.614 47.608 330.48 47.1173 330.214 46.808C329.958 46.4987 329.552 46.344 328.998 46.344C328.347 46.344 327.824 46.552 327.43 46.968C327.046 47.3733 326.854 47.912 326.854 48.584V53H325.238ZM335.178 55.88L336.57 52.792L333.306 45.192H335.034L337.434 51.128L339.866 45.192H341.53L336.874 55.88H335.178ZM349.006 53L346.03 45.192H347.694L349.79 51.112L351.95 45.192H353.198L355.326 51.144L357.454 45.192H359.038L356.062 53H354.59L352.526 47.416L350.478 53H349.006ZM363.676 53.144C362.887 53.144 362.204 52.9787 361.628 52.648C361.052 52.3173 360.604 51.8533 360.284 51.256C359.975 50.648 359.82 49.928 359.82 49.096C359.82 48.264 359.975 47.5493 360.284 46.952C360.604 46.344 361.052 45.8747 361.628 45.544C362.204 45.2133 362.887 45.048 363.676 45.048C364.444 45.048 365.116 45.2133 365.692 45.544C366.268 45.8747 366.716 46.344 367.036 46.952C367.356 47.5493 367.516 48.264 367.516 49.096C367.516 49.928 367.356 50.648 367.036 51.256C366.716 51.8533 366.268 52.3173 365.692 52.648C365.116 52.9787 364.444 53.144 363.676 53.144ZM363.676 51.896C364.338 51.896 364.871 51.656 365.276 51.176C365.682 50.696 365.884 50.0027 365.884 49.096C365.884 48.1893 365.682 47.5013 365.276 47.032C364.871 46.552 364.338 46.312 363.676 46.312C363.004 46.312 362.466 46.552 362.06 47.032C361.655 47.5013 361.452 48.1893 361.452 49.096C361.452 50.0027 361.655 50.696 362.06 51.176C362.466 51.656 363.004 51.896 363.676 51.896ZM369.331 53V45.192H370.899V46.584C371.305 45.656 372.147 45.1387 373.427 45.032L373.955 45L374.067 46.376L373.091 46.472C371.673 46.6107 370.963 47.3413 370.963 48.664V53H369.331ZM378.167 53.144C377.484 53.144 376.881 52.984 376.359 52.664C375.847 52.3333 375.447 51.864 375.159 51.256C374.871 50.648 374.727 49.928 374.727 49.096C374.727 48.264 374.871 47.5493 375.159 46.952C375.447 46.344 375.847 45.8747 376.359 45.544C376.871 45.2133 377.473 45.048 378.167 45.048C378.753 45.048 379.276 45.176 379.735 45.432C380.193 45.688 380.535 46.0347 380.759 46.472V41.72H382.375V53H380.791V51.64C380.567 52.1093 380.22 52.4773 379.751 52.744C379.292 53.0107 378.764 53.144 378.167 53.144ZM378.583 51.896C379.244 51.896 379.777 51.656 380.183 51.176C380.588 50.696 380.791 50.0027 380.791 49.096C380.791 48.1893 380.588 47.5013 380.183 47.032C379.777 46.552 379.244 46.312 378.583 46.312C377.911 46.312 377.372 46.552 376.967 47.032C376.561 47.5013 376.359 48.1893 376.359 49.096C376.359 50.0027 376.561 50.696 376.967 51.176C377.372 51.656 377.911 51.896 378.583 51.896ZM387.38 53.144C386.74 53.144 386.142 53.064 385.588 52.904C385.033 52.7333 384.569 52.4987 384.196 52.2L384.66 51.112C385.054 51.3893 385.486 51.6027 385.956 51.752C386.436 51.9013 386.916 51.976 387.396 51.976C387.961 51.976 388.388 51.8747 388.676 51.672C388.964 51.4693 389.108 51.1973 389.108 50.856C389.108 50.5787 389.012 50.3653 388.82 50.216C388.628 50.056 388.34 49.9333 387.956 49.848L386.436 49.544C385.092 49.2667 384.42 48.5733 384.42 47.464C384.42 46.728 384.713 46.1413 385.3 45.704C385.886 45.2667 386.654 45.048 387.604 45.048C388.148 45.048 388.665 45.128 389.156 45.288C389.657 45.448 390.073 45.688 390.404 46.008L389.94 47.096C389.62 46.8187 389.252 46.6053 388.836 46.456C388.42 46.3067 388.009 46.232 387.604 46.232C387.049 46.232 386.628 46.3387 386.34 46.552C386.052 46.7547 385.908 47.032 385.908 47.384C385.908 47.9173 386.26 48.2587 386.964 48.408L388.484 48.712C389.177 48.8507 389.7 49.0853 390.052 49.416C390.414 49.7467 390.596 50.1947 390.596 50.76C390.596 51.5067 390.302 52.0933 389.716 52.52C389.129 52.936 388.35 53.144 387.38 53.144ZM392.124 53V51.096H394.028V53H392.124ZM400.492 53V41.72H402.156V53H400.492ZM411.76 53.144C411.078 53.144 410.475 52.984 409.952 52.664C409.44 52.3333 409.04 51.864 408.752 51.256C408.464 50.648 408.32 49.928 408.32 49.096C408.32 48.264 408.464 47.5493 408.752 46.952C409.04 46.344 409.44 45.8747 409.952 45.544C410.464 45.2133 411.067 45.048 411.76 45.048C412.347 45.048 412.87 45.176 413.328 45.432C413.787 45.688 414.128 46.0347 414.352 46.472V41.72H415.968V53H414.384V51.64C414.16 52.1093 413.814 52.4773 413.344 52.744C412.886 53.0107 412.358 53.144 411.76 53.144ZM412.176 51.896C412.838 51.896 413.371 51.656 413.776 51.176C414.182 50.696 414.384 50.0027 414.384 49.096C414.384 48.1893 414.182 47.5013 413.776 47.032C413.371 46.552 412.838 46.312 412.176 46.312C411.504 46.312 410.966 46.552 410.56 47.032C410.155 47.5013 409.952 48.1893 409.952 49.096C409.952 50.0027 410.155 50.696 410.56 51.176C410.966 51.656 411.504 51.896 412.176 51.896ZM421.63 53.144C420.84 53.144 420.158 52.9787 419.582 52.648C419.006 52.3173 418.558 51.8533 418.238 51.256C417.928 50.648 417.774 49.928 417.774 49.096C417.774 48.264 417.928 47.5493 418.238 46.952C418.558 46.344 419.006 45.8747 419.582 45.544C420.158 45.2133 420.84 45.048 421.63 45.048C422.398 45.048 423.07 45.2133 423.646 45.544C424.222 45.8747 424.67 46.344 424.99 46.952C425.31 47.5493 425.47 48.264 425.47 49.096C425.47 49.928 425.31 50.648 424.99 51.256C424.67 51.8533 424.222 52.3173 423.646 52.648C423.07 52.9787 422.398 53.144 421.63 53.144ZM421.63 51.896C422.291 51.896 422.824 51.656 423.23 51.176C423.635 50.696 423.838 50.0027 423.838 49.096C423.838 48.1893 423.635 47.5013 423.23 47.032C422.824 46.552 422.291 46.312 421.63 46.312C420.958 46.312 420.419 46.552 420.014 47.032C419.608 47.5013 419.406 48.1893 419.406 49.096C419.406 50.0027 419.608 50.696 420.014 51.176C420.419 51.656 420.958 51.896 421.63 51.896ZM427.284 53V45.192H428.852V46.488C429.119 46.0187 429.482 45.6613 429.94 45.416C430.41 45.1707 430.932 45.048 431.508 45.048C433.354 45.048 434.276 46.0933 434.276 48.184V53H432.66V48.28C432.66 47.608 432.527 47.1173 432.26 46.808C432.004 46.4987 431.599 46.344 431.044 46.344C430.394 46.344 429.871 46.552 429.476 46.968C429.092 47.3733 428.9 47.912 428.9 48.584V53H427.284ZM436.83 45.592L436.126 45.048C436.372 44.7813 436.553 44.536 436.67 44.312C436.788 44.088 436.868 43.8587 436.91 43.624H436.014V41.72H437.934V43.016C437.934 43.496 437.854 43.944 437.694 44.36C437.534 44.776 437.246 45.1867 436.83 45.592ZM443.378 53.144C442.397 53.144 441.666 52.8933 441.186 52.392C440.706 51.8907 440.466 51.1653 440.466 50.216V46.44H438.946V45.192H440.466V42.84H442.082V45.192H444.498V46.44H442.082V50.088C442.082 50.6533 442.199 51.08 442.434 51.368C442.679 51.656 443.074 51.8 443.618 51.8C443.789 51.8 443.954 51.784 444.114 51.752C444.274 51.7093 444.434 51.6613 444.594 51.608L444.85 52.824C444.69 52.92 444.466 52.9947 444.178 53.048C443.901 53.112 443.634 53.144 443.378 53.144ZM58.9511 75L55.9751 67.192H57.6391L59.7351 73.112L61.8951 67.192H63.1431L65.2711 73.144L67.3991 67.192H68.9831L66.0071 75H64.5351L62.4711 69.416L60.4231 75H58.9511ZM72.7101 75.144C72.1661 75.144 71.6808 75.0373 71.2541 74.824C70.8275 74.6107 70.4861 74.3227 70.2301 73.96C69.9848 73.5973 69.8621 73.1867 69.8621 72.728C69.8621 72.152 70.0061 71.6987 70.2941 71.368C70.5928 71.0373 71.0781 70.7973 71.7501 70.648C72.4328 70.4987 73.3501 70.424 74.5021 70.424H75.0461V70.008C75.0461 69.4 74.9181 68.9627 74.6621 68.696C74.4061 68.4293 73.9848 68.296 73.3981 68.296C72.9501 68.296 72.5021 68.3653 72.0541 68.504C71.6061 68.632 71.1475 68.84 70.6781 69.128L70.1821 67.992C70.5875 67.704 71.0941 67.4747 71.7021 67.304C72.3101 67.1333 72.8915 67.048 73.4461 67.048C74.5128 67.048 75.3021 67.304 75.8141 67.816C76.3261 68.3173 76.5821 69.1067 76.5821 70.184V75H75.0621V73.704C74.8701 74.152 74.5715 74.504 74.1661 74.76C73.7608 75.016 73.2755 75.144 72.7101 75.144ZM73.0301 73.992C73.6061 73.992 74.0861 73.7893 74.4701 73.384C74.8541 72.9787 75.0461 72.4667 75.0461 71.848V71.416H74.5181C73.7395 71.416 73.1261 71.4533 72.6781 71.528C72.2408 71.6027 71.9261 71.7307 71.7341 71.912C71.5528 72.0827 71.4621 72.3227 71.4621 72.632C71.4621 73.0373 71.6008 73.368 71.8781 73.624C72.1555 73.8693 72.5395 73.992 73.0301 73.992ZM78.8079 75V67.192H80.3759V68.488C80.6425 68.0187 81.0052 67.6613 81.4639 67.416C81.9332 67.1707 82.4559 67.048 83.0319 67.048C84.8772 67.048 85.7999 68.0933 85.7999 70.184V75H84.1839V70.28C84.1839 69.608 84.0505 69.1173 83.7839 68.808C83.5279 68.4987 83.1225 68.344 82.5679 68.344C81.9172 68.344 81.3945 68.552 80.9999 68.968C80.6159 69.3733 80.4239 69.912 80.4239 70.584V75H78.8079ZM91.3546 75.144C90.3733 75.144 89.6426 74.8933 89.1626 74.392C88.6826 73.8907 88.4426 73.1653 88.4426 72.216V68.44H86.9226V67.192H88.4426V64.84H90.0586V67.192H92.4746V68.44H90.0586V72.088C90.0586 72.6533 90.176 73.08 90.4106 73.368C90.656 73.656 91.0506 73.8 91.5946 73.8C91.7653 73.8 91.9306 73.784 92.0906 73.752C92.2506 73.7093 92.4106 73.6613 92.5706 73.608L92.8266 74.824C92.6666 74.92 92.4426 74.9947 92.1546 75.048C91.8773 75.112 91.6106 75.144 91.3546 75.144ZM101.402 75.144C100.42 75.144 99.6895 74.8933 99.2095 74.392C98.7295 73.8907 98.4895 73.1653 98.4895 72.216V68.44H96.9695V67.192H98.4895V64.84H100.106V67.192H102.522V68.44H100.106V72.088C100.106 72.6533 100.223 73.08 100.458 73.368C100.703 73.656 101.098 73.8 101.641 73.8C101.812 73.8 101.978 73.784 102.138 73.752C102.298 73.7093 102.458 73.6613 102.618 73.608L102.874 74.824C102.714 74.92 102.49 74.9947 102.202 75.048C101.924 75.112 101.658 75.144 101.402 75.144ZM107.231 75.144C106.442 75.144 105.759 74.9787 105.183 74.648C104.607 74.3173 104.159 73.8533 103.839 73.256C103.53 72.648 103.375 71.928 103.375 71.096C103.375 70.264 103.53 69.5493 103.839 68.952C104.159 68.344 104.607 67.8747 105.183 67.544C105.759 67.2133 106.442 67.048 107.231 67.048C107.999 67.048 108.671 67.2133 109.247 67.544C109.823 67.8747 110.271 68.344 110.591 68.952C110.911 69.5493 111.071 70.264 111.071 71.096C111.071 71.928 110.911 72.648 110.591 73.256C110.271 73.8533 109.823 74.3173 109.247 74.648C108.671 74.9787 107.999 75.144 107.231 75.144ZM107.231 73.896C107.892 73.896 108.426 73.656 108.831 73.176C109.236 72.696 109.439 72.0027 109.439 71.096C109.439 70.1893 109.236 69.5013 108.831 69.032C108.426 68.552 107.892 68.312 107.231 68.312C106.559 68.312 106.02 68.552 105.615 69.032C105.21 69.5013 105.007 70.1893 105.007 71.096C105.007 72.0027 105.21 72.696 105.615 73.176C106.02 73.656 106.559 73.896 107.231 73.896ZM117.089 75V67.192H118.657V68.584C119.062 67.656 119.905 67.1387 121.185 67.032L121.713 67L121.825 68.376L120.849 68.472C119.43 68.6107 118.721 69.3413 118.721 70.664V75H117.089ZM126.613 75.144C125.333 75.144 124.325 74.7867 123.589 74.072C122.853 73.3467 122.485 72.36 122.485 71.112C122.485 70.312 122.645 69.608 122.965 69C123.295 68.3813 123.749 67.9013 124.325 67.56C124.901 67.2187 125.562 67.048 126.309 67.048C127.386 67.048 128.234 67.3947 128.853 68.088C129.471 68.7707 129.781 69.7147 129.781 70.92V71.464H124.053C124.17 73.0853 125.029 73.896 126.629 73.896C127.077 73.896 127.514 73.8267 127.941 73.688C128.378 73.5493 128.789 73.32 129.173 73L129.653 74.12C129.301 74.44 128.847 74.6907 128.293 74.872C127.738 75.0533 127.178 75.144 126.613 75.144ZM126.373 68.184C125.701 68.184 125.167 68.392 124.773 68.808C124.378 69.224 124.138 69.7787 124.053 70.472H128.421C128.389 69.7467 128.197 69.1867 127.845 68.792C127.493 68.3867 127.002 68.184 126.373 68.184ZM134.038 75.144C133.494 75.144 133.009 75.0373 132.582 74.824C132.156 74.6107 131.814 74.3227 131.558 73.96C131.313 73.5973 131.19 73.1867 131.19 72.728C131.19 72.152 131.334 71.6987 131.622 71.368C131.921 71.0373 132.406 70.7973 133.078 70.648C133.761 70.4987 134.678 70.424 135.83 70.424H136.374V70.008C136.374 69.4 136.246 68.9627 135.99 68.696C135.734 68.4293 135.313 68.296 134.726 68.296C134.278 68.296 133.83 68.3653 133.382 68.504C132.934 68.632 132.476 68.84 132.006 69.128L131.51 67.992C131.916 67.704 132.422 67.4747 133.03 67.304C133.638 67.1333 134.22 67.048 134.774 67.048C135.841 67.048 136.63 67.304 137.142 67.816C137.654 68.3173 137.91 69.1067 137.91 70.184V75H136.39V73.704C136.198 74.152 135.9 74.504 135.494 74.76C135.089 75.016 134.604 75.144 134.038 75.144ZM134.358 73.992C134.934 73.992 135.414 73.7893 135.798 73.384C136.182 72.9787 136.374 72.4667 136.374 71.848V71.416H135.846C135.068 71.416 134.454 71.4533 134.006 71.528C133.569 71.6027 133.254 71.7307 133.062 71.912C132.881 72.0827 132.79 72.3227 132.79 72.632C132.79 73.0373 132.929 73.368 133.206 73.624C133.484 73.8693 133.868 73.992 134.358 73.992ZM143.112 75.144C142.429 75.144 141.827 74.984 141.304 74.664C140.792 74.3333 140.392 73.864 140.104 73.256C139.816 72.648 139.672 71.928 139.672 71.096C139.672 70.264 139.816 69.5493 140.104 68.952C140.392 68.344 140.792 67.8747 141.304 67.544C141.816 67.2133 142.419 67.048 143.112 67.048C143.699 67.048 144.221 67.176 144.68 67.432C145.139 67.688 145.48 68.0347 145.704 68.472V63.72H147.32V75H145.736V73.64C145.512 74.1093 145.165 74.4773 144.696 74.744C144.237 75.0107 143.709 75.144 143.112 75.144ZM143.528 73.896C144.189 73.896 144.723 73.656 145.128 73.176C145.533 72.696 145.736 72.0027 145.736 71.096C145.736 70.1893 145.533 69.5013 145.128 69.032C144.723 68.552 144.189 68.312 143.528 68.312C142.856 68.312 142.317 68.552 141.912 69.032C141.507 69.5013 141.304 70.1893 141.304 71.096C141.304 72.0027 141.507 72.696 141.912 73.176C142.317 73.656 142.856 73.896 143.528 73.896ZM150.213 76.968L149.509 76.424C149.754 76.1573 149.936 75.912 150.053 75.688C150.17 75.464 150.245 75.2347 150.277 75H149.397V73.096H151.301V74.392C151.301 74.8827 151.221 75.3307 151.061 75.736C150.901 76.152 150.618 76.5627 150.213 76.968ZM157.765 75V63.72H159.429V75H157.765ZM168.17 75L165.194 67.192H166.858L168.954 73.112L171.114 67.192H172.362L174.49 73.144L176.618 67.192H178.202L175.226 75H173.754L171.69 69.416L169.642 75H168.17ZM181.929 75.144C181.385 75.144 180.9 75.0373 180.473 74.824C180.046 74.6107 179.705 74.3227 179.449 73.96C179.204 73.5973 179.081 73.1867 179.081 72.728C179.081 72.152 179.225 71.6987 179.513 71.368C179.812 71.0373 180.297 70.7973 180.969 70.648C181.652 70.4987 182.569 70.424 183.721 70.424H184.265V70.008C184.265 69.4 184.137 68.9627 183.881 68.696C183.625 68.4293 183.204 68.296 182.617 68.296C182.169 68.296 181.721 68.3653 181.273 68.504C180.825 68.632 180.366 68.84 179.897 69.128L179.401 67.992C179.806 67.704 180.313 67.4747 180.921 67.304C181.529 67.1333 182.11 67.048 182.665 67.048C183.732 67.048 184.521 67.304 185.033 67.816C185.545 68.3173 185.801 69.1067 185.801 70.184V75H184.281V73.704C184.089 74.152 183.79 74.504 183.385 74.76C182.98 75.016 182.494 75.144 181.929 75.144ZM182.249 73.992C182.825 73.992 183.305 73.7893 183.689 73.384C184.073 72.9787 184.265 72.4667 184.265 71.848V71.416H183.737C182.958 71.416 182.345 71.4533 181.897 71.528C181.46 71.6027 181.145 71.7307 180.953 71.912C180.772 72.0827 180.681 72.3227 180.681 72.632C180.681 73.0373 180.82 73.368 181.097 73.624C181.374 73.8693 181.758 73.992 182.249 73.992ZM188.027 75V67.192H189.595V68.488C189.861 68.0187 190.224 67.6613 190.683 67.416C191.152 67.1707 191.675 67.048 192.251 67.048C194.096 67.048 195.019 68.0933 195.019 70.184V75H193.403V70.28C193.403 69.608 193.269 69.1173 193.003 68.808C192.747 68.4987 192.341 68.344 191.787 68.344C191.136 68.344 190.613 68.552 190.219 68.968C189.835 69.3733 189.643 69.912 189.643 70.584V75H188.027ZM200.573 75.144C199.592 75.144 198.861 74.8933 198.381 74.392C197.901 73.8907 197.661 73.1653 197.661 72.216V68.44H196.141V67.192H197.661V64.84H199.277V67.192H201.693V68.44H199.277V72.088C199.277 72.6533 199.395 73.08 199.629 73.368C199.875 73.656 200.269 73.8 200.813 73.8C200.984 73.8 201.149 73.784 201.309 73.752C201.469 73.7093 201.629 73.6613 201.789 73.608L202.045 74.824C201.885 74.92 201.661 74.9947 201.373 75.048C201.096 75.112 200.829 75.144 200.573 75.144ZM210.62 75.144C209.639 75.144 208.908 74.8933 208.428 74.392C207.948 73.8907 207.708 73.1653 207.708 72.216V68.44H206.188V67.192H207.708V64.84H209.324V67.192H211.74V68.44H209.324V72.088C209.324 72.6533 209.442 73.08 209.676 73.368C209.922 73.656 210.316 73.8 210.86 73.8C211.031 73.8 211.196 73.784 211.356 73.752C211.516 73.7093 211.676 73.6613 211.836 73.608L212.092 74.824C211.932 74.92 211.708 74.9947 211.42 75.048C211.143 75.112 210.876 75.144 210.62 75.144ZM216.45 75.144C215.661 75.144 214.978 74.9787 214.402 74.648C213.826 74.3173 213.378 73.8533 213.058 73.256C212.749 72.648 212.594 71.928 212.594 71.096C212.594 70.264 212.749 69.5493 213.058 68.952C213.378 68.344 213.826 67.8747 214.402 67.544C214.978 67.2133 215.661 67.048 216.45 67.048C217.218 67.048 217.89 67.2133 218.466 67.544C219.042 67.8747 219.49 68.344 219.81 68.952C220.13 69.5493 220.29 70.264 220.29 71.096C220.29 71.928 220.13 72.648 219.81 73.256C219.49 73.8533 219.042 74.3173 218.466 74.648C217.89 74.9787 217.218 75.144 216.45 75.144ZM216.45 73.896C217.111 73.896 217.645 73.656 218.05 73.176C218.455 72.696 218.658 72.0027 218.658 71.096C218.658 70.1893 218.455 69.5013 218.05 69.032C217.645 68.552 217.111 68.312 216.45 68.312C215.778 68.312 215.239 68.552 214.834 69.032C214.429 69.5013 214.226 70.1893 214.226 71.096C214.226 72.0027 214.429 72.696 214.834 73.176C215.239 73.656 215.778 73.896 216.45 73.896ZM229.844 78.024C229.14 78.024 228.484 77.9387 227.876 77.768C227.268 77.608 226.729 77.352 226.26 77L226.756 75.848C227.225 76.168 227.705 76.4027 228.196 76.552C228.687 76.7013 229.199 76.776 229.732 76.776C231.225 76.776 231.972 76.0293 231.972 74.536V73.304C231.748 73.7733 231.396 74.1413 230.916 74.408C230.447 74.6747 229.919 74.808 229.332 74.808C228.628 74.808 228.015 74.648 227.492 74.328C226.969 73.9973 226.564 73.544 226.276 72.968C225.988 72.3813 225.844 71.6987 225.844 70.92C225.844 70.152 225.988 69.48 226.276 68.904C226.564 68.3173 226.969 67.864 227.492 67.544C228.015 67.2133 228.628 67.048 229.332 67.048C229.929 67.048 230.463 67.1813 230.932 67.448C231.401 67.7147 231.748 68.0827 231.972 68.552V67.192H233.54V74.344C233.54 75.5707 233.225 76.488 232.596 77.096C231.967 77.7147 231.049 78.024 229.844 78.024ZM229.716 73.544C230.399 73.544 230.943 73.3093 231.348 72.84C231.753 72.3707 231.956 71.7307 231.956 70.92C231.956 70.1093 231.753 69.4747 231.348 69.016C230.943 68.5467 230.399 68.312 229.716 68.312C229.033 68.312 228.489 68.5467 228.084 69.016C227.679 69.4747 227.476 70.1093 227.476 70.92C227.476 71.7307 227.679 72.3707 228.084 72.84C228.489 73.3093 229.033 73.544 229.716 73.544ZM239.2 75.144C238.411 75.144 237.728 74.9787 237.152 74.648C236.576 74.3173 236.128 73.8533 235.808 73.256C235.499 72.648 235.344 71.928 235.344 71.096C235.344 70.264 235.499 69.5493 235.808 68.952C236.128 68.344 236.576 67.8747 237.152 67.544C237.728 67.2133 238.411 67.048 239.2 67.048C239.968 67.048 240.64 67.2133 241.216 67.544C241.792 67.8747 242.24 68.344 242.56 68.952C242.88 69.5493 243.04 70.264 243.04 71.096C243.04 71.928 242.88 72.648 242.56 73.256C242.24 73.8533 241.792 74.3173 241.216 74.648C240.64 74.9787 239.968 75.144 239.2 75.144ZM239.2 73.896C239.861 73.896 240.395 73.656 240.8 73.176C241.205 72.696 241.408 72.0027 241.408 71.096C241.408 70.1893 241.205 69.5013 240.8 69.032C240.395 68.552 239.861 68.312 239.2 68.312C238.528 68.312 237.989 68.552 237.584 69.032C237.179 69.5013 236.976 70.1893 236.976 71.096C236.976 72.0027 237.179 72.696 237.584 73.176C237.989 73.656 238.528 73.896 239.2 73.896ZM251.794 75.144C251.154 75.144 250.557 75.064 250.002 74.904C249.447 74.7333 248.983 74.4987 248.61 74.2L249.074 73.112C249.469 73.3893 249.901 73.6027 250.37 73.752C250.85 73.9013 251.33 73.976 251.81 73.976C252.375 73.976 252.802 73.8747 253.09 73.672C253.378 73.4693 253.522 73.1973 253.522 72.856C253.522 72.5787 253.426 72.3653 253.234 72.216C253.042 72.056 252.754 71.9333 252.37 71.848L250.85 71.544C249.506 71.2667 248.834 70.5733 248.834 69.464C248.834 68.728 249.127 68.1413 249.714 67.704C250.301 67.2667 251.069 67.048 252.018 67.048C252.562 67.048 253.079 67.128 253.57 67.288C254.071 67.448 254.487 67.688 254.818 68.008L254.354 69.096C254.034 68.8187 253.666 68.6053 253.25 68.456C252.834 68.3067 252.423 68.232 252.018 68.232C251.463 68.232 251.042 68.3387 250.754 68.552C250.466 68.7547 250.322 69.032 250.322 69.384C250.322 69.9173 250.674 70.2587 251.378 70.408L252.898 70.712C253.591 70.8507 254.114 71.0853 254.466 71.416C254.829 71.7467 255.01 72.1947 255.01 72.76C255.01 73.5067 254.717 74.0933 254.13 74.52C253.543 74.936 252.765 75.144 251.794 75.144ZM260.058 75.144C259.076 75.144 258.346 74.8933 257.866 74.392C257.386 73.8907 257.146 73.1653 257.146 72.216V68.44H255.626V67.192H257.146V64.84H258.762V67.192H261.178V68.44H258.762V72.088C258.762 72.6533 258.879 73.08 259.114 73.368C259.359 73.656 259.754 73.8 260.298 73.8C260.468 73.8 260.634 73.784 260.794 73.752C260.954 73.7093 261.114 73.6613 261.274 73.608L261.53 74.824C261.37 74.92 261.146 74.9947 260.858 75.048C260.58 75.112 260.314 75.144 260.058 75.144ZM262.574 75V67.192H264.142V68.584C264.547 67.656 265.39 67.1387 266.67 67.032L267.198 67L267.31 68.376L266.334 68.472C264.915 68.6107 264.206 69.3413 264.206 70.664V75H262.574ZM270.96 75.144C270.416 75.144 269.931 75.0373 269.504 74.824C269.077 74.6107 268.736 74.3227 268.48 73.96C268.235 73.5973 268.112 73.1867 268.112 72.728C268.112 72.152 268.256 71.6987 268.544 71.368C268.843 71.0373 269.328 70.7973 270 70.648C270.683 70.4987 271.6 70.424 272.752 70.424H273.296V70.008C273.296 69.4 273.168 68.9627 272.912 68.696C272.656 68.4293 272.235 68.296 271.648 68.296C271.2 68.296 270.752 68.3653 270.304 68.504C269.856 68.632 269.397 68.84 268.928 69.128L268.432 67.992C268.837 67.704 269.344 67.4747 269.952 67.304C270.56 67.1333 271.141 67.048 271.696 67.048C272.763 67.048 273.552 67.304 274.064 67.816C274.576 68.3173 274.832 69.1067 274.832 70.184V75H273.312V73.704C273.12 74.152 272.821 74.504 272.416 74.76C272.011 75.016 271.525 75.144 270.96 75.144ZM271.28 73.992C271.856 73.992 272.336 73.7893 272.72 73.384C273.104 72.9787 273.296 72.4667 273.296 71.848V71.416H272.768C271.989 71.416 271.376 71.4533 270.928 71.528C270.491 71.6027 270.176 71.7307 269.984 71.912C269.803 72.0827 269.712 72.3227 269.712 72.632C269.712 73.0373 269.851 73.368 270.128 73.624C270.405 73.8693 270.789 73.992 271.28 73.992ZM276.914 65.384V63.704H278.802V65.384H276.914ZM277.058 75V67.192H278.674V75H277.058ZM284.485 78.024C283.781 78.024 283.125 77.9387 282.517 77.768C281.909 77.608 281.37 77.352 280.901 77L281.397 75.848C281.866 76.168 282.346 76.4027 282.837 76.552C283.327 76.7013 283.839 76.776 284.373 76.776C285.866 76.776 286.613 76.0293 286.613 74.536V73.304C286.389 73.7733 286.037 74.1413 285.557 74.408C285.087 74.6747 284.559 74.808 283.973 74.808C283.269 74.808 282.655 74.648 282.133 74.328C281.61 73.9973 281.205 73.544 280.917 72.968C280.629 72.3813 280.485 71.6987 280.485 70.92C280.485 70.152 280.629 69.48 280.917 68.904C281.205 68.3173 281.61 67.864 282.133 67.544C282.655 67.2133 283.269 67.048 283.973 67.048C284.57 67.048 285.103 67.1813 285.573 67.448C286.042 67.7147 286.389 68.0827 286.613 68.552V67.192H288.181V74.344C288.181 75.5707 287.866 76.488 287.237 77.096C286.607 77.7147 285.69 78.024 284.485 78.024ZM284.357 73.544C285.039 73.544 285.583 73.3093 285.989 72.84C286.394 72.3707 286.597 71.7307 286.597 70.92C286.597 70.1093 286.394 69.4747 285.989 69.016C285.583 68.5467 285.039 68.312 284.357 68.312C283.674 68.312 283.13 68.5467 282.725 69.016C282.319 69.4747 282.117 70.1093 282.117 70.92C282.117 71.7307 282.319 72.3707 282.725 72.84C283.13 73.3093 283.674 73.544 284.357 73.544ZM290.449 75V63.72H292.065V68.408C292.331 67.96 292.689 67.624 293.137 67.4C293.595 67.1653 294.107 67.048 294.673 67.048C296.518 67.048 297.441 68.0933 297.441 70.184V75H295.825V70.28C295.825 69.608 295.691 69.1173 295.425 68.808C295.169 68.4987 294.763 68.344 294.209 68.344C293.558 68.344 293.035 68.552 292.641 68.968C292.257 69.3733 292.065 69.912 292.065 70.584V75H290.449ZM302.995 75.144C302.014 75.144 301.283 74.8933 300.803 74.392C300.323 73.8907 300.083 73.1653 300.083 72.216V68.44H298.563V67.192H300.083V64.84H301.699V67.192H304.115V68.44H301.699V72.088C301.699 72.6533 301.817 73.08 302.051 73.368C302.297 73.656 302.691 73.8 303.235 73.8C303.406 73.8 303.571 73.784 303.731 73.752C303.891 73.7093 304.051 73.6613 304.211 73.608L304.467 74.824C304.307 74.92 304.083 74.9947 303.795 75.048C303.518 75.112 303.251 75.144 302.995 75.144ZM313.042 75.144C312.061 75.144 311.33 74.8933 310.85 74.392C310.37 73.8907 310.13 73.1653 310.13 72.216V68.44H308.61V67.192H310.13V64.84H311.746V67.192H314.162V68.44H311.746V72.088C311.746 72.6533 311.863 73.08 312.098 73.368C312.343 73.656 312.738 73.8 313.282 73.8C313.453 73.8 313.618 73.784 313.778 73.752C313.938 73.7093 314.098 73.6613 314.258 73.608L314.514 74.824C314.354 74.92 314.13 74.9947 313.842 75.048C313.565 75.112 313.298 75.144 313.042 75.144ZM318.872 75.144C318.082 75.144 317.4 74.9787 316.824 74.648C316.248 74.3173 315.8 73.8533 315.48 73.256C315.17 72.648 315.016 71.928 315.016 71.096C315.016 70.264 315.17 69.5493 315.48 68.952C315.8 68.344 316.248 67.8747 316.824 67.544C317.4 67.2133 318.082 67.048 318.872 67.048C319.64 67.048 320.312 67.2133 320.888 67.544C321.464 67.8747 321.912 68.344 322.232 68.952C322.552 69.5493 322.712 70.264 322.712 71.096C322.712 71.928 322.552 72.648 322.232 73.256C321.912 73.8533 321.464 74.3173 320.888 74.648C320.312 74.9787 319.64 75.144 318.872 75.144ZM318.872 73.896C319.533 73.896 320.066 73.656 320.472 73.176C320.877 72.696 321.08 72.0027 321.08 71.096C321.08 70.1893 320.877 69.5013 320.472 69.032C320.066 68.552 319.533 68.312 318.872 68.312C318.2 68.312 317.661 68.552 317.256 69.032C316.85 69.5013 316.648 70.1893 316.648 71.096C316.648 72.0027 316.85 72.696 317.256 73.176C317.661 73.656 318.2 73.896 318.872 73.896ZM332.058 75.144C331.076 75.144 330.346 74.8933 329.866 74.392C329.386 73.8907 329.146 73.1653 329.146 72.216V68.44H327.626V67.192H329.146V64.84H330.762V67.192H333.178V68.44H330.762V72.088C330.762 72.6533 330.879 73.08 331.114 73.368C331.359 73.656 331.754 73.8 332.298 73.8C332.468 73.8 332.634 73.784 332.794 73.752C332.954 73.7093 333.114 73.6613 333.274 73.608L333.53 74.824C333.37 74.92 333.146 74.9947 332.858 75.048C332.58 75.112 332.314 75.144 332.058 75.144ZM334.574 75V63.72H336.19V68.408C336.456 67.96 336.814 67.624 337.262 67.4C337.72 67.1653 338.232 67.048 338.798 67.048C340.643 67.048 341.566 68.0933 341.566 70.184V75H339.95V70.28C339.95 69.608 339.816 69.1173 339.55 68.808C339.294 68.4987 338.888 68.344 338.334 68.344C337.683 68.344 337.16 68.552 336.766 68.968C336.382 69.3733 336.19 69.912 336.19 70.584V75H334.574ZM347.456 75.144C346.176 75.144 345.168 74.7867 344.432 74.072C343.696 73.3467 343.328 72.36 343.328 71.112C343.328 70.312 343.488 69.608 343.808 69C344.139 68.3813 344.592 67.9013 345.168 67.56C345.744 67.2187 346.406 67.048 347.152 67.048C348.23 67.048 349.078 67.3947 349.696 68.088C350.315 68.7707 350.624 69.7147 350.624 70.92V71.464H344.896C345.014 73.0853 345.872 73.896 347.472 73.896C347.92 73.896 348.358 73.8267 348.784 73.688C349.222 73.5493 349.632 73.32 350.016 73L350.496 74.12C350.144 74.44 349.691 74.6907 349.136 74.872C348.582 75.0533 348.022 75.144 347.456 75.144ZM347.216 68.184C346.544 68.184 346.011 68.392 345.616 68.808C345.222 69.224 344.982 69.7787 344.896 70.472H349.264C349.232 69.7467 349.04 69.1867 348.688 68.792C348.336 68.3867 347.846 68.184 347.216 68.184ZM356.589 75V67.192H358.157V68.584C358.562 67.656 359.405 67.1387 360.685 67.032L361.213 67L361.325 68.376L360.349 68.472C358.93 68.6107 358.221 69.3413 358.221 70.664V75H356.589ZM366.113 75.144C364.833 75.144 363.825 74.7867 363.089 74.072C362.353 73.3467 361.985 72.36 361.985 71.112C361.985 70.312 362.145 69.608 362.465 69C362.795 68.3813 363.249 67.9013 363.825 67.56C364.401 67.2187 365.062 67.048 365.809 67.048C366.886 67.048 367.734 67.3947 368.353 68.088C368.971 68.7707 369.281 69.7147 369.281 70.92V71.464H363.553C363.67 73.0853 364.529 73.896 366.129 73.896C366.577 73.896 367.014 73.8267 367.441 73.688C367.878 73.5493 368.289 73.32 368.673 73L369.153 74.12C368.801 74.44 368.347 74.6907 367.793 74.872C367.238 75.0533 366.678 75.144 366.113 75.144ZM365.873 68.184C365.201 68.184 364.667 68.392 364.273 68.808C363.878 69.224 363.638 69.7787 363.553 70.472H367.921C367.889 69.7467 367.697 69.1867 367.345 68.792C366.993 68.3867 366.502 68.184 365.873 68.184ZM374.482 75.144C373.682 75.144 372.989 74.9787 372.402 74.648C371.826 74.3067 371.378 73.832 371.058 73.224C370.738 72.6053 370.578 71.88 370.578 71.048C370.578 69.8107 370.93 68.8347 371.634 68.12C372.338 67.4053 373.288 67.048 374.482 67.048C374.973 67.048 375.458 67.1333 375.938 67.304C376.418 67.4747 376.813 67.7093 377.122 68.008L376.61 69.144C376.312 68.8667 375.981 68.664 375.618 68.536C375.266 68.3973 374.93 68.328 374.61 68.328C373.853 68.328 373.266 68.568 372.85 69.048C372.445 69.5173 372.242 70.1893 372.242 71.064C372.242 71.9387 372.445 72.6267 372.85 73.128C373.266 73.6187 373.853 73.864 374.61 73.864C374.93 73.864 375.266 73.8 375.618 73.672C375.981 73.5333 376.312 73.3253 376.61 73.048L377.122 74.2C376.813 74.488 376.413 74.7173 375.922 74.888C375.442 75.0587 374.962 75.144 374.482 75.144ZM378.367 65.384V63.704H380.255V65.384H378.367ZM378.511 75V67.192H380.127V75H378.511ZM382.402 77.88V67.192H383.986V68.52C384.21 68.072 384.551 67.7147 385.01 67.448C385.468 67.1813 385.996 67.048 386.594 67.048C387.287 67.048 387.89 67.2133 388.402 67.544C388.924 67.8747 389.324 68.344 389.602 68.952C389.89 69.5493 390.034 70.264 390.034 71.096C390.034 71.928 389.89 72.648 389.602 73.256C389.324 73.864 388.924 74.3333 388.402 74.664C387.89 74.984 387.287 75.144 386.594 75.144C386.018 75.144 385.5 75.0213 385.042 74.776C384.594 74.52 384.252 74.1733 384.018 73.736V77.88H382.402ZM386.194 73.896C386.866 73.896 387.399 73.656 387.794 73.176C388.199 72.696 388.402 72.0027 388.402 71.096C388.402 70.1893 388.199 69.5013 387.794 69.032C387.399 68.552 386.866 68.312 386.194 68.312C385.522 68.312 384.983 68.552 384.578 69.032C384.183 69.5013 383.986 70.1893 383.986 71.096C383.986 72.0027 384.183 72.696 384.578 73.176C384.983 73.656 385.522 73.896 386.194 73.896ZM395.519 75.144C394.239 75.144 393.231 74.7867 392.495 74.072C391.759 73.3467 391.391 72.36 391.391 71.112C391.391 70.312 391.551 69.608 391.871 69C392.201 68.3813 392.655 67.9013 393.231 67.56C393.807 67.2187 394.468 67.048 395.215 67.048C396.292 67.048 397.14 67.3947 397.759 68.088C398.377 68.7707 398.687 69.7147 398.687 70.92V71.464H392.959C393.076 73.0853 393.935 73.896 395.535 73.896C395.983 73.896 396.42 73.8267 396.847 73.688C397.284 73.5493 397.695 73.32 398.079 73L398.559 74.12C398.207 74.44 397.753 74.6907 397.199 74.872C396.644 75.0533 396.084 75.144 395.519 75.144ZM395.279 68.184C394.607 68.184 394.073 68.392 393.679 68.808C393.284 69.224 393.044 69.7787 392.959 70.472H397.327C397.295 69.7467 397.103 69.1867 396.751 68.792C396.399 68.3867 395.908 68.184 395.279 68.184ZM404.508 65.384V63.704H406.396V65.384H404.508ZM404.652 75V67.192H406.268V75H404.652ZM411.87 75.144C410.889 75.144 410.158 74.8933 409.678 74.392C409.198 73.8907 408.958 73.1653 408.958 72.216V68.44H407.438V67.192H408.958V64.84H410.574V67.192H412.99V68.44H410.574V72.088C410.574 72.6533 410.692 73.08 410.926 73.368C411.172 73.656 411.566 73.8 412.11 73.8C412.281 73.8 412.446 73.784 412.606 73.752C412.766 73.7093 412.926 73.6613 413.086 73.608L413.342 74.824C413.182 74.92 412.958 74.9947 412.67 75.048C412.393 75.112 412.126 75.144 411.87 75.144ZM417.122 75.144C416.482 75.144 415.885 75.064 415.33 74.904C414.775 74.7333 414.311 74.4987 413.938 74.2L414.402 73.112C414.797 73.3893 415.229 73.6027 415.698 73.752C416.178 73.9013 416.658 73.976 417.138 73.976C417.703 73.976 418.13 73.8747 418.418 73.672C418.706 73.4693 418.85 73.1973 418.85 72.856C418.85 72.5787 418.754 72.3653 418.562 72.216C418.37 72.056 418.082 71.9333 417.698 71.848L416.178 71.544C414.834 71.2667 414.162 70.5733 414.162 69.464C414.162 68.728 414.455 68.1413 415.042 67.704C415.629 67.2667 416.397 67.048 417.346 67.048C417.89 67.048 418.407 67.128 418.898 67.288C419.399 67.448 419.815 67.688 420.146 68.008L419.682 69.096C419.362 68.8187 418.994 68.6053 418.578 68.456C418.162 68.3067 417.751 68.232 417.346 68.232C416.791 68.232 416.37 68.3387 416.082 68.552C415.794 68.7547 415.65 69.032 415.65 69.384C415.65 69.9173 416.002 70.2587 416.706 70.408L418.226 70.712C418.919 70.8507 419.442 71.0853 419.794 71.416C420.157 71.7467 420.338 72.1947 420.338 72.76C420.338 73.5067 420.045 74.0933 419.458 74.52C418.871 74.936 418.093 75.144 417.122 75.144ZM425.8 75.144C424.52 75.144 423.512 74.7867 422.776 74.072C422.04 73.3467 421.672 72.36 421.672 71.112C421.672 70.312 421.832 69.608 422.152 69C422.483 68.3813 422.936 67.9013 423.512 67.56C424.088 67.2187 424.749 67.048 425.496 67.048C426.573 67.048 427.421 67.3947 428.04 68.088C428.659 68.7707 428.968 69.7147 428.968 70.92V71.464H423.24C423.357 73.0853 424.216 73.896 425.816 73.896C426.264 73.896 426.701 73.8267 427.128 73.688C427.565 73.5493 427.976 73.32 428.36 73L428.84 74.12C428.488 74.44 428.035 74.6907 427.48 74.872C426.925 75.0533 426.365 75.144 425.8 75.144ZM425.56 68.184C424.888 68.184 424.355 68.392 423.96 68.808C423.565 69.224 423.325 69.7787 423.24 70.472H427.608C427.576 69.7467 427.384 69.1867 427.032 68.792C426.68 68.3867 426.189 68.184 425.56 68.184ZM433.274 75.144C432.42 75.144 431.78 74.904 431.354 74.424C430.938 73.944 430.73 73.24 430.73 72.312V63.72H432.346V72.216C432.346 73.272 432.778 73.8 433.642 73.8C433.77 73.8 433.887 73.7947 433.994 73.784C434.111 73.7733 434.228 73.752 434.346 73.72L434.314 75.016C433.951 75.1013 433.604 75.144 433.274 75.144ZM435.944 75V68.44H434.424V67.192H435.944V67.048C435.944 65.9707 436.216 65.16 436.76 64.616C437.314 64.072 438.162 63.768 439.304 63.704L440.008 63.656L440.12 64.872L439.384 64.92C438.733 64.9627 438.264 65.1387 437.976 65.448C437.698 65.7573 437.56 66.216 437.56 66.824V67.192H439.752V68.44H437.56V75H435.944ZM440.444 75V73.096H442.348V75H440.444Z" fill="black"/>
<path d="M6.53516 34.1641C6.37891 33.3828 6.30078 32.5365 6.30078 31.625C6.30078 30.3229 6.45703 28.9557 6.76953 27.5234C7.10807 26.0911 7.62891 24.724 8.33203 23.4219C9.0612 22.0938 9.98568 20.8958 11.1055 19.8281C12.2253 18.7604 13.5924 17.9401 15.207 17.3672C15.4154 17.263 15.6497 17.2109 15.9102 17.2109C16.1445 17.2109 16.3659 17.2891 16.5742 17.4453C16.7826 17.6016 16.8867 17.9271 16.8867 18.4219V20.5703C16.2617 20.9609 15.6497 21.4427 15.0508 22.0156C14.4779 22.5885 13.957 23.2266 13.4883 23.9297C13.0456 24.6328 12.681 25.401 12.3945 26.2344C12.1341 27.0417 12.0039 27.875 12.0039 28.7344C12.056 28.6823 12.1211 28.6562 12.1992 28.6562C12.3034 28.6562 12.3945 28.6562 12.4727 28.6562C13.306 28.6562 14.0742 28.7995 14.7773 29.0859C15.4805 29.3724 16.0794 29.763 16.5742 30.2578C17.069 30.7266 17.4466 31.2995 17.707 31.9766C17.9935 32.6536 18.1367 33.3828 18.1367 34.1641C18.1367 34.9193 17.9935 35.6224 17.707 36.2734C17.4466 36.8984 17.069 37.4583 16.5742 37.9531C16.0794 38.4479 15.4805 38.8385 14.7773 39.125C14.0742 39.3854 13.306 39.5156 12.4727 39.5156C11.6133 39.5156 10.8451 39.3854 10.168 39.125C9.49089 38.8385 8.90495 38.4479 8.41016 37.9531C7.94141 37.4583 7.55078 36.8984 7.23828 36.2734C6.92578 35.6224 6.69141 34.9193 6.53516 34.1641ZM22.8633 34.1641C22.707 33.3828 22.6289 32.5365 22.6289 31.625C22.6289 30.3229 22.7852 28.9557 23.0977 27.5234C23.4362 26.0911 23.957 24.724 24.6602 23.4219C25.3893 22.0938 26.3138 20.8958 27.4336 19.8281C28.5534 18.7604 29.9076 17.9401 31.4961 17.3672C31.6003 17.3151 31.7044 17.276 31.8086 17.25C31.9388 17.224 32.082 17.2109 32.2383 17.2109C32.4727 17.2109 32.681 17.2891 32.8633 17.4453C33.0716 17.6016 33.1758 17.9271 33.1758 18.4219V20.5703C32.5508 20.9609 31.9518 21.4427 31.3789 22.0156C30.806 22.5885 30.2852 23.2266 29.8164 23.9297C29.3737 24.6328 29.0091 25.401 28.7227 26.2344C28.4622 27.0417 28.332 27.875 28.332 28.7344C28.3841 28.6823 28.4492 28.6562 28.5273 28.6562C28.6315 28.6562 28.7227 28.6562 28.8008 28.6562C29.6341 28.6562 30.4023 28.7995 31.1055 29.0859C31.8086 29.3724 32.4076 29.763 32.9023 30.2578C33.3971 30.7266 33.7747 31.2995 34.0352 31.9766C34.3216 32.6536 34.4648 33.3828 34.4648 34.1641C34.4648 34.9193 34.3216 35.6224 34.0352 36.2734C33.7747 36.8984 33.3971 37.4583 32.9023 37.9531C32.4076 38.4479 31.8086 38.8385 31.1055 39.125C30.4023 39.3854 29.6341 39.5156 28.8008 39.5156C27.9414 39.5156 27.1732 39.3854 26.4961 39.125C25.819 38.8385 25.2331 38.4479 24.7383 37.9531C24.2695 37.4583 23.8789 36.8984 23.5664 36.2734C23.2539 35.6224 23.0195 34.9193 22.8633 34.1641Z" fill="#E2D5D1"/>
<path d="M486.464 61.0469C486.621 61.8281 486.699 62.6745 486.699 63.5859C486.699 64.888 486.542 66.2552 486.23 67.6875C485.891 69.1198 485.371 70.487 484.667 71.7891C483.938 73.1172 483.014 74.3151 481.894 75.3828C480.774 76.4505 479.407 77.2708 477.792 77.8438C477.584 77.9479 477.35 78 477.089 78C476.855 78 476.634 77.9219 476.425 77.7656C476.217 77.6094 476.113 77.2839 476.113 76.7891V74.6406C476.738 74.25 477.35 73.7682 477.949 73.1953C478.522 72.6224 479.042 71.9844 479.511 71.2812C479.954 70.5781 480.319 69.8099 480.605 68.9766C480.865 68.1693 480.996 67.3359 480.996 66.4766C480.944 66.5286 480.878 66.5547 480.8 66.5547C480.696 66.5547 480.605 66.5547 480.527 66.5547C479.694 66.5547 478.925 66.4115 478.222 66.125C477.519 65.8385 476.92 65.4479 476.425 64.9531C475.931 64.4844 475.553 63.9115 475.292 63.2344C475.006 62.5573 474.863 61.8281 474.863 61.0469C474.863 60.2917 475.006 59.5885 475.292 58.9375C475.553 58.3125 475.931 57.7526 476.425 57.2578C476.92 56.763 477.519 56.3724 478.222 56.0859C478.925 55.8255 479.694 55.6953 480.527 55.6953C481.386 55.6953 482.154 55.8255 482.832 56.0859C483.509 56.3724 484.095 56.763 484.589 57.2578C485.058 57.7526 485.449 58.3125 485.761 58.9375C486.074 59.5885 486.308 60.2917 486.464 61.0469ZM470.136 61.0469C470.292 61.8281 470.371 62.6745 470.371 63.5859C470.371 64.888 470.214 66.2552 469.902 67.6875C469.563 69.1198 469.042 70.487 468.339 71.7891C467.61 73.1172 466.686 74.3151 465.566 75.3828C464.446 76.4505 463.092 77.2708 461.503 77.8438C461.399 77.8958 461.295 77.9349 461.191 77.9609C461.061 77.987 460.917 78 460.761 78C460.527 78 460.319 77.9219 460.136 77.7656C459.928 77.6094 459.824 77.2839 459.824 76.7891V74.6406C460.449 74.25 461.048 73.7682 461.621 73.1953C462.194 72.6224 462.714 71.9844 463.183 71.2812C463.626 70.5781 463.99 69.8099 464.277 68.9766C464.537 68.1693 464.667 67.3359 464.667 66.4766C464.615 66.5286 464.55 66.5547 464.472 66.5547C464.368 66.5547 464.277 66.5547 464.199 66.5547C463.365 66.5547 462.597 66.4115 461.894 66.125C461.191 65.8385 460.592 65.4479 460.097 64.9531C459.602 64.4844 459.225 63.9115 458.964 63.2344C458.678 62.5573 458.535 61.8281 458.535 61.0469C458.535 60.2917 458.678 59.5885 458.964 58.9375C459.225 58.3125 459.602 57.7526 460.097 57.2578C460.592 56.763 461.191 56.3724 461.894 56.0859C462.597 55.8255 463.365 55.6953 464.199 55.6953C465.058 55.6953 465.826 55.8255 466.503 56.0859C467.181 56.3724 467.766 56.763 468.261 57.2578C468.73 57.7526 469.121 58.3125 469.433 58.9375C469.746 59.5885 469.98 60.2917 470.136 61.0469Z" fill="#E2D5D1"/>
</svg>
