<svg width="132" height="17" viewBox="0 0 132 17" fill="none" xmlns="http://www.w3.org/2000/svg">
<path d="M3.91772 13.198C6.14972 13.198 7.96772 11.956 7.96772 9.544V0.399999H6.99572V9.544C6.99572 11.344 5.75372 12.28 3.91772 12.28C2.49572 12.28 1.41572 11.74 0.965722 10.606L0.155722 11.092C0.767722 12.478 2.18972 13.198 3.91772 13.198ZM16.839 3.802C14.085 3.802 12.177 5.854 12.177 8.5C12.177 11.218 14.139 13.198 16.911 13.198C18.6931 13.198 20.097 12.388 20.8351 11.164L20.043 10.696C19.5211 11.65 18.405 12.334 16.929 12.334C14.877 12.334 13.329 11.002 13.113 8.968H21.2671C21.2671 8.824 21.285 8.68 21.285 8.536C21.285 6.07 19.575 3.802 16.839 3.802ZM16.839 4.666C18.603 4.666 20.1511 5.89 20.349 8.086H13.113C13.293 6.088 14.787 4.666 16.839 4.666ZM29.6707 3.802C28.2847 3.802 27.1327 4.378 26.4487 5.71V4H25.5487V13H26.4487V8.248C26.4487 5.818 27.8347 4.666 29.5987 4.666C31.2907 4.666 32.2447 5.746 32.2447 7.402V13H33.1627V7.402C33.1627 5.224 31.8127 3.802 29.6707 3.802ZM41.9908 3.802C40.6048 3.802 39.4528 4.378 38.7688 5.71V4H37.8688V13H38.7688V8.248C38.7688 5.818 40.1548 4.666 41.9188 4.666C43.6108 4.666 44.5648 5.746 44.5648 7.402V13H45.4828V7.402C45.4828 5.224 44.1328 3.802 41.9908 3.802ZM56.6012 4L53.4692 12.01L49.8332 4H48.8612L53.0012 13.162L52.8032 13.648C52.2452 14.962 51.3272 15.862 50.1212 15.754V16.6C51.6692 16.726 53.0012 15.556 53.6852 13.828L57.5732 4H56.6012ZM75.2018 6.466C76.1738 5.944 76.8218 4.936 76.8218 3.712C76.8218 1.894 75.3458 0.399999 73.5098 0.399999H68.4878V13H73.9238C75.8318 13 77.3618 11.47 77.3618 9.562C77.3618 8.122 76.4618 6.952 75.2018 6.466ZM73.5098 1.3C74.8058 1.3 75.8678 2.38 75.8678 3.712C75.8678 5.044 74.8058 6.124 73.5098 6.124H69.4418V1.3H73.5098ZM73.9238 12.1H69.4418V7.024H73.9238C75.2918 7.024 76.4078 8.158 76.4078 9.562C76.4078 10.966 75.2918 12.1 73.9238 12.1ZM89.6026 4V6.034C88.8466 4.684 87.4606 3.802 85.7326 3.802C83.1766 3.802 81.0706 5.836 81.0706 8.5C81.0706 11.164 83.1766 13.198 85.7326 13.198C87.4606 13.198 88.8466 12.316 89.6026 10.966V13H90.5206V4H89.6026ZM85.8046 12.334C83.6626 12.334 81.9886 10.642 81.9886 8.5C81.9886 6.358 83.6626 4.666 85.8046 4.666C87.9466 4.666 89.6026 6.358 89.6026 8.5C89.6026 10.642 87.9466 12.334 85.8046 12.334ZM96.3442 5.764V4H95.4442V13H96.3442V7.996C96.3442 5.692 97.8022 4.738 99.3502 4.738V3.874C98.1262 3.874 96.9562 4.342 96.3442 5.764ZM104.235 5.764V4H103.335V13H104.235V7.996C104.235 5.692 105.693 4.738 107.241 4.738V3.874C106.017 3.874 104.847 4.342 104.235 5.764ZM114.802 13.198C117.412 13.198 119.518 11.164 119.518 8.5C119.518 5.836 117.412 3.802 114.802 3.802C112.174 3.802 110.068 5.836 110.068 8.5C110.068 11.164 112.174 13.198 114.802 13.198ZM114.802 12.334C112.66 12.334 110.986 10.642 110.986 8.5C110.986 6.358 112.66 4.666 114.802 4.666C116.944 4.666 118.6 6.358 118.6 8.5C118.6 10.642 116.944 12.334 114.802 12.334ZM127.966 3.802C126.58 3.802 125.428 4.378 124.744 5.71V4H123.844V13H124.744V8.248C124.744 5.818 126.13 4.666 127.894 4.666C129.586 4.666 130.54 5.746 130.54 7.402V13H131.458V7.402C131.458 5.224 130.108 3.802 127.966 3.802Z" fill="black"/>
</svg>
